<svg width="32" height="32" viewBox="0 0 32 32" fill="none" xmlns="http://www.w3.org/2000/svg">
<mask id="mask0_571_25960" style="mask-type:alpha" maskUnits="userSpaceOnUse" x="0" y="0" width="32" height="32">
<rect width="32" height="32" fill="#D9D9D9"/>
</mask>
<g mask="url(#mask0_571_25960)">
<path d="M5.66135 15.8346C4.82002 15.8346 4.11046 15.5442 3.53268 14.9633C2.9549 14.3824 2.66602 13.6713 2.66602 12.83C2.66602 11.9886 2.95646 11.2791 3.53735 10.7013C4.11824 10.1235 4.82935 9.83464 5.67068 9.83464C6.51202 9.83464 7.22157 10.1251 7.79935 10.706C8.37713 11.2869 8.66602 11.998 8.66602 12.8393C8.66602 13.6806 8.37557 14.3902 7.79468 14.968C7.21379 15.5457 6.50268 15.8346 5.66135 15.8346ZM11.828 10.168C10.9867 10.168 10.2771 9.87752 9.69935 9.29664C9.12157 8.71575 8.83268 8.00464 8.83268 7.1633C8.83268 6.32197 9.12313 5.61241 9.70402 5.03464C10.2849 4.45686 10.996 4.16797 11.8373 4.16797C12.6787 4.16797 13.3882 4.45841 13.966 5.0393C14.5438 5.62019 14.8327 6.3313 14.8327 7.17264C14.8327 8.01397 14.5422 8.72352 13.9613 9.3013C13.3805 9.87908 12.6693 10.168 11.828 10.168ZM20.1613 10.168C19.32 10.168 18.6105 9.87752 18.0327 9.29664C17.4549 8.71575 17.166 8.00464 17.166 7.1633C17.166 6.32197 17.4565 5.61241 18.0374 5.03464C18.6182 4.45686 19.3294 4.16797 20.1707 4.16797C21.012 4.16797 21.7216 4.45841 22.2994 5.0393C22.8771 5.62019 23.166 6.3313 23.166 7.17264C23.166 8.01397 22.8756 8.72352 22.2947 9.3013C21.7138 9.87908 21.0027 10.168 20.1613 10.168ZM26.328 15.8346C25.4867 15.8346 24.7771 15.5442 24.1993 14.9633C23.6216 14.3824 23.3327 13.6713 23.3327 12.83C23.3327 11.9886 23.6231 11.2791 24.204 10.7013C24.7849 10.1235 25.496 9.83464 26.3373 9.83464C27.1787 9.83464 27.8882 10.1251 28.466 10.706C29.0438 11.2869 29.3327 11.998 29.3327 12.8393C29.3327 13.6806 29.0422 14.3902 28.4614 14.968C27.8805 15.5457 27.1693 15.8346 26.328 15.8346ZM8.86602 29.5013C7.93268 29.5013 7.16602 29.151 6.56602 28.4503C5.96602 27.7499 5.66602 26.9224 5.66602 25.968C5.66602 25.0346 5.94935 24.2069 6.51602 23.4846C7.08268 22.7624 7.68824 22.068 8.33268 21.4013C8.82157 20.9124 9.27713 20.3957 9.69935 19.8513C10.1216 19.3069 10.5216 18.7457 10.8993 18.168C11.5438 17.1902 12.266 16.2791 13.066 15.4346C13.866 14.5902 14.8438 14.168 15.9993 14.168C17.1549 14.168 18.1382 14.5902 18.9494 15.4346C19.7605 16.2791 20.4882 17.2013 21.1327 18.2013C21.5105 18.7791 21.9049 19.3346 22.316 19.868C22.7271 20.4013 23.1771 20.9124 23.666 21.4013C24.3105 22.068 24.916 22.7624 25.4827 23.4846C26.0494 24.2069 26.3327 25.0346 26.3327 25.968C26.3327 26.9224 26.0327 27.7499 25.4327 28.4503C24.8327 29.151 24.066 29.5013 23.1327 29.5013C21.9327 29.5013 20.7438 29.4013 19.566 29.2013C18.3882 29.0013 17.1993 28.9013 15.9993 28.9013C14.7993 28.9013 13.6105 29.0013 12.4327 29.2013C11.2549 29.4013 10.066 29.5013 8.86602 29.5013Z" fill="#702DFF"/>
</g>
</svg>
