<svg width="24" height="24" viewBox="0 0 24 24" fill="none" xmlns="http://www.w3.org/2000/svg">
<path fill-rule="evenodd" clip-rule="evenodd" d="M20.6542 20.656C21.178 20.1322 21.5866 19.5048 21.8538 18.814C22.1109 18.1524 22.2867 17.3964 22.3372 16.2895C22.3878 15.1802 22.3998 14.826 22.3998 12.0016C22.3998 9.17713 22.3878 8.8228 22.3372 7.7137C22.2867 6.6067 22.1109 5.85073 21.8538 5.18921C21.5926 4.49527 21.1833 3.86664 20.6542 3.34717C20.1347 2.81801 19.5061 2.40856 18.812 2.14736C18.1505 1.89046 17.3945 1.71468 16.2875 1.66435C15.1784 1.61353 14.8242 1.60156 11.9997 1.60156C9.17522 1.60156 8.82093 1.61353 7.71183 1.66415C6.60483 1.71468 5.84885 1.89046 5.18734 2.14757C4.4934 2.40871 3.86477 2.81808 3.3453 3.34713C2.81613 3.86657 2.40665 4.4952 2.14541 5.18917C1.88851 5.85073 1.71272 6.6067 1.6624 7.7137C1.61158 8.8228 1.59961 9.17709 1.59961 12.0016C1.59961 14.8261 1.61158 15.1804 1.6624 16.2895C1.71293 17.3965 1.88871 18.1524 2.14582 18.814C2.40696 19.5079 2.81633 20.1365 3.34538 20.656C3.86485 21.185 4.49348 21.5944 5.18742 21.8556C5.84898 22.1127 6.60495 22.2884 7.71191 22.339C8.82118 22.3896 9.17534 22.4016 11.9998 22.4016C14.8242 22.4016 15.1786 22.3896 16.2877 22.339C17.3947 22.2884 18.1507 22.1127 18.8122 21.8556C19.503 21.5884 20.1304 21.1798 20.6542 20.656ZM3.19879 10.7775C3.1992 11.1139 3.19969 11.5142 3.19969 12.0016C3.19969 12.4889 3.1992 12.8892 3.19879 13.2257C3.1972 14.5391 3.19679 14.8793 3.23102 15.6264C3.2736 16.5631 3.32477 17.2514 3.48102 17.7701C3.63122 18.2688 3.79969 18.7764 4.34969 19.3889C4.89968 20.0014 5.43019 20.2788 6.10593 20.4826C6.78168 20.6864 7.63097 20.7302 8.36843 20.7639C9.2049 20.802 9.53642 20.8019 11.2909 20.8015L11.9997 20.8013C12.4685 20.8013 12.8567 20.8018 13.1851 20.8021C14.5307 20.8036 14.8704 20.804 15.6248 20.7694C16.5615 20.7268 17.2498 20.6757 17.7686 20.5194C18.2672 20.3692 18.7748 20.2007 19.3873 19.6507C19.9998 19.1007 20.2772 18.5702 20.4811 17.8945C20.6849 17.2188 20.7287 16.3695 20.7623 15.632C20.8004 14.7966 20.8003 14.466 20.7998 12.7175V12.7174L20.7997 12.0022L20.7998 11.2936C20.8003 9.53893 20.8004 9.20741 20.7622 8.37092C20.7286 7.63345 20.6848 6.78416 20.481 6.10842C20.2772 5.43268 19.9997 4.90217 19.3872 4.35217C18.7747 3.80217 18.2672 3.6337 17.7685 3.4835C17.2497 3.32725 16.5614 3.27608 15.6247 3.2335C14.8704 3.19894 14.5307 3.19931 13.1851 3.20079H13.1851C12.8567 3.20115 12.4685 3.20157 11.9997 3.20157L11.2909 3.20145H11.2909C9.53642 3.20098 9.2049 3.20089 8.36843 3.23905C7.63097 3.2727 6.78168 3.3165 6.10593 3.5203C5.43019 3.72411 4.89968 4.00155 4.34969 4.61405C3.79969 5.22655 3.63122 5.73414 3.48102 6.2328C3.32477 6.75155 3.2736 7.43986 3.23102 8.37655C3.19679 9.12366 3.1972 9.46398 3.19879 10.7775V10.7775ZM11.9995 8.10181C9.84578 8.10181 8.0998 9.84778 8.0998 12.0015C8.0998 14.1553 9.84578 15.9013 11.9995 15.9013C14.1533 15.9013 15.8993 14.1553 15.8993 12.0015C15.8993 9.84778 14.1533 8.10181 11.9995 8.10181ZM7.0998 12.0015C7.0998 9.2955 9.29349 7.10181 11.9995 7.10181C14.7056 7.10181 16.8993 9.2955 16.8993 12.0015C16.8993 14.7076 14.7056 16.9013 11.9995 16.9013C9.29349 16.9013 7.0998 14.7076 7.0998 12.0015ZM17.5512 7.65005C18.2139 7.65005 18.7512 7.11279 18.7512 6.45005C18.7512 5.78731 18.2139 5.25005 17.5512 5.25005C16.8884 5.25005 16.3512 5.78731 16.3512 6.45005C16.3512 7.11279 16.8884 7.65005 17.5512 7.65005Z" fill="#702DFF"/>
</svg>
