<svg width="512" height="512" viewBox="0 0 512 512" fill="none" xmlns="http://www.w3.org/2000/svg">
<rect width="512" height="512" fill="white"/>
<g clip-path="url(#clip0_426_19121)">
<path d="M405.541 304.646C373.702 182.347 275.816 26.793 275.816 26.793H275.769C271.606 20.8991 264.526 17 256.464 17C247.494 17 239.719 21.8512 235.868 28.9239C224.194 47.8071 137.408 190.213 107.602 304.125C103.32 317.59 101 331.872 101 346.652C101 428.033 170.611 494 256.488 494C342.365 494 411.976 428.033 411.976 346.652C411.976 332.053 409.704 317.976 405.541 304.646Z" fill="#4A3AFF"/>
<path d="M227.065 128.939C212.737 128.145 198.408 129.279 184.581 132.52L176.209 134.923C176.209 134.923 172.023 142.699 167.86 151.109C161.737 162.92 145.446 195.223 134.682 224.284L175.898 344.793L221.277 368.935V421.935C306.699 421.935 375.951 356.308 375.951 275.358C375.951 194.407 309.809 131.818 227.065 128.939Z" fill="white"/>
<path d="M263.258 404.457C263.258 370.091 292.657 342.23 328.922 342.23C365.186 342.23 394.585 370.091 394.585 404.457" fill="#4A3AFF"/>
<path d="M260.985 359.775H233.189C222.568 359.775 215.87 356.058 215.87 356.058C195.465 345.721 203.024 327.268 203.024 327.268C205.536 297.617 231.801 293.31 231.801 293.31C244.097 294.104 257.852 291.179 257.852 291.179C290.791 281.568 293.901 256.994 293.877 247.836C293.877 247.836 293.877 247.723 293.877 247.678V247.542C293.925 240.763 292.585 236.66 291.581 234.552C291.557 234.462 291.509 234.394 291.461 234.326C291.174 233.736 290.911 233.328 290.743 233.079C290.743 233.079 290.695 233.011 290.695 232.988C290.576 232.829 290.528 232.761 290.528 232.761C288.83 230.585 286.103 229.112 282.993 229.112C280.888 229.112 278.974 229.792 277.419 230.903C277.204 231.107 276.941 231.243 276.749 231.424C276.582 231.583 276.414 231.719 276.247 231.877C265.554 241.648 252.278 245.728 246.752 247.088C245.149 247.519 243.834 247.564 242.925 247.496C238.069 247.678 235.509 243.801 235.509 243.801C232.447 239.879 228.572 236.207 224.505 232.943C235.103 229.769 233.284 217.687 233.284 217.687C225.223 229.293 217.784 227.547 217.784 227.547L219.386 229.157C218.31 228.386 217.233 227.616 216.157 226.913C214.602 225.031 213.549 223.195 213.549 223.195C213.406 220.225 211.803 219.024 211.803 219.024C209.148 216.372 199.364 217.392 199.364 217.392C193.743 217.006 195.417 212.473 195.417 212.473L191.063 215.578L191.542 217.369L159.559 217.301C128.964 217.301 126.883 251.849 126.883 251.849V413.093C126.883 430.979 145.183 431.5 145.183 431.5H336.84C336.84 361.861 260.985 359.753 260.985 359.753" fill="#4A3AFF"/>
<path d="M192.546 184.115C192.546 184.115 189.125 176.839 178.863 181.871L181.806 173.461L196.326 175.569" fill="white"/>
<path d="M252.444 354.406L259.406 326.569C247.995 330.286 240.436 324.869 232.04 318.249C220.677 309.295 207.52 302.336 195.057 294.651C190.225 291.659 184.843 292.565 181.757 296.487C178.887 300.114 179.7 304.92 184.269 308.524C187.379 310.972 190.68 313.239 194.22 315.688C194.722 316.05 194.938 316.436 195.057 316.708C195.655 319.156 192.593 319.224 192.498 319.224C190.752 319.247 189.005 319.269 187.259 319.292H137.551C137.024 319.292 136.474 319.292 135.948 319.292C131.068 319.383 128.03 322.171 127.982 326.138C127.934 330.286 131.068 333.007 136.068 333.075C147.741 333.233 159.415 333.256 171.064 333.573C171.375 333.573 171.71 333.664 172.021 333.777C172.643 334.004 173.648 334.639 173.528 336.226C173.528 336.226 173.457 337.404 172.476 338.039C172.428 338.062 172.356 338.13 172.284 338.13C171.854 338.311 171.423 338.425 171.017 338.425C157.884 338.629 144.775 338.47 131.642 338.538C128.628 338.538 125.518 338.606 122.624 339.309C118.916 340.215 117.887 343.321 118.414 346.517C119.036 350.303 121.571 352.706 125.829 352.729C137.383 352.819 148.913 352.774 160.467 352.774C163.84 352.774 167.189 352.774 170.562 352.774C171.136 352.774 171.782 352.774 172.38 352.774C173.098 352.842 173.911 353.023 174.485 353.431C174.581 353.522 174.653 353.613 174.748 353.703C174.796 353.749 174.844 353.794 174.868 353.839C175.107 354.247 175.227 354.792 175.155 355.562C175.011 357.013 173.385 357.444 171.782 357.602C171.615 357.602 171.471 357.602 171.256 357.602H171.423C171.184 357.625 170.945 357.648 170.729 357.648C158.721 357.852 146.689 357.761 134.656 357.739C126.451 357.739 123.102 359.733 123.007 364.834C122.911 369.798 126.571 372.088 134.513 372.065C148.459 372.065 162.405 371.952 176.351 372.133C176.686 372.133 177.021 372.247 177.356 372.36C177.93 372.609 178.743 373.221 178.647 374.718C178.647 374.718 178.6 376.826 175.944 376.939C165.993 377.166 156.066 376.939 146.115 377.166C139.751 377.302 136.187 382.674 139.369 387.503C140.565 389.316 143.651 391.085 145.899 391.085C169.797 391.243 193.67 390.631 217.567 390.835C253.928 391.13 280.408 362.544 280.408 362.544L252.444 354.429V354.406ZM176.136 376.894H176.447H176.16H176.136Z" fill="white"/>
<path d="M339.591 396.14V388.863V382.674C339.591 382.674 340.213 372.949 331.96 372.949H322.607V396.14H314.904H308.374C308.374 396.14 298.111 395.55 298.111 403.371V412.235H322.583V419.511V425.7C322.583 425.7 321.961 435.425 330.214 435.425H339.567V412.212H347.269H353.8C353.8 412.212 364.062 412.801 364.062 404.98V396.117H339.591V396.14Z" fill="white"/>
<path d="M204.604 306.936L221.085 309.543L224.147 303.626C213.263 304.827 204.867 300.543 204.867 300.543" fill="white"/>
<path d="M289.834 231.926L208.454 294.424L199.172 287.533L187.02 286.127L184.533 291.001H183.48L182.141 295.694L181.758 296.464C181.853 296.306 181.997 296.215 182.093 296.079C186.135 292.135 191.231 294.56 193.096 295.671L214.769 309.771C234.743 322.466 261.87 322.012 281.533 306.915C305.67 288.371 309.378 254.799 289.81 231.926" fill="#4A3AFF"/>
<path d="M210.656 253.663C210.656 253.663 203.551 265.995 188.959 269.645C188.959 269.645 202.594 269.849 214.292 261.393C214.292 261.393 216.732 257.245 210.656 253.641" fill="white"/>
<path d="M193.814 217.327C193.814 217.327 203.55 198.103 185.991 173.961C185.991 173.961 148.531 184.729 130.159 235.122C111.788 285.515 130.159 238.205 130.159 238.205L193.814 217.327Z" fill="#4A3AFF"/>
</g>
<defs>
<clipPath id="clip0_426_19121">
<rect width="311" height="477" fill="white" transform="translate(101 17)"/>
</clipPath>
</defs>
</svg>
