<svg width="676" height="392" viewBox="0 0 676 392" fill="none" xmlns="http://www.w3.org/2000/svg">
<path d="M95.3858 179.842C95.3857 93.2602 165.475 23.0716 251.934 23.0716C277.904 23.0326 303.473 29.4937 326.316 41.8676C330.439 31.2463 337.251 21.8825 346.083 14.697C354.915 7.51149 365.462 2.75183 376.688 0.886014C387.914 -0.979799 399.431 0.112539 410.107 4.05557C420.784 7.9986 430.251 14.6565 437.579 23.3746C444.907 32.0927 449.843 42.5708 451.901 53.7782C453.959 64.9857 453.069 76.5367 449.318 87.2952C445.567 98.0537 439.084 107.649 430.507 115.138C421.93 122.627 411.555 127.751 400.401 130.007C405.768 146.072 408.497 162.902 408.481 179.842C408.481 266.424 338.393 336.613 251.934 336.613C165.475 336.613 95.3858 266.424 95.3858 179.842Z" fill="#EFF0F7"/>
<path d="M94.7274 303.169C70.429 303.169 50.7312 283.466 50.7312 259.161C50.7312 234.856 70.429 215.152 94.7274 215.152C119.026 215.152 138.724 234.856 138.724 259.161C138.724 283.466 119.026 303.169 94.7274 303.169Z" fill="#FF6584"/>
<path d="M561.869 326.717C498.945 358.147 422.493 332.659 391.109 269.79C381.653 250.919 377.067 229.981 377.768 208.879C368.552 209.736 359.274 208.182 350.846 204.368C342.418 200.554 335.13 194.612 329.699 187.127C324.268 179.641 320.881 170.87 319.872 161.675C318.862 152.48 320.264 143.179 323.939 134.686C327.615 126.193 333.439 118.8 340.837 113.235C348.234 107.67 356.952 104.124 366.133 102.947C375.313 101.769 384.64 103 393.196 106.518C401.752 110.036 409.242 115.721 414.931 123.013C424.657 113.278 435.898 105.184 448.215 99.0468C511.139 67.6175 587.591 93.1048 618.975 155.974C650.36 218.844 624.793 295.288 561.869 326.717Z" fill="#EFF0F7"/>
<path d="M614.098 285.439C619.996 297.254 615.213 311.609 603.415 317.502C591.617 323.395 577.271 318.594 571.373 306.779C565.475 294.965 570.258 280.61 582.056 274.717C593.854 268.824 608.2 273.624 614.098 285.439Z" fill="#FF6584"/>
<path d="M383.333 225.451C367.237 253.757 331.275 263.666 303.01 247.584C274.745 231.502 264.879 195.518 280.975 167.213C297.071 138.907 333.033 128.998 361.299 145.08C389.564 161.162 399.429 197.146 383.333 225.451Z" fill="#FF6584"/>
<path d="M445.266 65.4922L441.666 81.9731L449.323 104.913L461.66 80.2659L459.948 65.9672L445.266 65.4922Z" fill="#FFB6B6"/>
<path d="M440.997 81.1172H462.298V106.938H440.997V81.1172Z" fill="#C7C2FF"/>
<path d="M449.756 73.7941C441.722 73.7941 435.209 67.26 435.209 59.1998C435.209 51.1396 441.722 44.6055 449.756 44.6055C457.791 44.6055 464.304 51.1396 464.304 59.1998C464.304 67.26 457.791 73.7941 449.756 73.7941Z" fill="#FFB6B6"/>
<path d="M462.419 70.0499C462.419 70.0499 473.263 49.9589 463.486 40.2906C453.709 30.6223 445.861 36.9931 445.861 36.9931L441.379 36.8114C441.379 36.8114 440.444 40.3498 438.937 38.4343C437.43 36.5188 434.706 43.4948 434.706 43.4948C429.651 52.628 447.175 54.674 447.175 54.674C447.175 54.674 445.91 58.7179 447.196 59.5647C448.482 60.4116 451.919 63.5974 451.919 63.5974L454.995 65.928L456.822 63.134C456.822 63.134 458.732 61.6219 459.696 62.2571C460.661 62.8923 459.334 71.2494 459.334 71.2494L462.419 70.0499Z" fill="#7E5539"/>
<path d="M462.419 70.0499C462.419 70.0499 473.263 49.9589 463.486 40.2906C453.709 30.6223 445.861 36.9931 445.861 36.9931L441.379 36.8114C441.379 36.8114 440.444 40.3498 438.937 38.4343C437.43 36.5188 434.706 43.4948 434.706 43.4948C429.651 52.628 447.175 54.674 447.175 54.674C447.175 54.674 445.91 58.7179 447.196 59.5647C448.482 60.4116 451.919 63.5974 451.919 63.5974L454.995 65.928L456.822 63.134C456.822 63.134 458.732 61.6219 459.696 62.2571C460.661 62.8923 459.334 71.2494 459.334 71.2494L462.419 70.0499Z" fill="black" fill-opacity="0.2"/>
<path d="M479.66 217.953L485.222 301.185L471.549 301.65L453.474 218.651L479.66 217.953Z" fill="#4D4D4D"/>
<path d="M446.732 217.391L452.293 300.622L438.621 301.087L420.545 218.088L446.732 217.391Z" fill="#4D4D4D"/>
<path d="M483.22 236.872L475.941 146.221L487.103 99.0171C488.066 92.0001 483.659 85.3607 476.857 83.5502L465.935 80.6432L461.1 75.793L450.104 100.154L443.237 75.8115L437.881 79.7194L421.996 86.7502L422.003 86.9148L424.551 143.937L418.864 236.065L419.116 236.068L483.22 236.872Z" fill="white"/>
<path d="M439.499 300.141L435.54 311.998C435.54 311.998 420.051 314.11 419.81 318.921C419.569 323.731 440.86 320.947 453.327 321.575C465.794 322.204 455.416 308.659 455.416 308.659L454.088 300.876L439.499 300.141Z" fill="#4D4D4D"/>
<path d="M471.83 299.289L467.871 311.146C467.871 311.146 452.382 313.259 452.141 318.069C451.9 322.88 473.191 320.095 485.658 320.724C498.125 321.352 487.747 307.808 487.747 307.808L486.419 300.025L471.83 299.289Z" fill="#4D4D4D"/>
<path d="M491.145 188.729C491.313 186.391 490.92 184.047 490 181.893L492.955 157.576L481.38 156.504L479.629 181.286C478.466 183.318 477.805 185.6 477.701 187.94C477.361 193.796 480.094 198.716 483.807 198.934C487.52 199.151 490.806 194.582 491.145 188.729Z" fill="#FFB6B6"/>
<path d="M417.835 192.296C417.978 189.957 417.56 187.617 416.616 185.473L419.306 161.125L407.721 160.18L406.239 184.979C405.098 187.024 404.462 189.313 404.383 191.654C404.107 197.513 406.894 202.404 410.609 202.58C414.324 202.757 417.56 198.153 417.835 192.296Z" fill="#FFB6B6"/>
<path d="M493.002 178.974L493.041 178.764L499.074 146.293L491.946 93.4185C491.31 88.6979 487.108 85.2974 482.37 85.6774C479.896 85.8761 477.676 87.0535 476.119 88.993C474.562 90.9326 473.888 93.3597 474.222 95.8274L479.586 135.483L476.209 177.898L493.002 178.974Z" fill="white"/>
<path d="M421.411 178.216L433.539 96.9991C434.169 94.6176 433.8 92.1254 432.494 90.0076C431.189 87.8898 429.131 86.4457 426.7 85.9413C422.049 84.9763 417.457 87.8284 416.243 92.4333L404.592 177.196L421.411 178.216Z" fill="white"/>
<path d="M449.749 107.581C448.927 107.581 448.261 106.912 448.261 106.088C448.261 105.263 448.927 104.594 449.749 104.594C450.571 104.594 451.238 105.263 451.238 106.088C451.238 106.912 450.571 107.581 449.749 107.581Z" fill="#D6D7D8"/>
<path d="M449.749 118.886C448.927 118.886 448.261 118.217 448.261 117.392C448.261 116.567 448.927 115.898 449.749 115.898C450.571 115.898 451.238 116.567 451.238 117.392C451.238 118.217 450.571 118.886 449.749 118.886Z" fill="#D6D7D8"/>
<path d="M449.749 130.198C448.927 130.198 448.261 129.53 448.261 128.705C448.261 127.88 448.927 127.211 449.749 127.211C450.571 127.211 451.238 127.88 451.238 128.705C451.238 129.53 450.571 130.198 449.749 130.198Z" fill="#D6D7D8"/>
<path d="M449.749 141.511C448.927 141.511 448.261 140.842 448.261 140.017C448.261 139.192 448.927 138.523 449.749 138.523C450.571 138.523 451.238 139.192 451.238 140.017C451.238 140.842 450.571 141.511 449.749 141.511Z" fill="#D6D7D8"/>
<path d="M449.749 152.816C448.927 152.816 448.261 152.147 448.261 151.322C448.261 150.497 448.927 149.828 449.749 149.828C450.571 149.828 451.238 150.497 451.238 151.322C451.238 152.147 450.571 152.816 449.749 152.816Z" fill="#D6D7D8"/>
<path d="M449.749 164.128C448.927 164.128 448.261 163.459 448.261 162.634C448.261 161.809 448.927 161.141 449.749 161.141C450.571 161.141 451.238 161.809 451.238 162.634C451.238 163.459 450.571 164.128 449.749 164.128Z" fill="#D6D7D8"/>
<path d="M449.749 175.437C448.927 175.437 448.261 174.768 448.261 173.943C448.261 173.118 448.927 172.449 449.749 172.449C450.571 172.449 451.238 173.118 451.238 173.943C451.238 174.768 450.571 175.437 449.749 175.437Z" fill="#D6D7D8"/>
<path d="M449.749 186.741C448.927 186.741 448.261 186.073 448.261 185.248C448.261 184.423 448.927 183.754 449.749 183.754C450.571 183.754 451.238 184.423 451.238 185.248C451.238 186.073 450.571 186.741 449.749 186.741Z" fill="#D6D7D8"/>
<path d="M146.524 302.3L147.022 308.253L143.233 308.006L143.359 304.777L143.233 297.527L146.524 302.3Z" fill="#4D4D4D"/>
<path d="M184.415 273.726C184.415 273.726 185.656 285.638 185.268 288.961C185.124 290.189 184.991 290.937 184.991 290.937C184.991 290.937 187.578 296.998 187.793 297.227C188.009 297.457 195.406 302.101 195.406 302.101L200.577 305.205C200.577 305.205 205.822 302.841 203.307 302.027C202.794 301.815 202.331 301.49 201.951 301.076C199.432 298.615 196.27 292.498 196.27 292.498L195.263 287.917L194.759 270.925L194.698 245.633V242.336L184.858 242.41C184.796 243.529 184.433 245.74 184.433 245.74L183.039 251.348L184.415 273.726Z" fill="#FFB6B6"/>
<path opacity="0.1" d="M185.31 293.571C185.31 293.571 188.321 300.452 188.572 300.713C188.823 300.973 197.432 306.245 197.432 306.245L203.45 309.77C203.45 309.77 209.555 307.086 206.628 306.161C206.03 305.921 205.491 305.552 205.049 305.082L204.789 306.918L202.784 306.834L185.616 291.336C185.465 292.722 185.31 293.571 185.31 293.571Z" fill="#020202"/>
<path d="M184.344 289.84L200.696 303.775L202.596 303.851L202.992 301.224C202.992 301.224 206.316 305.269 213.7 305.044C213.7 305.044 218.134 307.817 211.563 307.967C204.991 308.117 196.599 307.742 196.599 307.742C196.599 307.742 192.192 299.112 187.286 300.237V306.755H183.317V300.177C183.317 300.177 183.026 299.155 182.566 298.484C182.107 297.814 181.651 296.275 181.651 296.275C181.651 296.275 181.566 294.752 181.919 293.867C182.272 292.983 182.736 292.419 183.4 291.892C183.697 291.629 183.934 291.311 184.096 290.958C184.258 290.605 184.343 290.225 184.344 289.84Z" fill="#4D4D4D"/>
<path d="M143.932 282.855C143.932 282.855 145.439 289.244 144.677 290.45C143.915 291.656 144.677 290.475 144.677 290.475C143.7 291.964 143.02 293.629 142.676 295.378L142.609 295.756L150.464 307.246L154.727 308.926C154.727 308.926 161.581 306.578 160.329 305.905C160.015 305.742 159.525 304.868 158.964 303.662C157.289 300.028 154.978 293.323 154.978 293.323V293.269C154.735 290.5 154.35 287.74 153.923 284.993C153.156 280.048 152.312 242.339 152.312 242.339C152.312 242.339 155.066 253.153 156.154 249.797C156.646 248.09 156.973 246.34 157.13 244.57C157.356 242.47 157.406 240.739 157.406 240.739C157.406 240.739 152.893 234.438 144.618 241.243C143.957 241.786 142.889 243.125 142.889 243.125C137.173 251.284 140.432 259.131 141.775 269.256C142.5 274.717 143.932 282.855 143.932 282.855Z" fill="#FFB6B6"/>
<path opacity="0.1" d="M142.596 295.754L150.451 307.244L154.714 308.925C154.714 308.925 161.568 306.576 160.316 305.904C160.002 305.74 159.513 304.866 158.951 303.661C156.05 303.636 154.546 306.408 154.546 306.408L150.87 305.82C150.87 305.82 146.021 296.259 144.932 295.675C143.844 295.091 144.765 291.31 144.765 291.31V290.348C144.736 290.381 144.71 290.419 144.677 290.453V290.478C143.699 291.967 143.02 293.632 142.675 295.381L142.596 295.754Z" fill="#020202"/>
<path d="M154.295 306.655C154.295 306.655 156.389 302.798 160.4 304.222C160.4 304.222 162.657 308.843 164.914 309.591C167.171 310.339 166.417 312.86 161.317 311.939C156.217 311.019 148.529 310.259 148.529 310.259L148.194 305.558L143.01 298.933C143.01 298.933 139.92 296.123 144.518 290.59V291.552C144.518 291.552 143.596 295.333 144.685 295.917C145.774 296.501 150.606 306.066 150.606 306.066L154.295 306.655Z" fill="#4D4D4D"/>
<path opacity="0.1" d="M185.143 238.467C185.071 239.738 184.906 241.001 184.649 242.248C189.364 241.555 193.74 241.899 196.608 242.126V238.383L185.143 238.467Z" fill="#020202"/>
<path opacity="0.1" d="M142.424 244.172C142.424 244.172 149.124 244.499 157.113 244.567C157.339 242.466 157.39 240.735 157.39 240.735C157.39 240.735 152.876 234.434 144.602 241.239C143.94 241.782 143.358 242.416 142.872 243.121C142.743 243.48 142.593 243.83 142.424 244.172Z" fill="#020202"/>
<path d="M137.646 249.323C137.646 249.323 171.302 256.729 180.246 254.212C189.19 251.696 201.895 252.815 201.895 252.815L198.936 229.407L191.332 204.243L185.143 171.869L178.623 170.067L178.163 169.937L166.802 166.795L158.478 164.488L143.345 234.104C143.345 234.104 140.076 238.767 139.741 240.94C139.069 245.296 138.202 248.154 137.646 249.323Z" fill="#C7C2FF"/>
<path d="M206.716 149.734C206.716 149.734 212.578 156.036 208.139 159.548C203.701 163.06 200.782 159.884 200.782 159.884L206.716 149.734Z" fill="#D9DBE9"/>
<path opacity="0.1" d="M206.716 149.734C206.716 149.734 212.578 156.036 208.139 159.548C203.701 163.06 200.782 159.884 200.782 159.884L206.716 149.734Z" fill="#020202"/>
<path d="M159.354 108.299C159.354 108.299 160.04 108.954 161.075 109.92C162.548 111.303 164.73 113.323 166.665 115.016C169.344 117.356 171.555 119.075 170.764 117.608C169.973 116.142 170.123 113.588 170.517 111.198C170.546 111.038 170.571 110.878 170.601 110.723C170.927 108.967 171.359 107.233 171.895 105.53C171.895 105.53 167.565 99.9178 165.17 97.7039C164.278 96.8637 163.654 96.5192 163.616 97.1032C163.574 97.8888 162.988 99.6238 162.26 101.464C162.239 101.523 162.218 101.577 162.193 101.636C161.707 102.896 161.158 104.19 160.677 105.308C159.94 107.022 159.354 108.299 159.354 108.299Z" fill="#FFB6B6"/>
<path opacity="0.1" d="M162.193 101.639C162.599 103.835 163.587 105.88 165.051 107.562C166.515 109.244 168.403 110.501 170.517 111.2C170.85 109.283 171.31 107.389 171.895 105.533C171.895 105.533 163.742 94.9677 163.616 97.106C163.587 97.9168 162.95 99.7149 162.193 101.639Z" fill="#020202"/>
<path opacity="0.1" d="M171.329 114.019L170.273 112.527C170.273 112.527 169.574 116.804 167.003 114.918C164.432 113.031 164.307 129.113 164.307 129.113L167.066 170.506L187.006 169.308L186.441 149.307L184.184 139.225L178.602 124.567L175.281 119.724L171.329 114.019Z" fill="#020202"/>
<path d="M164.307 129.368L166.819 166.795L167.083 170.761L178.2 170.093L178.619 170.068L186.994 169.564L186.428 149.559L184.171 139.476L178.59 124.819L175.269 119.975L171.316 114.249L170.261 112.762C170.261 112.762 169.562 117.038 166.991 115.152L166.937 115.114C164.424 113.518 164.307 129.368 164.307 129.368Z" fill="#C7C2FF"/>
<path d="M183.891 135.977C183.891 135.977 184.891 138.077 186.901 137.737C188.911 137.397 188.907 145.299 188.907 145.299C188.907 145.299 190.243 146.559 191.164 145.467C192.085 144.374 194.514 148.067 194.514 148.067L209.73 148.739C209.73 148.739 202.96 151.844 204.287 161.237C204.287 161.237 181.299 159.809 180.545 157.629C179.791 155.448 183.891 135.977 183.891 135.977Z" fill="white"/>
<path opacity="0.03" d="M183.891 135.977C183.891 135.977 184.891 138.077 186.901 137.737C188.911 137.397 188.907 145.299 188.907 145.299C188.907 145.299 190.243 146.559 191.164 145.467C192.085 144.374 194.514 148.067 194.514 148.067L209.73 148.739C209.73 148.739 202.96 151.844 204.287 161.237C204.287 161.237 181.299 159.809 180.545 157.629C179.791 155.448 183.891 135.977 183.891 135.977Z" fill="#020202"/>
<path d="M228.113 153.672L224.101 157.108L191.08 164.069L195.176 159.877L228.113 153.672Z" fill="white"/>
<path d="M171.266 115.346C171.815 116.186 173.385 120.488 174.696 124.244C175.788 127.373 176.701 130.125 176.701 130.125C176.701 130.125 178.833 144.047 179.921 146.564C181.01 149.08 180.42 158.894 180.42 158.894L184.477 183.13C184.477 183.13 186.315 195.628 189.154 203.093C191.956 210.44 195.075 213.885 195.171 213.994C193.915 212.289 187.069 178.706 187.069 178.706L184.808 136.351C184.808 136.351 184.477 132.326 184.142 128.886C183.807 125.445 177.024 120.748 177.024 120.748L170.483 111.418C169.826 112.3 170.265 113.838 171.266 115.346Z" fill="white"/>
<path d="M188.321 169.779C188.321 169.779 197.952 169.359 202.616 163.738C207.281 158.117 191.834 161.495 191.834 161.495L187.819 162.419L188.321 169.779Z" fill="#FFB6B6"/>
<path d="M132.563 236.691C144.015 242.396 164.83 237.112 164.83 237.112C166.924 239.044 172.438 241.892 172.438 241.892L175.449 204.503C177.367 199.462 178.121 173.05 178.121 173.05C178.121 173.05 175.7 153.343 174.695 151.331C174.402 150.743 174.545 149.869 174.892 148.928C176.601 144.449 177.229 139.628 176.726 134.859L175.922 128.007L175.7 126.087C171.768 124.322 168.758 118.701 168.758 118.701L166.664 115.021L162.812 108.241L160.986 105.031L160.676 105.313L158.311 107.464C158.311 107.464 157.306 108.304 155.798 109.564C152.52 112.337 146.854 117.218 143.931 120.205C141.36 122.835 140.548 133.065 140.314 140.765C140.159 145.836 140.251 149.81 140.251 149.81C142.843 154.091 136.063 188.459 136.063 188.459C134.485 195.101 132.563 236.691 132.563 236.691Z" fill="white"/>
<path opacity="0.03" d="M154.547 118.616C154.547 118.616 162.406 133.626 161.493 139.331C160.58 145.036 157.984 151.493 159.236 153.001C159.667 153.573 160.223 154.037 160.861 154.357C161.5 154.676 162.203 154.844 162.917 154.846C164.173 154.93 167.523 157.278 167.523 157.53C167.523 157.782 170.617 157.782 173.385 158.958C176.153 160.135 180.24 160.803 180.24 160.803C180.24 160.803 188.196 160.551 188.937 161.307C189.678 162.063 190.44 166.588 188.853 170.196C187.266 173.805 185.503 176.498 184.172 176.989C182.84 177.481 174.39 174.641 167.536 173.969C160.681 173.297 153.24 167.848 153.24 167.848C153.24 167.848 145.046 164.907 143.609 159.962C142.173 155.018 145.364 127.841 145.364 127.841C145.364 127.841 147.776 115.175 154.547 118.616Z" fill="#020202"/>
<path opacity="0.03" d="M155.551 117.357C155.551 117.357 163.411 132.371 162.49 138.072C161.569 143.773 158.981 150.234 160.237 151.747C160.666 152.319 161.221 152.783 161.859 153.103C162.497 153.423 163.2 153.59 163.913 153.591C165.17 153.675 168.519 156.023 168.519 156.275C168.519 156.527 171.614 156.527 174.382 157.699C177.149 158.872 181.236 159.544 181.236 159.544C181.236 159.544 189.192 159.292 189.929 160.048C190.666 160.804 191.436 165.333 189.845 168.937C188.254 172.542 186.495 175.239 185.164 175.73C183.832 176.222 175.382 173.382 168.528 172.714C161.673 172.046 154.232 166.589 154.232 166.589C154.232 166.589 146.042 163.648 144.623 158.708C143.203 153.767 146.377 126.582 146.377 126.582C146.377 126.582 148.781 113.921 155.551 117.357Z" fill="#020202"/>
<path d="M154.793 117.86C154.793 117.86 162.653 132.875 161.732 138.575C160.81 144.276 158.223 150.737 159.475 152.246C159.903 152.819 160.459 153.284 161.098 153.605C161.736 153.926 162.441 154.093 163.155 154.094C164.411 154.178 167.761 156.526 167.761 156.774C167.761 157.022 170.851 157.026 173.623 158.203C176.395 159.379 180.478 160.047 180.478 160.047C180.478 160.047 188.434 159.795 189.175 160.551C189.916 161.307 190.678 165.836 189.091 169.44C187.504 173.045 185.741 175.742 184.41 176.233C183.078 176.725 174.628 173.885 167.774 173.213C160.919 172.541 153.478 167.092 153.478 167.092C153.478 167.092 145.284 164.151 143.848 159.207C142.411 154.262 145.581 127.086 145.581 127.086C145.581 127.086 148.027 114.441 154.793 117.86Z" fill="white"/>
<path d="M209.471 148.719C212.503 148.824 219.052 149.752 215.656 156.108C212.654 161.734 207.608 157.974 204.769 155.121C205.461 152.462 207.145 150.17 209.471 148.719Z" fill="#FFB6B6"/>
<path opacity="0.1" d="M155.798 109.819C159.014 112.024 161.711 113.885 162.238 114.272C163.679 115.343 166.426 121.632 168.197 124.842C169.608 127.425 174.193 128.089 175.922 128.253L175.7 126.333C171.769 124.568 168.758 118.947 168.758 118.947L160.986 105.277L158.311 107.718C158.311 107.718 157.306 108.558 155.798 109.819Z" fill="#020202"/>
<path d="M155.798 109.569C159.014 111.774 161.711 113.635 162.238 114.026C163.679 115.093 166.426 121.382 168.197 124.592C169.608 127.175 174.193 127.839 175.922 128.003L175.7 126.083C171.769 124.318 168.758 118.697 168.758 118.697L160.986 105.027L158.311 107.46C158.311 107.46 157.306 108.292 155.798 109.569Z" fill="#D9DBE9"/>
<path d="M161.987 98.8644C161.985 101.386 162.748 103.849 164.173 105.926C165.856 108.382 168.361 110.152 171.234 110.913C174.106 111.675 177.155 111.378 179.828 110.077C182.501 108.776 184.62 106.557 185.802 103.822C186.983 101.087 187.149 98.0179 186.267 95.1713C185.386 92.3248 183.517 89.8894 181 88.307C178.482 86.7247 175.482 86.1003 172.545 86.547C169.608 86.9938 166.927 88.4822 164.99 90.7421C163.053 93.002 161.988 95.8837 161.987 98.8644Z" fill="#FFB6B6"/>
<path opacity="0.1" d="M140.314 140.77C142.014 139.72 143.399 138.228 144.321 136.451C145.02 135.065 145.485 133.464 146.678 132.481C147.754 131.599 149.191 131.385 150.531 130.99C154.936 129.683 158.629 125.65 158.767 121.046C158.834 118.878 158.16 116.715 158.466 114.568C158.639 113.353 159.121 112.203 159.864 111.228C160.233 110.762 160.638 110.325 161.074 109.922C161.66 109.367 162.276 108.829 162.812 108.241C163.15 107.877 163.445 107.475 163.691 107.044C163.89 106.691 164.052 106.318 164.173 105.931C165.01 103.36 164.248 100.31 165.169 97.7091L165.22 97.5663C165.567 96.6421 166.275 95.7178 167.259 95.6464C168.243 95.575 169.085 96.3942 170.022 96.7597C171.986 97.5243 174.105 96.222 175.742 94.8944C177.38 93.5669 179.226 92.0503 181.307 92.3444C182.685 92.5419 183.774 93.4829 185.042 93.9702C185.329 94.0815 185.624 94.1672 185.926 94.2265C184.852 91.54 182.879 89.3125 180.346 87.9267C177.814 86.5409 174.879 86.0833 172.046 86.6326C169.214 87.1819 166.66 88.7037 164.825 90.9366C162.989 93.1696 161.986 95.9742 161.987 98.8686C161.986 99.7426 162.077 100.614 162.259 101.469C162.238 101.528 162.217 101.582 162.192 101.641C161.707 102.902 161.158 104.196 160.676 105.313L158.311 107.464C158.311 107.464 157.306 108.304 155.798 109.564C152.52 112.337 146.854 117.219 143.932 120.206C141.361 122.844 140.557 133.069 140.314 140.77Z" fill="#020202"/>
<path d="M185.189 86.2948C184.59 85.0723 184.293 83.7028 183.577 82.5433C182.526 80.8629 180.692 79.7875 178.808 79.1363C173.888 77.4349 163.491 74.9647 160.384 79.1363C159.772 79.9765 159.266 80.9091 158.42 81.4889C157.775 81.93 156.996 82.119 156.288 82.4509C154.308 83.3835 153.043 85.4168 152.369 87.4921C151.695 89.5675 151.494 91.794 151 93.9323C150.368 96.6756 149.258 99.276 148.153 101.86C146.85 104.91 145.469 108.073 142.956 110.228C139.527 113.169 138.769 117.332 135.587 120.558C131.818 124.39 131.939 130.712 133.882 135.733C134.138 136.392 134.427 137.081 134.326 137.783C134.226 138.484 133.706 139.123 133.217 139.682L131.156 142.013C136.03 143.194 141.545 140.639 143.815 136.157C144.514 134.771 144.979 133.174 146.176 132.187C147.248 131.305 148.689 131.095 150.024 130.7C154.429 129.389 158.123 125.352 158.261 120.747C158.328 118.584 157.654 116.42 157.959 114.278C158.129 113.055 158.613 111.897 159.362 110.917C160.513 109.409 162.251 108.396 163.189 106.716C164.776 103.906 163.57 100.255 164.713 97.2385C165.065 96.3143 165.769 95.3901 166.753 95.3187C167.737 95.2472 168.578 96.0664 169.52 96.4319C171.48 97.1965 173.599 95.8984 175.236 94.5667C176.873 93.2349 178.72 91.7226 180.805 92.0209C182.183 92.2141 183.267 93.1551 184.536 93.6466C185.474 94.0079 187.375 94.3314 188.196 93.5374C189.929 91.9368 185.914 87.7904 185.189 86.2948Z" fill="#4D4D4D"/>
<path opacity="0.1" d="M142.65 134.77C143.354 133.384 143.814 131.787 145.012 130.804C146.084 129.922 147.524 129.708 148.864 129.313C153.265 128.006 156.958 123.969 157.1 119.365C157.167 117.201 156.493 115.034 156.795 112.891C156.97 111.676 157.453 110.526 158.197 109.551C159.353 108.043 161.091 107.031 162.025 105.35C163.612 102.544 162.406 98.8933 163.553 95.8727C163.901 94.9527 164.608 94.0285 165.588 93.9529C166.568 93.8773 167.418 94.7049 168.356 95.0704C170.315 95.8349 172.438 94.5326 174.071 93.2051C175.704 91.8776 177.559 90.361 179.641 90.6551C181.018 90.8525 182.107 91.7935 183.371 92.2809C184.309 92.6422 186.215 92.9698 187.035 92.1758C188.76 90.4954 184.745 86.3574 184.025 84.8702C183.426 83.6435 183.129 82.2782 182.408 81.1187C182.371 81.0557 182.329 80.9927 182.287 80.9297C182.826 81.3774 183.291 81.9077 183.665 82.5009C184.381 83.6604 184.678 85.0215 185.277 86.2524C186.001 87.7395 190.017 91.8902 188.287 93.558C187.45 94.3562 185.566 94.0285 184.628 93.6672C183.371 93.1757 182.274 92.2346 180.897 92.0414C178.803 91.7431 176.961 93.2597 175.328 94.5872C173.695 95.9147 171.559 97.2171 169.608 96.4525C168.67 96.087 167.849 95.2636 166.844 95.3392C165.839 95.4148 165.169 96.3349 164.805 97.2591C163.662 100.275 164.868 103.926 163.281 106.737C162.343 108.388 160.605 109.421 159.454 110.938C158.704 111.917 158.221 113.075 158.051 114.298C157.745 116.441 158.419 118.605 158.352 120.768C158.214 125.389 154.521 129.41 150.116 130.72C148.789 131.115 147.34 131.325 146.268 132.207C145.066 133.195 144.593 134.791 143.906 136.177C141.637 140.66 136.122 143.214 131.248 142.034L132.22 140.933C136.444 140.996 140.72 138.585 142.65 134.77Z" fill="#020202"/>
<path opacity="0.1" d="M171.518 115.599C172.066 116.439 173.636 120.741 174.947 124.497C176.174 124.018 177.288 120.964 177.288 120.964L170.747 111.629C170.077 112.553 170.517 114.087 171.518 115.599Z" fill="#020202"/>
<path d="M171.266 115.341C171.815 116.181 173.385 120.483 174.695 124.239C175.922 123.764 177.036 120.705 177.036 120.705L170.496 111.375C169.826 112.295 170.265 113.833 171.266 115.341Z" fill="#D9DBE9"/>
<path d="M209.295 158.265L212.921 146.792C212.964 146.658 212.98 146.516 212.968 146.376C212.957 146.235 212.917 146.098 212.853 145.973C212.788 145.848 212.7 145.736 212.592 145.645C212.485 145.555 212.36 145.486 212.226 145.443C211.956 145.359 211.664 145.385 211.413 145.515C211.162 145.646 210.973 145.871 210.886 146.141L207.26 157.601L207.62 160L209.295 158.265Z" fill="#BE8B87"/>
<path opacity="0.1" d="M212.578 145.783C212.307 145.697 212.014 145.722 211.762 145.853C211.51 145.983 211.32 146.209 211.234 146.48L207.608 157.94L207.88 159.738L207.616 160.016L207.256 157.617L210.903 146.156C210.989 145.886 211.179 145.662 211.43 145.531C211.681 145.4 211.973 145.374 212.243 145.459C212.47 145.533 212.666 145.681 212.8 145.879C212.729 145.841 212.654 145.808 212.578 145.783Z" fill="white"/>
<path d="M209.295 158.26L207.261 157.613L207.558 159.579L207.621 160.012L208.215 159.39L209.295 158.26Z" fill="#EFC8C4"/>
<path d="M208.215 159.392C208.179 159.347 208.135 159.31 208.085 159.282C208.056 159.264 208.021 159.254 207.987 159.254C207.952 159.254 207.918 159.264 207.888 159.282C207.86 159.317 207.836 159.355 207.817 159.396C207.789 159.442 207.752 159.482 207.707 159.512C207.662 159.541 207.611 159.561 207.557 159.568L207.62 159.988L208.215 159.392Z" fill="#727A9C"/>
<path d="M212.942 150.863C212.942 150.863 205.669 150.821 207.382 153.926C209.094 157.03 211.77 157.404 211.77 157.404L212.942 150.863Z" fill="#FFB6B6"/>
<path d="M235.095 179.754L236.773 140.056C236.773 140.056 238.659 116.488 240.167 108.257C241.675 100.027 251.857 102.272 251.857 102.272L250.726 125.84L245.845 149.959L242.046 182.802C242.241 183.752 242.352 184.785 242.352 185.869C242.352 190.471 240.415 194.201 238.026 194.201C235.637 194.201 233.7 190.471 233.7 185.869C233.7 183.449 234.239 181.276 235.095 179.754Z" fill="#FFB6B6"/>
<path d="M322.101 171.774C320.228 169.593 317.986 168.111 315.972 167.54L292.289 141.357C292.289 141.357 290.311 116.983 288.729 108.472C287.146 99.96 276.465 102.281 276.465 102.281L277.652 126.655L284.377 152.963L312.09 175.974C312.574 176.836 313.167 177.698 313.878 178.526C317.25 182.453 321.823 184.126 324.094 182.261C326.365 180.397 325.472 175.702 322.101 171.774Z" fill="#FFB6B6"/>
<path d="M270.878 98.6487L268.113 88.5136L257.341 88.0195L254.118 101.99L270.878 98.6487Z" fill="#FFB6B6"/>
<path opacity="0.1" d="M270.878 98.6487L268.113 88.5136L257.341 88.0195L254.118 101.99L270.878 98.6487Z" fill="#020202"/>
<path d="M297.444 268.703L307.315 268.141L306.021 298.361L299.332 298.743L297.444 268.703Z" fill="#FFB6B6"/>
<path d="M306.876 288.805L303.448 290.364L303.453 292.437C303.453 292.437 302.626 290.038 298.187 289.515L297.657 291.524C297.657 291.524 295.936 293.496 296.231 297.061L297.361 306.609L300.709 306.532L301.249 299.888C301.249 299.888 302.171 298.38 306.419 305.544C306.419 305.544 311.098 306.721 318.343 304.297C319.339 303.964 320.031 303.037 320.018 301.989C320.011 301.411 319.784 300.876 319.057 300.685C317.207 300.197 315.401 300.815 314.206 299.342C313.011 297.869 306.876 288.805 306.876 288.805Z" fill="#4D4D4D"/>
<path d="M244.466 268.703L254.337 268.141L253.043 298.361L246.354 298.743L244.466 268.703Z" fill="#FFB6B6"/>
<path d="M253.898 288.805L250.47 290.364L250.475 292.437C250.475 292.437 249.648 290.038 245.209 289.515L244.679 291.524C244.679 291.524 242.958 293.496 243.253 297.061L244.383 306.609L247.731 306.532L248.271 299.888C248.271 299.888 249.193 298.38 253.441 305.544C253.441 305.544 258.12 306.721 265.365 304.297C266.361 303.964 267.053 303.037 267.04 301.989C267.033 301.411 266.806 300.876 266.079 300.685C264.229 300.197 262.423 300.815 261.228 299.342C260.033 297.869 253.898 288.805 253.898 288.805Z" fill="#4D4D4D"/>
<path d="M262.498 95.0084C256.327 95.0084 251.325 89.6917 251.325 83.1331C251.325 76.5746 256.327 71.2578 262.498 71.2578C268.669 71.2578 273.672 76.5746 273.672 83.1331C273.672 89.6917 268.669 95.0084 262.498 95.0084Z" fill="#FFB6B6"/>
<path d="M255.402 84.4455C255.402 84.4455 260.504 76.1389 265.612 77.0557C270.719 77.9726 273.382 78.8003 273.382 78.8003C273.382 78.8003 275.462 72.1774 268.479 69C268.479 69 278.361 60.7679 267.829 55.4848C257.297 50.2017 250.743 55.3219 250.743 55.3219C250.743 55.3219 242.025 62.6773 251.69 69.4845C251.69 69.4845 243.325 78.9651 251.774 88.0211C251.774 88.0211 250.283 81.1254 252.312 82.5391C254.341 83.9528 255.402 84.4455 255.402 84.4455Z" fill="#4D4D4D"/>
<path d="M254.274 99.7467L270.492 97.8008L282.952 107.725C282.952 107.725 289.149 124.713 284.534 134.969C284.423 135.214 284.336 152.288 284.336 152.288H249.879C249.879 152.288 249.913 140.667 248.596 136.458C248.408 135.856 248.192 135.406 247.945 135.163C245.967 133.217 241.221 120.763 243.594 115.314C245.967 109.866 254.274 99.7467 254.274 99.7467Z" fill="#C7C2FF"/>
<path d="M284.144 150.891L305.358 219.015L309.986 272.736H297.065L286.072 222.908L270.934 194.064L255.987 276.629H242.944L243.259 164.905L250.379 150.891H284.144Z" fill="#4D4D4D"/>
<path d="M328.088 175.274C331.979 169.025 341.054 167.555 347.796 170.536C354.537 173.517 359.197 179.873 362.365 186.516C365.532 193.158 367.525 200.315 370.78 206.916C380.36 226.336 399.759 239.019 411.962 256.915C421.131 270.361 425.986 286.688 425.651 302.946C425.523 309.174 424.514 315.726 420.618 320.594C414.835 327.819 404.597 329.301 395.378 330.252C390.023 330.805 383.45 330.789 380.693 326.177C379.602 324.352 391.325 317.987 391.136 315.871C390.122 304.452 377.17 297.201 376.155 285.782C374.564 293.738 376.603 301.953 376.282 310.06C375.96 318.167 371.954 327.337 363.996 329.013C361.541 329.53 358.768 329.172 356.907 327.493C355.046 325.813 354.502 322.64 356.16 320.76C354.462 322.49 351.597 322.94 349.449 321.813C347.301 320.687 346.048 318.078 346.513 315.702C346.856 313.955 347.986 312.485 348.965 310.997C354.267 302.934 355.648 292.426 352.609 283.272C347.238 267.09 329.599 256.527 326.611 239.743C324.392 227.279 330.723 213.155 324.005 202.415C320.978 197.575 315.837 194.524 311.737 190.547C307.637 186.57 304.43 180.485 306.777 175.283L327.734 175.26" fill="#7E5539"/>
<path d="M328.088 175.274C331.979 169.025 341.054 167.555 347.796 170.536C354.537 173.517 359.197 179.873 362.365 186.516C365.532 193.158 367.525 200.315 370.78 206.916C380.36 226.336 399.759 239.019 411.962 256.915C421.131 270.361 425.986 286.688 425.651 302.946C425.523 309.174 424.514 315.726 420.618 320.594C414.835 327.819 404.597 329.301 395.378 330.252C390.023 330.805 383.45 330.789 380.693 326.177C379.602 324.352 391.325 317.987 391.136 315.871C390.122 304.452 377.17 297.201 376.155 285.782C374.564 293.738 376.603 301.953 376.282 310.06C375.96 318.167 371.954 327.337 363.996 329.013C361.541 329.53 358.768 329.172 356.907 327.493C355.046 325.813 354.502 322.64 356.16 320.76C354.462 322.49 351.597 322.94 349.449 321.813C347.301 320.687 346.048 318.078 346.513 315.702C346.856 313.955 347.986 312.485 348.965 310.997C354.267 302.934 355.648 292.426 352.609 283.272C347.238 267.09 329.599 256.527 326.611 239.743C324.392 227.279 330.723 213.155 324.005 202.415C320.978 197.575 315.837 194.524 311.737 190.547C307.637 186.57 304.43 180.485 306.777 175.283L327.734 175.26" fill="black" fill-opacity="0.2"/>
<path d="M392.718 318.135C393.24 318.135 393.774 317.996 394.291 317.719C395.48 317.083 396.378 315.825 396.576 314.513C396.907 312.332 395.866 310.214 395.029 308.512C392.74 303.858 390.477 298.88 390.144 293.709C389.78 288.063 392.076 282.829 395.993 280.375C398.904 278.552 402.791 278.083 406.937 279.056C410.609 279.918 413.908 281.679 417.533 283.721C417.82 283.884 418.185 283.783 418.348 283.495C418.51 283.209 418.409 282.844 418.121 282.682C414.552 280.67 411.031 278.79 407.211 277.894C402.751 276.848 398.541 277.37 395.356 279.365C391.073 282.048 388.558 287.709 388.95 293.786C389.297 299.175 391.613 304.276 393.955 309.038C394.758 310.671 395.668 312.523 395.393 314.334C395.251 315.272 394.581 316.21 393.725 316.667C393.308 316.891 392.673 317.091 392.013 316.785C391.713 316.645 391.357 316.775 391.218 317.074C391.078 317.373 391.208 317.728 391.507 317.867C391.892 318.046 392.301 318.135 392.718 318.135Z" fill="#3F2B1E"/>
<path d="M346.869 174.859C347.652 177 346.607 179.399 345.158 181.161C343.71 182.922 341.849 184.339 340.573 186.229C337.897 190.19 338.299 195.605 340.354 199.918C342.41 204.232 345.876 207.688 349.275 211.052C349.024 209.609 349.755 208.153 350.751 207.078C351.748 206.003 353.002 205.205 354.116 204.253C359.305 199.815 360.928 191.73 357.852 185.642" fill="#3F2B1E"/>
<path d="M417.736 302.207C422.131 301.67 425.843 305.615 430.229 306.22C435.301 306.919 439.966 302.916 442.222 298.331C444.479 293.746 445.058 288.542 446.61 283.674C448.163 278.807 451.158 273.877 456.038 272.33C458.085 271.681 460.401 271.717 462.303 272.713C464.205 273.709 465.599 275.743 465.552 277.885C465.493 280.522 463.466 282.632 462.239 284.967C460.285 288.683 460.346 293.083 459.483 297.19C457.408 307.063 449.358 315.435 439.555 317.914C434.486 319.195 428.812 318.902 424.421 316.069C420.03 313.236 417.353 307.53 418.979 302.572" fill="#7E5539"/>
<path d="M417.736 302.207C422.131 301.67 425.843 305.615 430.229 306.22C435.301 306.919 439.966 302.916 442.222 298.331C444.479 293.746 445.058 288.542 446.61 283.674C448.163 278.807 451.158 273.877 456.038 272.33C458.085 271.681 460.401 271.717 462.303 272.713C464.205 273.709 465.599 275.743 465.552 277.885C465.493 280.522 463.466 282.632 462.239 284.967C460.285 288.683 460.346 293.083 459.483 297.19C457.408 307.063 449.358 315.435 439.555 317.914C434.486 319.195 428.812 318.902 424.421 316.069C420.03 313.236 417.353 307.53 418.979 302.572" fill="black" fill-opacity="0.2"/>
<path d="M63.6837 85.4898C65.3858 86.4514 68.1327 82.6479 68.7552 84.5083C69.3778 86.3688 67.87 93.8755 67.0921 95.6759C66.7055 96.5707 66.1589 97.3892 65.7796 98.2872C65.3445 99.171 65.2562 100.187 65.5321 101.133C66.1157 102.727 68.0417 103.375 68.9966 104.775C70.1088 106.406 69.6596 108.603 69.1397 110.51C68.7566 112.173 68.1552 113.777 67.3512 115.28C66.533 116.794 65.1819 117.946 63.5628 118.511C61.4936 119.129 59.2821 118.394 57.2873 117.565C55.3444 116.823 53.5119 115.817 51.8411 114.574C50.1631 113.319 48.9176 111.567 48.2787 109.565C47.5635 107.049 48.161 104.295 49.3994 101.993C50.7286 99.7367 52.3985 97.7022 54.3493 95.9619C57.5163 92.9112 60.8828 90.077 64.4261 87.4781" fill="#4D4D4D"/>
<path d="M39.2854 213.223L42.8066 245.803C42.8066 245.803 34.5904 262.675 43.3935 283.038L43.9804 294.674L53.9572 293.51L51.6097 283.62L56.8915 243.476L60.9996 214.386L39.2854 213.223Z" fill="#FFB6B6"/>
<path d="M67.003 212.133C67.003 212.133 64.7039 237.955 69.3022 251.453C69.3022 251.453 67.003 271.993 73.3257 293.708V309.874L83.6719 307.792L83.0971 247.345L85.971 214.48L67.003 212.133Z" fill="#FFB6B6"/>
<path d="M68.9155 112.398C67.4686 114.188 65.4344 115.423 63.1634 115.891C60.8924 116.36 58.527 116.032 56.4749 114.964C50.4385 111.825 42.1971 108.228 40.7406 111.102C39.3209 113.947 38.522 117.053 38.3955 120.221L36.0504 174.158C36.0504 174.158 34.8778 195.936 49.5348 194.013C64.1917 192.091 87.0565 200.19 87.0565 200.19L81.4869 143.209L80.3143 120.647L75.0378 118.333C75.0378 118.333 74.4516 114.284 72.6927 114.284C70.9339 114.284 70.5092 110.394 68.9627 112.339L68.9155 112.398Z" fill="#C7C2FF"/>
<path d="M37.2949 173.039L27.3425 214.993C27.3425 214.993 51.3453 229.175 62.4685 215.584L64.2248 209.084L65.3957 216.175C65.3957 216.175 82.3732 226.221 87.0567 219.721L86.1785 200.516L75.348 178.357L37.2949 173.039Z" fill="#4D4D4D"/>
<path d="M43.1925 287.07C43.1925 287.07 39.4223 289.875 40.5985 293.392C41.7746 296.909 50.5961 310.392 58.2414 308.633C65.8866 306.875 62.3581 302.771 62.3581 302.771L53.5366 289.875C53.5366 289.875 50.008 290.461 48.2437 291.633C46.4794 292.806 43.1925 287.07 43.1925 287.07Z" fill="#4D4D4D"/>
<path d="M73.6947 304.808C73.6947 304.808 67.1998 311.141 70.7424 314.02C74.2851 316.899 98.4934 319.202 97.9029 315.747C97.3125 312.293 84.9131 302.505 84.9131 302.505C84.9131 302.505 81.3705 301.353 80.1896 304.232C79.0087 307.111 73.6947 304.808 73.6947 304.808Z" fill="#4D4D4D"/>
<path d="M76.2568 240.913C72.1227 243.364 71.7148 244.521 69.2102 245.532C67.9425 246.043 65.5691 246.747 60.9891 246.109C54.6786 245.23 50.7875 242.724 39.8493 236.872C32.0477 232.697 28.2334 230.872 22.8199 229.944C18.7635 229.248 16.406 229.501 14.5989 229.944C8.29445 231.487 4.85311 236.267 4.02895 237.449C1.18008 241.533 0.819571 245.522 0.505638 248.996C0.110205 253.371 -0.461205 259.693 2.85451 264.584C7.00943 270.712 12.7961 267.996 22.8199 273.821C33.8988 280.26 32.046 286.609 41.0237 289.987C52.5114 294.309 65.0181 287.477 65.6869 287.1C77.5807 280.393 80.0142 268.223 86.2395 269.202C89.9589 269.787 90.3293 274.327 96.2222 275.553C97.3249 275.783 101.863 276.727 105.03 273.821C106.977 272.036 106.916 276.033 105.911 273.532C104.621 270.322 102.017 264.057 100.333 260.542C99.433 258.665 100.447 258.086 99.7455 253.037C99.4028 250.571 99.2298 249.327 98.5711 247.841C96.939 244.161 93.7697 242.26 91.5245 240.913C88.7929 239.275 86.1073 237.664 82.7162 238.026C80.7757 238.234 79.2694 239.127 76.2568 240.913Z" fill="#7E5539"/>
<path d="M76.2568 240.913C72.1227 243.364 71.7148 244.521 69.2102 245.532C67.9425 246.043 65.5691 246.747 60.9891 246.109C54.6786 245.23 50.7875 242.724 39.8493 236.872C32.0477 232.697 28.2334 230.872 22.8199 229.944C18.7635 229.248 16.406 229.501 14.5989 229.944C8.29445 231.487 4.85311 236.267 4.02895 237.449C1.18008 241.533 0.819571 245.522 0.505638 248.996C0.110205 253.371 -0.461205 259.693 2.85451 264.584C7.00943 270.712 12.7961 267.996 22.8199 273.821C33.8988 280.26 32.046 286.609 41.0237 289.987C52.5114 294.309 65.0181 287.477 65.6869 287.1C77.5807 280.393 80.0142 268.223 86.2395 269.202C89.9589 269.787 90.3293 274.327 96.2222 275.553C97.3249 275.783 101.863 276.727 105.03 273.821C106.977 272.036 106.916 276.033 105.911 273.532C104.621 270.322 102.017 264.057 100.333 260.542C99.433 258.665 100.447 258.086 99.7455 253.037C99.4028 250.571 99.2298 249.327 98.5711 247.841C96.939 244.161 93.7697 242.26 91.5245 240.913C88.7929 239.275 86.1073 237.664 82.7162 238.026C80.7757 238.234 79.2694 239.127 76.2568 240.913Z" fill="black" fill-opacity="0.2"/>
<path d="M5.39725 255.141C4.38627 255.985 4.14548 257.697 3.6876 260.951C3.26399 263.962 3.52161 265.809 3.6876 269.086C3.93675 274.005 3.54389 273.547 3.6876 280.126C3.80584 285.54 3.86496 288.247 4.25748 290.586C4.96331 294.791 5.33937 293.175 8.81654 303.95C9.52201 306.136 10.0839 307.992 11.666 308.598C13.6482 309.359 15.9321 307.66 16.225 307.436C16.7054 307.069 18.3985 305.776 18.5045 303.95C18.6392 301.633 16.0665 301.045 13.9455 297.558C12.6211 295.381 12.3027 293.201 11.666 288.842C11.0604 284.697 10.7576 282.624 11.666 280.707C13.3234 277.21 17.1152 276.126 17.3648 276.059C19.634 275.447 20.3672 276.313 23.0636 276.059C25.5857 275.821 29.7403 274.611 30.4721 272.573C32.4778 266.986 10.2265 251.107 5.39725 255.141Z" fill="#7E5539"/>
<path d="M5.39725 255.141C4.38627 255.985 4.14548 257.697 3.6876 260.951C3.26399 263.962 3.52161 265.809 3.6876 269.086C3.93675 274.005 3.54389 273.547 3.6876 280.126C3.80584 285.54 3.86496 288.247 4.25748 290.586C4.96331 294.791 5.33937 293.175 8.81654 303.95C9.52201 306.136 10.0839 307.992 11.666 308.598C13.6482 309.359 15.9321 307.66 16.225 307.436C16.7054 307.069 18.3985 305.776 18.5045 303.95C18.6392 301.633 16.0665 301.045 13.9455 297.558C12.6211 295.381 12.3027 293.201 11.666 288.842C11.0604 284.697 10.7576 282.624 11.666 280.707C13.3234 277.21 17.1152 276.126 17.3648 276.059C19.634 275.447 20.3672 276.313 23.0636 276.059C25.5857 275.821 29.7403 274.611 30.4721 272.573C32.4778 266.986 10.2265 251.107 5.39725 255.141Z" fill="black" fill-opacity="0.2"/>
<path d="M14.1607 246.449C13.1092 247.294 12.8588 249.005 12.3826 252.26C11.9421 255.271 12.21 257.118 12.3826 260.395C12.6417 265.313 12.2332 264.856 12.3826 271.435C12.5056 276.848 12.5671 279.555 12.9753 281.894C13.7094 286.1 14.1005 284.484 17.7167 295.259C18.4504 297.445 19.0348 299.3 20.6801 299.907C22.7417 300.667 25.1169 298.969 25.4215 298.745C25.9212 298.378 27.6819 297.084 27.7922 295.259C27.9323 292.941 25.2567 292.354 23.0508 288.867C21.6735 286.689 21.3424 284.51 20.6801 280.151C20.0503 276.005 19.7354 273.933 20.6801 272.016C22.4038 268.519 26.3473 267.435 26.6069 267.368C28.9669 266.756 29.7294 267.622 32.5337 267.368C35.1567 267.129 39.4775 265.919 40.2385 263.881C42.3245 258.294 19.1831 242.416 14.1607 246.449Z" fill="#7E5539"/>
<path d="M14.1607 246.449C13.1092 247.294 12.8588 249.005 12.3826 252.26C11.9421 255.271 12.21 257.118 12.3826 260.395C12.6417 265.313 12.2332 264.856 12.3826 271.435C12.5056 276.848 12.5671 279.555 12.9753 281.894C13.7094 286.1 14.1005 284.484 17.7167 295.259C18.4504 297.445 19.0348 299.3 20.6801 299.907C22.7417 300.667 25.1169 298.969 25.4215 298.745C25.9212 298.378 27.6819 297.084 27.7922 295.259C27.9323 292.941 25.2567 292.354 23.0508 288.867C21.6735 286.689 21.3424 284.51 20.6801 280.151C20.0503 276.005 19.7354 273.933 20.6801 272.016C22.4038 268.519 26.3473 267.435 26.6069 267.368C28.9669 266.756 29.7294 267.622 32.5337 267.368C35.1567 267.129 39.4775 265.919 40.2385 263.881C42.3245 258.294 19.1831 242.416 14.1607 246.449Z" fill="black" fill-opacity="0.2"/>
<path d="M32.0463 274.921C31.385 275.938 30.6263 278.559 29.1089 283.8C28.4323 286.138 24.0508 301.519 22.6467 306.294C22.2302 308.032 21.4266 309.652 20.2968 311.03C19.0989 312.418 18.459 312.374 17.9469 313.398C16.6143 316.061 19.215 319.819 19.7093 320.501C20.2848 321.296 22.9572 324.985 26.759 324.645C27.1562 324.609 29.7253 324.379 30.2839 322.869C31.14 320.554 26.1064 318.382 26.1716 314.582C26.21 312.337 27.9947 311.408 30.2839 308.662C35.1949 302.773 33.1002 299.713 36.7461 295.047C42.1991 288.07 52.3342 287.942 53.7828 287.944C57.5353 287.95 62.7578 287.957 66.1197 291.496C70.8066 296.429 68.8697 305.059 70.8195 318.133C71.1198 319.928 71.512 321.707 71.9944 323.461C73.4117 328.755 74.5424 330.121 74.9318 330.564C75.9778 331.84 77.3586 332.794 78.9166 333.317C80.4747 333.841 82.1474 333.912 83.7439 333.524C85.1243 333.209 86.3829 332.922 87.2687 331.748C87.7107 331.166 87.9968 330.479 88.0996 329.754C88.2025 329.028 88.1187 328.288 87.8562 327.605C87.149 326.006 85.6918 326.266 83.7439 324.645C82.3691 323.501 81.6524 321.909 80.2191 318.725C79.2418 316.631 78.4553 314.452 77.8692 312.214C76.9839 308.782 76.8753 306.13 76.6942 300.967C76.5417 296.617 76.6153 293.001 76.6942 289.128C76.7861 284.619 76.9114 283.146 76.6942 280.249C76.4664 277.209 76.2446 274.249 75.5193 272.553C71.6176 263.43 40.6582 261.687 32.0463 274.921Z" fill="#7E5539"/>
<path d="M32.0463 274.921C31.385 275.938 30.6263 278.559 29.1089 283.8C28.4323 286.138 24.0508 301.519 22.6467 306.294C22.2302 308.032 21.4266 309.652 20.2968 311.03C19.0989 312.418 18.459 312.374 17.9469 313.398C16.6143 316.061 19.215 319.819 19.7093 320.501C20.2848 321.296 22.9572 324.985 26.759 324.645C27.1562 324.609 29.7253 324.379 30.2839 322.869C31.14 320.554 26.1064 318.382 26.1716 314.582C26.21 312.337 27.9947 311.408 30.2839 308.662C35.1949 302.773 33.1002 299.713 36.7461 295.047C42.1991 288.07 52.3342 287.942 53.7828 287.944C57.5353 287.95 62.7578 287.957 66.1197 291.496C70.8066 296.429 68.8697 305.059 70.8195 318.133C71.1198 319.928 71.512 321.707 71.9944 323.461C73.4117 328.755 74.5424 330.121 74.9318 330.564C75.9778 331.84 77.3586 332.794 78.9166 333.317C80.4747 333.841 82.1474 333.912 83.7439 333.524C85.1243 333.209 86.3829 332.922 87.2687 331.748C87.7107 331.166 87.9968 330.479 88.0996 329.754C88.2025 329.028 88.1187 328.288 87.8562 327.605C87.149 326.006 85.6918 326.266 83.7439 324.645C82.3691 323.501 81.6524 321.909 80.2191 318.725C79.2418 316.631 78.4553 314.452 77.8692 312.214C76.9839 308.782 76.8753 306.13 76.6942 300.967C76.5417 296.617 76.6153 293.001 76.6942 289.128C76.7861 284.619 76.9114 283.146 76.6942 280.249C76.4664 277.209 76.2446 274.249 75.5193 272.553C71.6176 263.43 40.6582 261.687 32.0463 274.921Z" fill="black" fill-opacity="0.2"/>
<path d="M7.41484 235.361C4.8799 233.977 4.51787 230.738 3.85647 224.822C3.37468 220.513 3.08776 217.946 4.44953 214.869C5.6776 212.151 7.75629 209.894 10.3802 208.429C11.082 208.048 15.6889 205.636 20.4622 207.258C21.1284 207.484 22.8922 208.778 26.3928 211.356C30.5702 214.433 31.1831 215.02 31.7304 216.04C33.1946 218.77 33.039 222.46 31.7304 223.066C30.7363 223.526 29.0186 222.234 28.172 221.309C27.16 220.204 27.3122 219.534 26.3928 218.382C25.6641 217.469 24.9786 217.151 22.8345 216.04C17.5238 213.289 17.2549 212.924 16.3108 213.113C13.9579 213.582 12.8361 216.406 12.7524 216.626C12.0343 218.508 12.5267 220.22 13.3455 223.066C13.8376 224.663 14.4318 226.227 15.1247 227.75C16.6707 231.4 17.0777 231.674 16.9038 232.434C16.3335 234.927 10.7628 237.189 7.41484 235.361Z" fill="#7E5539"/>
<path d="M7.41484 235.361C4.8799 233.977 4.51787 230.738 3.85647 224.822C3.37468 220.513 3.08776 217.946 4.44953 214.869C5.6776 212.151 7.75629 209.894 10.3802 208.429C11.082 208.048 15.6889 205.636 20.4622 207.258C21.1284 207.484 22.8922 208.778 26.3928 211.356C30.5702 214.433 31.1831 215.02 31.7304 216.04C33.1946 218.77 33.039 222.46 31.7304 223.066C30.7363 223.526 29.0186 222.234 28.172 221.309C27.16 220.204 27.3122 219.534 26.3928 218.382C25.6641 217.469 24.9786 217.151 22.8345 216.04C17.5238 213.289 17.2549 212.924 16.3108 213.113C13.9579 213.582 12.8361 216.406 12.7524 216.626C12.0343 218.508 12.5267 220.22 13.3455 223.066C13.8376 224.663 14.4318 226.227 15.1247 227.75C16.6707 231.4 17.0777 231.674 16.9038 232.434C16.3335 234.927 10.7628 237.189 7.41484 235.361Z" fill="black" fill-opacity="0.2"/>
<path d="M83.8034 200.573C83.7134 203.901 85.3398 206.646 87.4358 206.704C89.5318 206.761 91.3033 204.11 91.3929 200.78C91.4467 199.45 91.1847 198.127 90.6288 196.921L90.8339 182.812L84.2811 182.856L84.7746 196.76C84.1542 197.934 83.8212 199.242 83.8034 200.573Z" fill="#FFB6B6"/>
<path d="M79.5227 119.824C79.5227 119.824 88.1597 122.742 88.7355 132.661C89.3113 142.581 89.8871 148.416 89.8871 148.416L90.7508 152.469C90.7508 152.469 93.3419 158.919 92.1903 163.587C91.0387 168.255 92.3303 187.157 92.3303 187.157L84.1291 186.927L78.3711 165.338L79.5227 119.824Z" fill="#C7C2FF"/>
<path d="M67.3467 245.804C66.3703 245.961 65.8965 251.407 67.3467 256.173C68.1846 258.669 69.308 261.064 70.6957 263.314C70.9769 263.773 71.2476 264.191 72.0711 265.39C76.0993 271.257 78.1342 274.187 79.1578 274.031C80.5228 273.823 76.7869 270.674 76.5003 267.663C75.9676 262.066 73.3911 261.374 68.8231 253.262C66.3512 248.872 68.1088 245.681 67.3467 245.804Z" fill="#C7C2FF"/>
<path d="M88.0868 243.725C88.5702 241.191 85.8212 237.672 82.8816 237.175C78.5951 236.449 74.874 242.312 73.628 246.107C71.9143 251.327 73.8388 255.812 74.7847 258.017C75.9711 260.782 76.8581 260.964 77.0981 260.995C78.848 261.22 80.9222 257.92 81.7249 255.04C82.4312 252.505 81.6342 252.159 82.3033 250.276C83.6807 246.4 87.5708 246.429 88.0868 243.725Z" fill="#3F2B1E"/>
<path d="M71.8569 98.1024C71.8569 100.465 71.1564 102.775 69.8441 104.739C68.5318 106.704 66.6666 108.235 64.4844 109.139C62.3021 110.043 59.9008 110.28 57.5841 109.819C55.2674 109.358 53.1394 108.22 51.4692 106.55C49.7989 104.879 48.6615 102.75 48.2007 100.433C47.7399 98.1157 47.9764 95.7137 48.8803 93.5308C49.7842 91.3479 51.315 89.4822 53.2789 88.1695C55.2429 86.8569 57.552 86.1562 59.914 86.1563C63.0815 86.1563 66.1192 87.4149 68.3589 89.6552C70.5986 91.8955 71.8569 94.9341 71.8569 98.1024Z" fill="#FFB6B6"/>
<path d="M46.0781 117.473C48.9516 121.655 50.3894 126.678 50.1698 131.769C53.4135 130.176 55.6027 126.811 56.3478 123.236C57.093 119.661 56.5245 115.907 55.3272 112.461C55.3152 112.427 55.3032 112.392 55.2911 112.358C54.3919 109.847 54.3213 107.107 55.0899 104.552C55.8586 101.996 57.4249 99.7632 59.5533 98.1879C62.5264 96.0175 65.0712 93.3007 67.0555 90.1785C68.1685 88.4175 69.1146 86.2086 68.2831 84.2945C67.5169 82.5308 65.5376 81.7065 63.7161 81.1549C59.5569 79.8955 55.1376 79.1788 50.8686 79.9758C46.5996 80.7727 42.4899 83.2615 40.4723 87.1578C38.4547 91.0542 38.9832 96.3717 42.2581 99.2602C41.7368 99.431 41.2876 99.7753 40.9835 100.237C40.6793 100.699 40.5379 101.252 40.5822 101.805C40.6264 102.359 40.8538 102.881 41.2274 103.288C41.601 103.694 42.099 103.96 42.6407 104.044C41.9405 104.019 41.5272 104.953 41.7769 105.617C42.1005 106.254 42.6341 106.755 43.2848 107.034C44.1598 107.521 45.1297 108.03 45.1334 109.304C45.1269 109.816 44.9618 110.314 44.6616 110.726C43.9501 111.732 42.8013 112.185 41.6955 112.611C42.8643 112.977 43.9124 113.66 44.7269 114.586C45.5415 115.511 46.0916 116.645 46.3182 117.863" fill="#4D4D4D"/>
<path d="M52.6657 180.346L50.9546 180.734L68.1724 256.402L69.8835 256.014L52.6657 180.346Z" fill="#C7C2FF"/>
<path d="M49.7762 185.527C52.563 187.48 55.8897 187.706 57.2064 186.032C58.5232 184.359 57.3312 181.42 54.5431 179.467C53.4407 178.672 52.1527 178.138 50.7868 177.91L38.8681 169.777L34.9426 175.136L47.1091 182.584C47.7362 183.752 48.6508 184.761 49.7762 185.527Z" fill="#FFB6B6"/>
<path d="M42.5179 118.738C42.5179 118.738 33.25 119.029 31.4937 125.423C27.9366 138.09 26.3571 151.224 26.8102 164.366C26.8102 164.366 23.883 176.572 31.4937 175.991L42.0315 180.641L49.0568 171.341L43.2024 164.366L42.5179 118.738Z" fill="#C7C2FF"/>
</svg>
