<svg width="264" height="160" viewBox="0 0 264 160" fill="none" xmlns="http://www.w3.org/2000/svg">
<path d="M239.77 146.162L142.535 146.196C137.65 146.197 133.274 143.675 130.83 139.45C129.608 137.336 128.997 135.018 128.996 132.7C128.995 130.381 129.605 128.063 130.825 125.949L179.412 37.5785C181.853 33.3507 186.227 30.8259 191.112 30.8242C195.997 30.8225 200.373 33.3443 202.817 37.5704L251.471 125.918C252.69 128.026 253.3 130.341 253.3 132.658C253.3 134.975 252.69 137.294 251.47 139.408C249.029 143.635 244.655 146.16 239.77 146.162ZM130.218 132.698C130.218 134.808 140.948 130.261 142.059 132.183C144.283 136.028 138.09 144.979 142.534 144.977C142.534 144.977 248.193 142.645 250.413 138.799C251.524 136.876 252.079 134.766 252.078 132.657C252.077 130.548 251.521 128.439 250.409 126.517L201.755 38.169C199.537 34.3355 195.557 32.0412 191.113 32.0427C186.671 32.0442 130.218 130.587 130.218 132.698Z" fill="#514F6E"/>
<path d="M219.485 126.672C244.07 126.672 264 106.76 264 82.1976C264 57.6348 244.07 37.7227 219.485 37.7227C194.9 37.7227 174.971 57.6348 174.971 82.1976C174.971 106.76 194.9 126.672 219.485 126.672Z" fill="#F64D4D"/>
<path d="M219.493 109.46C221.751 109.46 223.581 107.632 223.581 105.376C223.581 103.121 221.751 101.293 219.493 101.293C217.236 101.293 215.406 103.121 215.406 105.376C215.406 107.632 217.236 109.46 219.493 109.46Z" fill="white"/>
<path d="M219.476 54.9369C219.1 57.4295 219.773 57.951 219.777 68.6968C219.781 79.4425 222.012 93.8499 219.489 93.8508C216.966 93.8517 216.044 64.1179 207.283 61.4864C196.983 58.3923 220.691 46.8681 219.476 54.9369Z" fill="white"/>
<path d="M159.74 104.906L155.718 113.396C160.58 109.912 168.175 106.91 174.218 105.302C168.587 102.584 161.697 98.2027 157.581 93.8649L159.894 102.836C132.774 97.3168 113.299 76.5305 113.291 52.7195L112.311 52.3828C112.32 77.2539 131.525 99.2711 159.74 104.906Z" fill="#514F6E"/>
<path d="M125.089 0H124.956C119.672 0 115 2.82174 112.312 6.98556C109.624 2.82174 104.952 0 99.6682 0H99.5354C95.5703 0.0381371 91.7804 1.65409 88.9891 4.4967C86.1979 7.3393 84.631 11.1788 84.6288 15.181C84.6288 20.1507 86.7854 27.2024 90.9905 33.0049C99.0025 44.0614 112.312 53.7347 112.312 53.7347C112.312 53.7347 125.622 44.0632 133.632 33.0049C137.839 27.2024 139.993 20.1507 139.993 15.181C139.991 11.1792 138.425 7.33987 135.634 4.49732C132.843 1.65477 129.053 0.038605 125.089 0ZM123.189 33.8556C122.587 33.8533 122 33.6674 121.505 33.3223C121.01 32.9772 120.63 32.4891 120.414 31.922H117.255C117.047 31.9207 116.845 31.8539 116.677 31.7308C116.508 31.6078 116.382 31.4347 116.315 31.2358L115.345 28.2854L112.275 39.1131C112.215 39.3215 112.09 39.5047 111.918 39.6352C111.746 39.7658 111.537 39.8365 111.322 39.8368H111.26C111.036 39.8259 110.822 39.7376 110.655 39.5866C110.487 39.4357 110.376 39.2313 110.34 39.0076L107.176 19.8005L104.863 31.1661C104.81 31.382 104.687 31.5737 104.513 31.7108C104.34 31.8478 104.126 31.9221 103.905 31.922H99.4557C99.3224 31.9277 99.1892 31.9061 99.0643 31.8585C98.9394 31.8109 98.8253 31.7383 98.729 31.6451C98.6326 31.5518 98.5559 31.4399 98.5035 31.316C98.4511 31.192 98.4241 31.0587 98.4241 30.9239C98.4241 30.7892 98.4511 30.6558 98.5035 30.5319C98.5559 30.408 98.6326 30.296 98.729 30.2028C98.8253 30.1095 98.9394 30.0369 99.0643 29.9894C99.1892 29.9418 99.3224 29.9202 99.4557 29.9259H103.126L106.402 14.6448C106.456 14.4189 106.585 14.2189 106.769 14.0789C106.953 13.9389 107.179 13.8676 107.409 13.8773C107.639 13.8871 107.859 13.9771 108.03 14.1321C108.202 14.2871 108.315 14.4974 108.349 14.727L111.581 34.3202L114.332 24.6326C114.39 24.4286 114.511 24.2487 114.678 24.1199C114.844 23.9911 115.048 23.9202 115.258 23.9178H115.278C115.486 23.9179 115.689 23.9843 115.857 24.1075C116.026 24.2307 116.151 24.4045 116.216 24.604L117.971 29.9312H120.375C120.546 29.407 120.857 28.9407 121.274 28.5837C121.691 28.2267 122.198 27.9929 122.738 27.9081C123.279 27.8233 123.832 27.8909 124.336 28.1033C124.841 28.3157 125.278 28.6647 125.598 29.1118C125.919 29.5589 126.111 30.0867 126.153 30.6369C126.195 31.1871 126.086 31.7384 125.837 32.2299C125.588 32.7214 125.21 33.134 124.743 33.4221C124.277 33.7102 123.741 33.8627 123.194 33.8627L123.189 33.8556Z" fill="#F64D4D"/>
<path d="M21.924 93.2936C24.9111 95.0817 25.2058 95.9255 27.0155 96.6629C27.9315 97.036 29.6464 97.5494 32.9556 97.084C37.5153 96.4428 40.3268 94.6149 48.2302 90.3455C53.8671 87.3005 56.6232 85.9689 60.5347 85.2916C63.4656 84.7842 65.169 84.969 66.4748 85.2916C71.03 86.4172 73.5165 89.9047 74.112 90.7667C76.1705 93.7461 76.431 96.656 76.6578 99.1898C76.9435 102.381 77.3564 106.994 74.9606 110.561C71.9585 115.031 67.7773 113.05 60.5347 117.299C52.5296 121.996 53.8684 126.628 47.3816 129.092C39.0811 132.245 30.0445 127.261 29.5613 126.986C20.9674 122.094 19.2091 113.216 14.711 113.93C12.0236 114.357 11.7559 117.668 7.49805 118.563C6.70131 118.73 3.42247 119.419 1.13366 117.3C-0.272665 115.997 -0.229051 118.913 0.497224 117.089C1.42969 114.747 3.31096 110.177 4.528 107.613C5.17814 106.243 4.44532 105.821 4.9523 102.138C5.19993 100.339 5.32494 99.4311 5.80089 98.3475C6.98013 95.6626 9.2701 94.276 10.8924 93.2936C12.8661 92.0985 14.8066 90.9234 17.2568 91.1878C18.6589 91.3391 19.7473 91.9906 21.924 93.2936Z" fill="#514F6E"/>
<path d="M73.6877 103.4C74.4404 104.012 74.6197 105.252 74.9606 107.611C75.276 109.794 75.0842 111.132 74.9606 113.507C74.7751 117.073 75.0676 116.741 74.9606 121.509C74.8725 125.433 74.8285 127.395 74.5363 129.09C74.0108 132.139 73.7308 130.967 71.142 138.777C70.6167 140.361 70.1984 141.706 69.0205 142.146C67.5446 142.697 65.8443 141.466 65.6261 141.304C65.2685 141.038 64.0079 140.1 63.929 138.777C63.8287 137.097 65.7442 136.672 67.3233 134.144C68.3093 132.566 68.5464 130.986 69.0205 127.827C69.4714 124.822 69.6968 123.32 69.0205 121.931C67.7865 119.396 64.9634 118.61 64.7776 118.561C63.0881 118.118 62.5422 118.746 60.5346 118.561C58.6568 118.389 55.5636 117.512 55.0188 116.034C53.5255 111.985 70.0922 100.476 73.6877 103.4Z" fill="#514F6E"/>
<path d="M66.899 97.5013C67.6517 98.1133 67.831 99.3539 68.1719 101.713C68.4873 103.895 68.2955 105.234 68.1719 107.609C67.9864 111.174 68.2789 110.842 68.1719 115.611C68.0839 119.535 68.0399 121.497 67.7476 123.192C67.2221 126.24 66.9421 125.069 64.3533 132.878C63.8281 134.463 63.4097 135.808 62.2318 136.248C60.756 136.799 59.0556 135.568 58.8375 135.405C58.4798 135.139 57.2193 134.202 57.1403 132.878C57.0401 131.199 58.9555 130.773 60.5347 128.246C61.5207 126.668 61.7577 125.088 62.2318 121.928C62.6827 118.924 62.9081 117.421 62.2318 116.032C60.9978 113.497 58.1747 112.712 57.9889 112.663C56.2994 112.22 55.7535 112.847 53.746 112.663C51.8682 112.49 48.7749 111.613 48.2302 110.136C46.7368 106.087 63.3035 94.5777 66.899 97.5013Z" fill="#514F6E"/>
<path d="M54.1703 118.137C54.6479 118.86 55.1958 120.725 56.2917 124.454C56.7804 126.117 59.9449 137.06 60.959 140.458C61.2505 141.435 61.6282 142.654 62.6561 143.827C63.5213 144.815 63.9834 144.784 64.3533 145.512C65.3157 147.407 63.4375 150.08 63.0804 150.566C62.6648 151.131 60.7347 153.756 57.9889 153.514C57.7021 153.489 55.8465 153.325 55.4431 152.25C54.8248 150.603 58.4602 149.058 58.4132 146.354C58.3854 144.757 57.0964 144.096 55.4431 142.143C51.8962 137.952 53.4091 135.775 50.7759 132.456C46.8375 127.491 39.5177 127.401 38.4714 127.402C35.7612 127.406 31.9893 127.412 29.5613 129.929C26.1763 133.439 27.5752 139.579 26.1669 148.881C26.1669 148.881 25.9386 150.389 25.3183 152.672C24.2947 156.438 23.4781 157.41 23.1969 157.725C22.8148 158.154 21.6968 159.372 19.8025 159.831C19.5416 159.894 18.3349 160.169 16.8325 159.831C15.8355 159.607 14.9265 159.403 14.2867 158.568C13.6731 157.767 13.4404 156.559 13.8624 155.62C14.3732 154.483 15.4257 154.667 16.8325 153.514C17.8254 152.7 18.343 151.567 19.3782 149.302C19.8365 148.3 20.523 146.779 21.0754 144.67C21.7148 142.228 21.7932 140.341 21.924 136.668C22.0342 133.573 21.981 131 21.924 128.245C21.8577 125.036 21.7672 123.988 21.924 121.927C22.0886 119.764 22.2488 117.659 22.7726 116.452C25.5905 109.961 47.9505 108.721 54.1703 118.137Z" fill="#514F6E"/>
<path d="M71.9906 89.5004C73.8042 88.5048 74.0632 86.1754 74.5363 81.9199C74.881 78.82 75.0863 76.9739 74.1121 74.7605C72.797 71.7729 70.3288 70.3786 69.8691 70.128C69.367 69.8543 66.0711 68.1194 62.6561 69.2857C62.1796 69.4485 60.9176 70.3791 58.4132 72.2337C55.4246 74.4468 54.9861 74.8689 54.5946 75.6028C53.547 77.5665 53.6584 80.2204 54.5946 80.6565C55.3058 80.9877 56.5347 80.0585 57.1403 79.3931C57.8644 78.5976 57.7554 78.1159 58.4132 77.2874C58.9346 76.6306 59.425 76.4017 60.959 75.6028C64.7584 73.6241 64.9507 73.3615 65.6262 73.4971C67.3095 73.835 68.1121 75.8662 68.1719 76.0239C68.6857 77.3778 68.3334 78.6091 67.7477 80.6565C67.4377 81.7398 67.0855 82.5758 66.4748 84.0256C65.3687 86.6511 65.0775 86.848 65.2019 87.3947C65.6099 89.1881 69.5954 90.8153 71.9906 89.5004Z" fill="#514F6E"/>
<path d="M28.5005 96.8697C29.202 96.9846 29.5424 100.966 28.5005 104.45C27.7881 106.833 26.3509 109.245 26.0944 109.671C25.8924 110.006 25.6979 110.312 25.1062 111.188C22.2121 115.478 20.7501 117.62 20.0147 117.506C19.034 117.353 21.7181 115.051 21.924 112.85C22.3068 108.758 24.1579 108.252 27.4398 102.322C29.2158 99.1126 27.953 96.7799 28.5005 96.8697Z" fill="#F64D4D"/>
<path d="M13.6503 95.6096C13.2956 93.8177 15.3123 91.329 17.4689 90.9771C20.6136 90.4639 23.3435 94.6103 24.2576 97.2942C25.5148 100.985 24.103 104.158 23.409 105.717C22.5387 107.672 21.8879 107.801 21.7118 107.823C20.4281 107.982 18.9064 105.648 18.3175 103.611C17.7994 101.819 18.3841 101.574 17.8932 100.242C16.8827 97.5009 14.0288 97.5219 13.6503 95.6096Z" fill="#170F49"/>
<path d="M27.8757 104.597L112.069 50.057L110.828 49.7774L26.6343 104.317L27.8757 104.597Z" fill="#F64D4D"/>
</svg>
