<svg width="119" height="36" viewBox="0 0 119 36" fill="none" xmlns="http://www.w3.org/2000/svg">
<g clip-path="url(#clip0_433_21177)">
<path d="M23.2597 21.7092C20.8803 12.479 13.5648 0.739093 13.5648 0.739093H13.5612C13.2502 0.294269 12.721 0 12.1185 0C11.4481 0 10.8671 0.366125 10.5793 0.899915C9.70687 2.32506 3.22094 13.0727 0.993417 21.6698C0.673411 22.6861 0.5 23.7639 0.5 24.8794C0.5 31.0214 5.70233 36 12.1203 36C18.5383 36 23.7406 31.0214 23.7406 24.8794C23.7406 23.7776 23.5708 22.7151 23.2597 21.7092Z" fill="#4A3AFF"/>
<path d="M9.92184 8.44806C8.85098 8.38818 7.78012 8.47372 6.74681 8.71838L6.1211 8.89973C6.1211 8.89973 5.80824 9.48656 5.49718 10.1213C5.03951 11.0126 3.82206 13.4506 3.01758 15.644L6.09786 24.7389L9.4892 26.561V30.561C15.8732 30.561 21.0487 25.608 21.0487 19.4985C21.0487 13.389 16.1056 8.66534 9.92184 8.44806Z" fill="white"/>
<path d="M12.627 29.2432C12.627 26.6495 14.8241 24.5469 17.5343 24.5469C20.2445 24.5469 22.4417 26.6495 22.4417 29.2432" fill="#4A3AFF"/>
<path d="M12.4557 25.8711H10.3783C9.58456 25.8711 9.08399 25.5905 9.08399 25.5905C7.55905 24.8104 8.12398 23.4177 8.12398 23.4177C8.31169 21.1799 10.2746 20.8548 10.2746 20.8548C11.1935 20.9147 12.2215 20.694 12.2215 20.694C14.6832 19.9686 14.9156 18.114 14.9138 17.4229C14.9138 17.4229 14.9138 17.4143 14.9138 17.4109V17.4006C14.9174 16.8891 14.8173 16.5794 14.7422 16.4203C14.7404 16.4134 14.7368 16.4083 14.7333 16.4032C14.7118 16.3587 14.6921 16.3279 14.6796 16.3091C14.6796 16.3091 14.676 16.3039 14.676 16.3022C14.6671 16.2903 14.6635 16.2851 14.6635 16.2851C14.5366 16.1209 14.3328 16.0097 14.1004 16.0097C13.9431 16.0097 13.8001 16.061 13.6839 16.1448C13.6678 16.1602 13.6481 16.1705 13.6338 16.1842C13.6213 16.1962 13.6088 16.2064 13.5963 16.2184C12.7971 16.9558 11.8049 17.2637 11.392 17.3664C11.2722 17.3989 11.1739 17.4023 11.1059 17.3972C10.743 17.4109 10.5517 17.1183 10.5517 17.1183C10.3229 16.8223 10.0333 16.5452 9.72937 16.2988C10.5213 16.0593 10.3855 15.1474 10.3855 15.1474C9.783 16.0234 9.22701 15.8916 9.22701 15.8916L9.34679 16.0131C9.26634 15.9549 9.18589 15.8968 9.10544 15.8437C8.98924 15.7017 8.91058 15.5631 8.91058 15.5631C8.89985 15.339 8.78008 15.2483 8.78008 15.2483C8.58164 15.0482 7.85045 15.1252 7.85045 15.1252C7.43033 15.0961 7.55547 14.7539 7.55547 14.7539L7.2301 14.9883L7.26586 15.1235L4.87565 15.1183C2.58913 15.1183 2.43359 17.7257 2.43359 17.7257V29.8951C2.43359 31.2449 3.80122 31.2843 3.80122 31.2843H18.1246C18.1246 26.0285 12.4557 25.8694 12.4557 25.8694" fill="#4A3AFF"/>
<path d="M7.34095 12.6127C7.34095 12.6127 7.0853 12.0635 6.31836 12.4433L6.53825 11.8086L7.62341 11.9677" fill="white"/>
<path d="M11.8173 25.4642L12.3376 23.3632C11.4848 23.6438 10.9199 23.2349 10.2924 22.7353C9.44322 22.0596 8.45996 21.5343 7.52855 20.9543C7.16742 20.7285 6.76518 20.7969 6.53456 21.0929C6.32004 21.3667 6.38082 21.7294 6.72228 22.0014C6.95468 22.1862 7.20139 22.3572 7.46598 22.542C7.50352 22.5694 7.51961 22.5985 7.52855 22.619C7.57324 22.8038 7.34441 22.8089 7.33726 22.8089C7.20676 22.8106 7.07625 22.8123 6.94575 22.814H3.23082C3.19149 22.814 3.15037 22.814 3.11104 22.814C2.74634 22.8209 2.5193 23.0313 2.51572 23.3307C2.51215 23.6438 2.74634 23.8491 3.11998 23.8543C3.9924 23.8662 4.86481 23.8679 5.73544 23.8919C5.75868 23.8919 5.78371 23.8987 5.80695 23.9073C5.85344 23.9244 5.92852 23.9723 5.91958 24.0921C5.91958 24.0921 5.91422 24.181 5.84092 24.2289C5.83735 24.2306 5.83198 24.2358 5.82662 24.2358C5.79444 24.2495 5.76226 24.258 5.73187 24.258C4.7504 24.2734 3.77072 24.2614 2.78925 24.2666C2.56399 24.2666 2.33158 24.2717 2.11527 24.3247C1.83817 24.3932 1.7613 24.6276 1.80063 24.8688C1.84711 25.1545 2.03661 25.3359 2.35483 25.3376C3.2183 25.3444 4.08 25.341 4.94347 25.341C5.19555 25.341 5.44583 25.341 5.6979 25.341C5.74081 25.341 5.78908 25.341 5.83377 25.341C5.8874 25.3461 5.94819 25.3598 5.99109 25.3906C5.99824 25.3975 6.00361 25.4043 6.01076 25.4111C6.01433 25.4146 6.01791 25.418 6.01969 25.4214C6.03757 25.4522 6.04651 25.4933 6.04115 25.5514C6.03042 25.6609 5.90885 25.6934 5.78908 25.7054C5.77656 25.7054 5.76584 25.7054 5.74975 25.7054H5.76226C5.74438 25.7071 5.72651 25.7088 5.71042 25.7088C4.81297 25.7242 3.91374 25.7174 3.0145 25.7157C2.40131 25.7157 2.15102 25.8662 2.14387 26.2512C2.13672 26.6259 2.41025 26.7987 3.00378 26.7969C4.04603 26.7969 5.08828 26.7884 6.13054 26.8021C6.15556 26.8021 6.18059 26.8106 6.20562 26.8192C6.24853 26.838 6.30931 26.8842 6.30216 26.9971C6.30216 26.9971 6.29858 27.1562 6.10014 27.1648C5.35644 27.1819 4.61453 27.1648 3.87083 27.1819C3.39529 27.1921 3.12892 27.5976 3.36669 27.962C3.45607 28.0989 3.68669 28.2324 3.85474 28.2324C5.64069 28.2443 7.42486 28.1981 9.21081 28.2135C11.9282 28.2358 13.9072 26.0784 13.9072 26.0784L11.8173 25.4659V25.4642ZM6.11445 27.1614H6.13769H6.11623H6.11445Z" fill="white"/>
<path d="M18.3304 28.6135V28.0643V27.5972C18.3304 27.5972 18.3769 26.8633 17.7601 26.8633H17.0611V28.6135H16.4855H15.9974C15.9974 28.6135 15.2305 28.569 15.2305 29.1593V29.8282H17.0593V30.3774V30.8445C17.0593 30.8445 17.0128 31.5784 17.6296 31.5784H18.3286V29.8265H18.9043H19.3923C19.3923 29.8265 20.1593 29.871 20.1593 29.2807V28.6118H18.3304V28.6135Z" fill="white"/>
<path d="M8.24219 21.8809L9.47394 22.0777L9.70277 21.6311C8.88935 21.7218 8.26185 21.3984 8.26185 21.3984" fill="white"/>
<path d="M14.6122 16.2188L8.53028 20.9356L7.83663 20.4155L6.92846 20.3094L6.74253 20.6773H6.66387L6.56376 21.0314L6.53516 21.0896C6.54231 21.0776 6.55303 21.0708 6.56019 21.0605C6.86231 20.7628 7.2431 20.9459 7.38255 21.0297L9.00224 22.0939C10.495 23.0519 12.5223 23.0177 13.9918 21.8783C15.7957 20.4788 16.0728 17.945 14.6104 16.2188" fill="#4A3AFF"/>
<path d="M8.6957 17.8611C8.6957 17.8611 8.16474 18.7918 7.07422 19.0672C7.07422 19.0672 8.09323 19.0826 8.96744 18.4445C8.96744 18.4445 9.14979 18.1314 8.6957 17.8594" fill="white"/>
<path d="M7.43575 15.1205C7.43575 15.1205 8.16337 13.6697 6.85116 11.8477C6.85116 11.8477 4.05156 12.6603 2.67858 16.4636C1.30559 20.2668 2.67858 16.6962 2.67858 16.6962L7.43575 15.1205Z" fill="#4A3AFF"/>
</g>
<path d="M118.496 26.9406C118.515 27.4596 118.486 27.9882 118.41 28.5264C118.334 29.0646 118.085 29.4779 117.666 29.7662C117.341 29.9584 117.055 30.0545 116.807 30.0545C116.482 30.0545 116.215 29.9392 116.005 29.7085C115.814 29.4779 115.662 29.1992 115.547 28.8724C115.452 28.5456 115.385 28.2092 115.347 27.8632C115.328 27.498 115.318 27.1809 115.318 26.9118V19.8765H113.457V27.0848C113.495 27.5269 113.476 27.9882 113.4 28.4687C113.343 28.9301 113.219 29.2953 113.028 29.5644C112.799 29.8912 112.465 30.0545 112.026 30.0545C111.816 30.0545 111.615 30.0065 111.424 29.9104C111.253 29.8143 111.09 29.6893 110.938 29.5356C110.613 29.2088 110.422 28.8147 110.365 28.3534C110.308 27.8921 110.279 27.4404 110.279 26.9983V9.92914C110.279 9.66004 110.289 9.39093 110.308 9.12182C110.327 8.83349 110.384 8.57399 110.48 8.34333C110.575 8.09345 110.709 7.87239 110.881 7.68017C111.071 7.48795 111.329 7.3534 111.654 7.27651C112.092 7.1804 112.446 7.28612 112.713 7.59367C112.923 7.80512 113.075 8.08383 113.171 8.42983C113.285 8.77582 113.362 9.16026 113.4 9.58315C113.438 9.98681 113.457 10.4193 113.457 10.8806C113.457 11.3227 113.457 11.7552 113.457 12.1781V16.3877H115.318V10.1886C115.318 9.91953 115.318 9.62159 115.318 9.29482C115.318 8.96804 115.347 8.6701 115.404 8.401C115.48 8.11267 115.614 7.86278 115.805 7.65134C116.015 7.4399 116.32 7.31496 116.721 7.27651C117.141 7.23807 117.475 7.36301 117.723 7.65134C117.952 7.882 118.114 8.17994 118.209 8.54516C118.324 8.89116 118.4 9.25637 118.438 9.64081C118.477 10.0253 118.496 10.4193 118.496 10.823C118.496 11.2266 118.496 11.5822 118.496 11.8898V26.9406ZM103.552 26.4793C103.552 26.1909 103.552 25.9218 103.552 25.6719C103.552 25.4221 103.552 25.1241 103.552 24.7781C103.552 24.4321 103.542 24.0188 103.523 23.5383C103.523 23.0577 103.523 22.433 103.523 21.6642C103.523 20.8953 103.523 19.963 103.523 18.8674C103.523 17.7717 103.523 16.4454 103.523 14.8884C103.523 14.5616 103.523 14.2541 103.523 13.9658C103.523 13.6582 103.504 13.341 103.466 13.0143C103.408 12.6683 103.323 12.4472 103.208 12.3511C103.094 12.255 102.865 12.2069 102.521 12.2069C101.681 12.1877 100.937 12.1877 100.288 12.2069C99.639 12.2069 98.9424 12.2069 98.198 12.2069C97.53 12.2069 97.0338 12.0339 96.7093 11.688C96.3849 11.342 96.2227 10.8902 96.2227 10.3328C96.2227 9.77537 96.3467 9.35248 96.5948 9.06415C96.862 8.7566 97.2437 8.55477 97.74 8.45866C98.1217 8.36255 98.4843 8.30489 98.8279 8.28566C99.1714 8.26644 99.5531 8.25683 99.973 8.25683H104.067C104.162 8.25683 104.258 8.26644 104.353 8.28566C104.468 8.28566 104.573 8.28566 104.668 8.28566C104.916 8.30489 105.174 8.33372 105.441 8.37216C105.727 8.41061 105.985 8.47788 106.214 8.57399C106.367 8.63166 106.51 8.70855 106.643 8.80466C106.796 8.90077 106.92 9.0161 107.016 9.15065C107.207 9.41976 107.311 9.66965 107.331 9.90031C107.35 10.131 107.378 10.4097 107.416 10.7365C107.455 11.2555 107.474 11.7841 107.474 12.3223C107.474 12.8605 107.474 13.3987 107.474 13.9369V23.1635C107.474 23.1827 107.474 23.3269 107.474 23.596C107.493 23.8651 107.502 24.1918 107.502 24.5763C107.502 24.9607 107.502 25.3644 107.502 25.7873C107.502 26.1909 107.493 26.5465 107.474 26.8541C107.416 27.5461 107.197 28.1035 106.815 28.5264C106.453 28.9493 105.937 29.1607 105.269 29.1607C104.926 29.1607 104.639 29.0742 104.41 28.9012C104.181 28.7282 104 28.5072 103.867 28.2381C103.752 27.969 103.666 27.6806 103.609 27.3731C103.571 27.0463 103.552 26.7484 103.552 26.4793Z" fill="white"/>
<path d="M80.2461 14.3126C81.2767 14.3511 82.1451 14.6009 82.8513 15.0623C83.5574 15.5236 84.13 16.1195 84.569 16.8499C85.008 17.5804 85.3133 18.4069 85.4851 19.3296C85.6569 20.2522 85.7237 21.1845 85.6855 22.1263C85.6664 23.0682 85.5328 23.9909 85.2847 24.8943C85.0557 25.7977 84.7503 26.5955 84.3686 27.2874C83.9487 28.0371 83.357 28.6138 82.5936 29.0174C81.8493 29.4019 81.0477 29.6229 80.1888 29.6806C79.3299 29.7382 78.4806 29.6229 77.6408 29.3346C76.8202 29.0463 76.1235 28.5945 75.551 27.9794C75.0547 27.4412 74.7016 26.8838 74.4917 26.3071C74.2818 25.7112 74.1291 25.0577 74.0336 24.3465C73.9382 23.6353 73.8619 22.9529 73.8046 22.2993C73.7473 21.6266 73.7378 20.9634 73.776 20.3099C73.8141 19.6563 73.9191 19.0124 74.0909 18.3781C74.2818 17.7437 74.568 17.1094 74.9498 16.4751C75.1597 16.1099 75.4555 15.7927 75.8372 15.5236C76.219 15.2353 76.6484 15.0046 77.1255 14.8316C77.6027 14.6394 78.1084 14.5048 78.6429 14.4279C79.1963 14.3318 79.7307 14.2934 80.2461 14.3126ZM93.6443 16.4174C93.7397 16.4174 93.8256 16.427 93.9019 16.4463C93.9974 16.4655 94.0928 16.4751 94.1882 16.4751C94.2836 16.4943 94.3886 16.5135 94.5031 16.5328C94.6176 16.5328 94.7322 16.5424 94.8467 16.5616C95.0566 16.6 95.2666 16.6769 95.4765 16.7922C95.6864 16.8884 95.8391 17.0421 95.9346 17.2536C96.0682 17.465 96.135 17.7149 96.135 18.0032C96.135 18.157 96.1254 18.3012 96.1063 18.4357C96.1063 18.5511 96.0872 18.6856 96.0491 18.8394C96.0109 18.9932 95.9632 19.1566 95.9059 19.3296C95.8678 19.5025 95.7819 19.6371 95.6483 19.7332C95.3811 19.9254 95.1234 20.0504 94.8753 20.108C94.5699 20.1465 94.1978 20.1561 93.7588 20.1369C93.3198 20.1177 92.9476 20.1177 92.6423 20.1369C92.6232 20.1369 92.6041 20.1465 92.585 20.1657H92.5564L92.5277 20.1945V20.281C92.5087 20.7616 92.4991 21.319 92.4991 21.9533C92.5182 22.5877 92.5277 23.1547 92.5277 23.6545C92.5659 24.654 92.5659 25.6344 92.5277 26.5955V26.9991C92.5277 27.249 92.5182 27.5277 92.4991 27.8353C92.4991 28.1236 92.48 28.4119 92.4419 28.7003C92.4037 28.9886 92.3369 29.2673 92.2415 29.5364C92.146 29.7863 92.0124 29.9977 91.8407 30.1707C91.6116 30.4398 91.3063 30.5744 90.9246 30.5744C90.9246 30.5744 90.9055 30.5648 90.8673 30.5456C90.4092 30.5263 90.0371 30.3918 89.7508 30.1419C89.4836 29.892 89.2736 29.5845 89.1209 29.2193C88.9873 28.854 88.9015 28.4792 88.8633 28.0948C88.8251 27.6911 88.806 27.3355 88.806 27.0279V9.90117C88.806 9.88195 88.806 9.79545 88.806 9.64168C88.806 9.46868 88.8251 9.27646 88.8633 9.06502C88.9015 8.83436 88.9587 8.60369 89.0351 8.37303C89.1305 8.12314 89.2545 7.92131 89.4072 7.76754C89.5408 7.63298 89.7317 7.53687 89.9798 7.47921C90.247 7.40232 90.4856 7.36387 90.6955 7.36387C91.1154 7.36387 91.4685 7.50804 91.7548 7.79637C92.022 8.06548 92.1747 8.35381 92.2128 8.66136C92.2701 8.94969 92.3178 9.25724 92.356 9.58401C92.3751 9.6609 92.3846 9.77623 92.3846 9.93001C92.4228 10.2568 92.4419 10.5932 92.4419 10.9392C92.461 11.2852 92.48 11.6312 92.4991 11.9771C92.4991 12.1886 92.4991 12.4 92.4991 12.6115C92.5182 12.8037 92.5277 13.0055 92.5277 13.217C92.5087 13.3323 92.4991 13.4476 92.4991 13.563C92.5182 13.6591 92.5277 13.7552 92.5277 13.8513V15.7254C92.5277 15.8215 92.5277 15.9273 92.5277 16.0426C92.5277 16.1579 92.5468 16.2636 92.585 16.3598C92.585 16.379 92.6804 16.3886 92.8713 16.3886C93.0622 16.3886 93.1671 16.3886 93.1862 16.3886C93.358 16.427 93.4916 16.4366 93.587 16.4174H93.6443ZM84.2541 9.69934C84.6358 9.69934 85.0175 9.75701 85.3992 9.87234C85.7809 9.98767 86.0768 10.2376 86.2867 10.622C86.4203 10.8719 86.468 11.189 86.4298 11.5735C86.3917 11.9387 86.2772 12.2463 86.0863 12.4961C85.8954 12.7268 85.5996 12.8902 85.1988 12.9863C84.798 13.0824 84.3781 13.1497 83.9392 13.1881C83.5002 13.2074 83.0898 13.2074 82.7081 13.1881C82.3455 13.1689 82.0974 13.1593 81.9638 13.1593C81.8111 13.1785 81.6584 13.1881 81.5057 13.1881C81.3721 13.1881 81.2194 13.1881 81.0477 13.1881H80.1315C79.9789 13.1689 79.8262 13.1593 79.6735 13.1593C79.5399 13.1593 79.3967 13.1593 79.2441 13.1593L75.8659 13.1016C74.8925 13.1016 74.1959 12.9767 73.776 12.7268C73.3561 12.4769 73.108 12.0829 73.0316 11.5447C72.9553 10.9872 73.0984 10.5355 73.4611 10.1895C73.7283 9.95884 73.9478 9.81468 74.1195 9.75701C74.3104 9.69934 74.549 9.67051 74.8352 9.67051C74.9116 9.67051 74.9879 9.68012 75.0643 9.69934C75.1406 9.69934 75.217 9.69934 75.2933 9.69934H76.009C76.2762 9.69934 76.5911 9.69934 76.9538 9.69934C77.3164 9.68012 77.6313 9.6609 77.8985 9.64168C77.8985 9.56479 77.8985 9.45907 77.8985 9.32452C77.9176 9.17074 77.9271 9.01696 77.9271 8.86319C77.9462 8.70941 77.9558 8.56525 77.9558 8.43069C77.9748 8.27692 77.9844 8.1712 77.9844 8.11353C78.0226 7.78676 78.1275 7.48882 78.2993 7.21971C78.7001 6.66227 79.1963 6.40278 79.788 6.44122C80.0552 6.47966 80.3224 6.52772 80.5896 6.58538C80.8568 6.62383 81.0763 6.75838 81.2481 6.98905C81.458 7.2966 81.5534 7.71948 81.5343 8.2577C81.5343 8.77669 81.5534 9.24763 81.5916 9.67051H82.4218C82.5745 9.67051 82.794 9.68012 83.0803 9.69934C83.3666 9.69934 83.5861 9.69934 83.7388 9.69934H84.2541ZM80.1315 26.509C80.5514 26.4513 80.9141 26.2879 81.2194 26.0188C81.5248 25.7305 81.7729 25.3941 81.9638 25.0096C82.1546 24.6252 82.2882 24.2119 82.3646 23.7698C82.4409 23.3277 82.4791 22.9144 82.4791 22.53C82.4791 22.2032 82.46 21.838 82.4218 21.4344C82.4027 21.0115 82.355 20.6078 82.2787 20.2234C82.2024 19.8197 82.0783 19.4545 81.9065 19.1277C81.7347 18.7817 81.5057 18.503 81.2194 18.2916C80.9522 18.1186 80.6373 18.0128 80.2747 17.9744C79.9121 17.9167 79.5399 17.9263 79.1582 18.0032C78.7955 18.0801 78.4615 18.2147 78.1562 18.4069C77.8508 18.5799 77.6313 18.8202 77.4977 19.1277C77.1351 19.9158 76.9442 20.7039 76.9251 21.492C76.9251 22.2801 77.011 23.0874 77.1828 23.914C77.2782 24.3369 77.4118 24.779 77.5836 25.2403C77.7554 25.6824 78.0226 26.0284 78.3852 26.2783C78.4615 26.336 78.5761 26.384 78.7287 26.4225C78.9005 26.4417 79.0723 26.4609 79.2441 26.4801C79.4349 26.4993 79.6067 26.5186 79.7594 26.5378C79.9311 26.5378 80.0552 26.5282 80.1315 26.509Z" fill="white"/>
<path d="M69.0484 28.0939C69.3538 28.1131 69.621 28.19 69.85 28.3245C70.0791 28.4399 70.2413 28.6513 70.3367 28.9589C70.5467 29.6701 70.2986 30.1506 69.5924 30.4005C69.3634 30.4966 69.1248 30.5543 68.8767 30.5735C68.6476 30.5927 68.4377 30.6023 68.2468 30.6023H54.9345C54.5528 30.6023 54.152 30.6023 53.7321 30.6023C53.3122 30.6023 52.8923 30.5927 52.4724 30.5735C51.9571 30.5543 51.5945 30.3909 51.3846 30.0834C51.1937 29.7758 51.0792 29.401 51.041 28.9589L50.9265 27.0559C50.9074 26.8444 50.9074 26.5946 50.9265 26.3062C50.9647 25.9987 51.0696 25.7392 51.2414 25.5277C51.5086 25.2586 51.814 25.0856 52.1575 25.0088C52.5011 24.9319 52.8828 24.8934 53.3027 24.8934H54.1902C54.2856 24.8934 54.3619 24.903 54.4192 24.9223C54.4765 24.9223 54.5337 24.9223 54.591 24.9223H67.0731V23.9131H54.3047C54.2093 23.9131 54.1043 23.9131 53.9898 23.9131C53.8943 23.8939 53.7894 23.8939 53.6749 23.9131H52.9878C52.7969 23.9131 52.6251 23.9131 52.4724 23.9131C52.3198 23.9131 52.1671 23.8939 52.0144 23.8554C51.8426 23.817 51.6804 23.7785 51.5277 23.7401C51.3941 23.7017 51.2796 23.6055 51.1842 23.4518C51.0696 23.2403 50.9933 23.0385 50.9551 22.8463C50.917 22.6541 50.936 22.4426 51.0124 22.212C51.0696 22.0582 51.1555 21.9428 51.27 21.866C51.3846 21.7698 51.5182 21.693 51.6708 21.6353C51.8235 21.5776 51.9667 21.5392 52.1003 21.52C52.253 21.4815 52.3866 21.4527 52.5011 21.4335C52.6538 21.4142 52.7969 21.4046 52.9305 21.4046C53.0832 21.3854 53.2359 21.3758 53.3886 21.3758H53.8753C53.9707 21.395 54.0566 21.4046 54.1329 21.4046C54.2283 21.4046 54.3238 21.4046 54.4192 21.4046H67.3594C68.3327 21.4046 69.0771 21.5584 69.5924 21.866C70.1077 22.1543 70.3654 22.6348 70.3654 23.3076V25.3259C70.3654 25.595 70.2986 25.8545 70.165 26.1044C70.0504 26.3543 69.8405 26.5753 69.5351 26.7676C69.287 26.9213 69.0389 27.0078 68.7908 27.0271C68.5427 27.0271 68.2946 27.0271 68.0464 27.0271H54.4478V28.0939H69.0484ZM62.4066 14.4847C62.4066 15.292 62.2253 16.0705 61.8626 16.8202C61.5191 17.5506 61.0133 18.1561 60.3453 18.6367C59.4674 19.3094 58.4749 19.6843 57.368 19.7612C56.2801 19.838 55.2494 19.6747 54.2761 19.271C53.7989 19.0788 53.3504 18.8289 52.9305 18.5213C52.5106 18.2138 52.148 17.8582 51.8426 17.4545C51.5372 17.0509 51.2891 16.5991 51.0983 16.0994C50.9265 15.5996 50.8406 15.0614 50.8406 14.4847C50.8406 13.6774 50.9742 12.9662 51.2414 12.3511C51.5086 11.736 51.8712 11.2074 52.3293 10.7653H51.6422C51.1842 10.7653 50.7834 10.6211 50.4398 10.3328C50.1154 10.0252 49.9531 9.6504 49.9531 9.20829C49.9531 8.78541 50.1154 8.4298 50.4398 8.14147C50.7834 7.83392 51.1842 7.68015 51.6422 7.68015H54.8486V6.72866C54.8486 6.36344 55.0109 6.05589 55.3353 5.80601C55.6598 5.5369 56.051 5.40234 56.5091 5.40234C56.9671 5.40234 57.3584 5.5369 57.6829 5.80601C58.0264 6.05589 58.1982 6.36344 58.1982 6.72866V7.68015H61.5764C62.0535 7.68015 62.4543 7.83392 62.7788 8.14147C63.1223 8.4298 63.2941 8.78541 63.2941 9.20829C63.2941 9.6504 63.1223 10.0252 62.7788 10.3328C62.4543 10.6211 62.0535 10.7653 61.5764 10.7653H60.8606C61.3378 11.2074 61.71 11.736 61.9772 12.3511C62.2635 12.9662 62.4066 13.6774 62.4066 14.4847ZM66.3574 18.1177C66.2237 18.1177 66.052 18.1081 65.842 18.0888C65.6512 18.0696 65.4508 18.0312 65.2408 17.9735C65.05 17.9158 64.8687 17.839 64.6969 17.7428C64.5251 17.6467 64.3915 17.5122 64.2961 17.3392C64.2388 17.2623 64.1911 17.1566 64.1529 17.022C64.1339 16.8875 64.1148 16.7529 64.0957 16.6184C64.0957 16.4646 64.0957 16.3204 64.0957 16.1859C64.1148 16.0513 64.1339 15.9456 64.1529 15.8687C64.1911 15.6573 64.2961 15.4747 64.4679 15.3209C64.6396 15.1479 64.84 15.0133 65.0691 14.9172C65.1454 14.898 65.2885 14.8788 65.4985 14.8596C65.7275 14.8403 65.9565 14.8307 66.1856 14.8307H67.0444C67.0254 14.6193 67.0158 14.4174 67.0158 14.2252V13.3314H66.3574C66.2237 13.3314 66.052 13.3218 65.842 13.3026C65.6512 13.2834 65.4508 13.2449 65.2408 13.1872C65.05 13.1296 64.8687 13.0527 64.6969 12.9566C64.5251 12.8605 64.3915 12.7259 64.2961 12.5529C64.1434 12.303 64.0671 12.0435 64.0671 11.7744C64.0671 11.4861 64.1243 11.2266 64.2388 10.9959C64.3724 10.7461 64.5442 10.5442 64.7541 10.3904C64.9832 10.2174 65.2504 10.1213 65.5557 10.1021C65.5748 10.1021 65.6607 10.1021 65.8134 10.1021C65.9852 10.1021 66.1665 10.1021 66.3574 10.1021C66.5482 10.1021 66.72 10.1021 66.8727 10.1021C67.0254 10.0829 67.1017 10.0541 67.1017 10.0156C67.1399 9.8234 67.1494 9.61195 67.1303 9.38129C67.1303 9.15063 67.1399 8.91996 67.159 8.6893C67.178 8.45864 67.2162 8.24719 67.2735 8.05497C67.3498 7.84353 67.4834 7.66092 67.6743 7.50715C67.827 7.39182 68.0083 7.31493 68.2182 7.27649C68.4282 7.23804 68.6286 7.20921 68.8194 7.18999C69.2966 7.13232 69.7069 7.29571 70.0504 7.68015C70.184 7.85314 70.2795 8.01653 70.3367 8.17031C70.4131 8.40097 70.4417 8.64124 70.4226 8.89113C70.4226 9.14102 70.4226 9.3909 70.4226 9.64079V17.887C70.4226 17.887 70.4226 17.9831 70.4226 18.1753C70.4226 18.3676 70.4035 18.5886 70.3654 18.8385C70.3272 19.0692 70.2604 19.3094 70.165 19.5593C70.0886 19.79 69.955 19.963 69.7642 20.0783C69.6306 20.1552 69.4683 20.2129 69.2775 20.2513C69.0866 20.2898 68.9148 20.309 68.7622 20.309C68.4377 20.309 68.1228 20.2033 67.8174 19.9918C67.5884 19.838 67.4262 19.6554 67.3307 19.444C67.2162 19.2325 67.1399 19.0115 67.1017 18.7808C67.0635 18.5502 67.0349 18.3291 67.0158 18.1177H66.3574ZM57.1389 16.6184C57.6924 16.5223 58.1314 16.3108 58.4558 15.984C58.7994 15.6573 58.9712 15.1575 58.9712 14.4847C58.9712 13.7158 58.723 13.1296 58.2268 12.7259C57.7497 12.3223 57.2153 12.1204 56.6236 12.1204C56.3373 12.1204 56.051 12.1685 55.7647 12.2646C55.4785 12.3415 55.2208 12.476 54.9918 12.6682C54.7627 12.8605 54.5814 13.1104 54.4478 13.4179C54.3142 13.7255 54.2474 14.0811 54.2474 14.4847C54.2474 14.9461 54.3238 15.3305 54.4765 15.638C54.6482 15.9456 54.8677 16.1859 55.1349 16.3589C55.4212 16.5126 55.7361 16.6088 56.0797 16.6472C56.4232 16.6856 56.7763 16.676 57.1389 16.6184Z" fill="white"/>
<path d="M39.273 15.1488C39.273 16.0522 39.0726 16.9076 38.6718 17.7149C38.271 18.5222 37.708 19.2046 36.9827 19.7621C36.4865 20.1273 35.9616 20.406 35.4081 20.5982C34.8546 20.7904 34.2821 20.9154 33.6904 20.973C33.0988 21.0115 32.5071 20.9923 31.9154 20.9154C31.3429 20.8193 30.7894 20.6559 30.255 20.4252C29.7206 20.2138 29.2148 19.9351 28.7377 19.5891C28.2796 19.2431 27.8788 18.849 27.5353 18.4069C27.1917 17.9648 26.9245 17.4746 26.7337 16.9364C26.5428 16.379 26.4474 15.7831 26.4474 15.1488C26.4474 14.3607 26.5619 13.6687 26.7909 13.0728C27.0199 12.4577 27.3349 11.9099 27.7357 11.4293H27.2203C26.7432 11.4293 26.3424 11.2852 26.0179 10.9968C25.6935 10.6893 25.5312 10.3241 25.5312 9.90119C25.5312 9.45908 25.6935 9.09387 26.0179 8.80554C26.3424 8.49798 26.7432 8.34421 27.2203 8.34421H30.9993V7.42155C30.9993 7.03711 31.1616 6.71995 31.486 6.47007C31.8105 6.20096 32.2017 6.06641 32.6598 6.06641C33.1178 6.06641 33.5091 6.20096 33.8336 6.47007C34.158 6.71995 34.3202 7.03711 34.3202 7.42155V8.34421H38.2996C38.7768 8.34421 39.1776 8.49798 39.502 8.80554C39.8265 9.09387 39.9887 9.45908 39.9887 9.90119C39.9887 10.3241 39.8265 10.6893 39.502 10.9968C39.1776 11.2852 38.7768 11.4293 38.2996 11.4293H37.9561C38.3569 11.9099 38.6718 12.4577 38.9008 13.0728C39.1489 13.6879 39.273 14.3799 39.273 15.1488ZM46.1439 26.9415C46.1439 26.9415 46.2011 26.9607 46.3157 26.9991C46.4493 27.0376 46.5924 27.1049 46.7451 27.201C46.8978 27.2778 47.0409 27.3932 47.1745 27.547C47.3081 27.6815 47.394 27.8449 47.4322 28.0371C47.5276 28.7676 47.4035 29.3346 47.06 29.7383C46.831 30.0074 46.5829 30.1708 46.3157 30.2284C46.0485 30.2861 45.9053 30.3149 45.8862 30.3149H30.9707C30.1882 30.3149 29.5774 30.19 29.1385 29.9401C28.6995 29.7094 28.48 29.373 28.48 28.9309V24.9232C28.48 24.8078 28.4705 24.6637 28.4514 24.4907C28.4514 24.3177 28.4514 24.1351 28.4514 23.9428C28.4514 23.7314 28.4514 23.5392 28.4514 23.3662C28.4705 23.1932 28.48 23.049 28.48 22.9337C28.5182 22.53 28.709 22.2032 29.0526 21.9534C29.3961 21.7035 29.7874 21.5785 30.2264 21.5785C30.3218 21.5785 30.4363 21.5881 30.5699 21.6074C30.7226 21.6074 30.8466 21.6266 30.9421 21.665C31.1902 21.7419 31.3906 21.8765 31.5433 22.0687C31.696 22.2417 31.8105 22.4435 31.8868 22.6742C31.9632 22.9049 32.0109 23.1547 32.03 23.4238C32.049 23.6737 32.0681 23.9044 32.0872 24.1158C32.0872 24.1927 32.0872 24.3753 32.0872 24.6637C32.0872 24.9328 32.0872 25.2307 32.0872 25.5575C32.0872 25.865 32.0872 26.1534 32.0872 26.4225C32.0872 26.6724 32.0872 26.8261 32.0872 26.8838C32.1445 26.903 32.2972 26.9319 32.5453 26.9703C32.8125 26.9895 33.2992 26.9991 34.0053 26.9991C34.6161 26.9991 35.16 26.9895 35.6372 26.9703C36.1143 26.9511 36.3624 26.9415 36.3815 26.9415H46.1439ZM42.5653 15.4659C42.0118 15.4275 41.5156 15.3987 41.0766 15.3794C40.6376 15.341 40.2941 15.1296 40.046 14.7451C39.9315 14.5529 39.8742 14.3126 39.8742 14.0243C39.8742 13.736 39.8933 13.4861 39.9315 13.2746C39.9887 13.0632 40.0937 12.8902 40.2464 12.7557C40.3991 12.6019 40.6663 12.4769 41.048 12.3808C41.1243 12.3616 41.2675 12.352 41.4774 12.352C41.6874 12.3328 41.9068 12.3135 42.1359 12.2943C42.384 12.2751 42.613 12.2655 42.823 12.2655C43.0329 12.2463 43.176 12.2367 43.2524 12.2367V9.75702C43.2333 9.54558 43.2238 9.33414 43.2238 9.1227C43.2428 8.91126 43.281 8.69982 43.3383 8.48837C43.3764 8.3346 43.4146 8.19043 43.4528 8.05588C43.491 7.92133 43.5768 7.77716 43.7104 7.62338C43.8631 7.43117 44.0731 7.29661 44.3403 7.21972C44.6266 7.14284 44.9319 7.12361 45.2564 7.16206C45.8671 7.25817 46.2584 7.49844 46.4302 7.88288C46.5447 8.11355 46.6115 8.40188 46.6306 8.74787C46.6687 9.07464 46.6878 9.27647 46.6878 9.35336V20.1946H46.6592C46.6592 20.2138 46.6497 20.2811 46.6306 20.3964C46.6115 20.5117 46.5733 20.6559 46.5161 20.8289C46.4588 20.9827 46.3729 21.146 46.2584 21.319C46.1439 21.492 45.9912 21.6362 45.8003 21.7515C45.5331 21.9053 45.2659 21.9822 44.9987 21.9822C44.6743 21.9822 44.3594 21.8765 44.054 21.665C43.825 21.5113 43.6627 21.319 43.5673 21.0884C43.4528 20.8769 43.3764 20.6655 43.3383 20.454C43.3001 20.2426 43.2715 20.0312 43.2524 19.8197V15.4659H42.5653ZM33.4328 17.7149C34.0435 17.5996 34.5684 17.3305 35.0073 16.9076C35.4654 16.4655 35.6944 15.8792 35.6944 15.1488C35.6944 14.7259 35.6085 14.3511 35.4368 14.0243C35.2841 13.6975 35.0741 13.4284 34.8069 13.217C34.5588 12.9863 34.263 12.8133 33.9194 12.698C33.5759 12.5827 33.2324 12.525 32.8888 12.525C32.5262 12.5058 32.1731 12.5538 31.8296 12.6692C31.486 12.7653 31.1806 12.919 30.9134 13.1305C30.6462 13.3419 30.4268 13.6206 30.255 13.9666C30.1023 14.2934 30.0259 14.6875 30.0259 15.1488C30.0259 15.6678 30.1309 16.1099 30.3409 16.4751C30.5508 16.8403 30.818 17.1286 31.1425 17.3401C31.4669 17.5515 31.8296 17.6861 32.2304 17.7438C32.6312 17.8014 33.032 17.7918 33.4328 17.7149Z" fill="white"/>
<defs>
<clipPath id="clip0_433_21177">
<rect width="23.2424" height="36" fill="white" transform="translate(0.5)"/>
</clipPath>
</defs>
</svg>
