<svg width="140" height="40" viewBox="0 0 140 40" fill="none" xmlns="http://www.w3.org/2000/svg">
<g clip-path="url(#clip0_424_27511)">
<path d="M29.46 24.1213C26.7982 13.8656 18.6149 0.821215 18.6149 0.821215H18.6109C18.2629 0.326965 17.6709 0 16.997 0C16.2471 0 15.5971 0.406806 15.2751 0.999905C14.2992 2.5834 7.04377 14.5252 4.55196 24.0776C4.19399 25.2067 4 26.4043 4 27.6438C4 34.4682 9.81955 40 16.999 40C24.1784 40 29.998 34.4682 29.998 27.6438C29.998 26.4195 29.808 25.239 29.46 24.1213Z" fill="#4A3AFF"/>
<path d="M14.5398 9.3876C13.3419 9.32107 12.144 9.41612 10.9881 9.68796L10.2881 9.88946C10.2881 9.88946 9.93817 10.5415 9.59019 11.2467C9.07823 12.2371 7.71634 14.946 6.81641 17.383L10.2621 27.4885L14.0558 29.5131V33.9575C21.1973 33.9575 26.9869 28.4542 26.9869 21.6659C26.9869 14.8776 21.4573 9.62903 14.5398 9.3876Z" fill="white"/>
<path d="M17.5645 32.4916C17.5645 29.6097 20.0223 27.2734 23.054 27.2734C26.0858 27.2734 28.5436 29.6097 28.5436 32.4916" fill="#4A3AFF"/>
<path d="M17.3752 28.7431H15.0514C14.1634 28.7431 13.6035 28.4313 13.6035 28.4313C11.8976 27.5645 12.5296 26.0171 12.5296 26.0171C12.7396 23.5306 14.9354 23.1694 14.9354 23.1694C15.9633 23.236 17.1132 22.9908 17.1132 22.9908C19.867 22.1847 20.127 20.1241 20.125 19.3561C20.125 19.3561 20.125 19.3466 20.125 19.3428V19.3314C20.129 18.763 20.017 18.4189 19.933 18.2422C19.931 18.2346 19.927 18.2289 19.923 18.2232C19.899 18.1737 19.877 18.1395 19.863 18.1186C19.863 18.1186 19.859 18.1129 19.859 18.111C19.849 18.0977 19.845 18.092 19.845 18.092C19.703 17.9095 19.475 17.7859 19.2151 17.7859C19.0391 17.7859 18.8791 17.843 18.7491 17.9361C18.7311 17.9532 18.7091 17.9646 18.6931 17.9798C18.6791 17.9931 18.6651 18.0045 18.6511 18.0178C17.7572 18.8372 16.6473 19.1793 16.1853 19.2934C16.0513 19.3295 15.9413 19.3333 15.8653 19.3276C15.4593 19.3428 15.2454 19.0178 15.2454 19.0178C14.9894 18.6889 14.6654 18.3809 14.3254 18.1072C15.2114 17.8411 15.0594 16.8278 15.0594 16.8278C14.3854 17.8011 13.7635 17.6548 13.7635 17.6548L13.8975 17.7897C13.8075 17.7251 13.7175 17.6605 13.6275 17.6015C13.4975 17.4438 13.4095 17.2898 13.4095 17.2898C13.3975 17.0408 13.2635 16.94 13.2635 16.94C13.0415 16.7176 12.2236 16.8031 12.2236 16.8031C11.7536 16.7708 11.8936 16.3906 11.8936 16.3906L11.5297 16.6511L11.5696 16.8012L8.89585 16.7955C6.33805 16.7955 6.16406 19.6926 6.16406 19.6926V33.2141C6.16406 34.714 7.69394 34.7577 7.69394 34.7577H23.7167C23.7167 28.918 17.3752 28.7412 17.3752 28.7412" fill="#4A3AFF"/>
<path d="M11.6537 14.0145C11.6537 14.0145 11.3677 13.4043 10.5098 13.8264L10.7557 13.1211L11.9697 13.2979" fill="white"/>
<path d="M16.6612 28.2927L17.2432 25.9583C16.2892 26.27 15.6573 25.8157 14.9553 25.2606C14.0054 24.5097 12.9055 23.9262 11.8636 23.2817C11.4596 23.0308 11.0096 23.1068 10.7517 23.4357C10.5117 23.7399 10.5797 24.1429 10.9616 24.4451C11.2216 24.6504 11.4976 24.8405 11.7936 25.0458C11.8356 25.0762 11.8536 25.1086 11.8636 25.1314C11.9136 25.3367 11.6576 25.3424 11.6496 25.3424C11.5036 25.3443 11.3576 25.3462 11.2116 25.3481H7.05594C7.01194 25.3481 6.96595 25.3481 6.92195 25.3481C6.51398 25.3557 6.26 25.5895 6.256 25.9222C6.252 26.27 6.51398 26.4982 6.93195 26.5039C7.90787 26.5172 8.8838 26.5191 9.85772 26.5457C9.88372 26.5457 9.91172 26.5533 9.93772 26.5628C9.98971 26.5818 10.0737 26.635 10.0637 26.7681C10.0637 26.7681 10.0577 26.8669 9.97571 26.9202C9.97171 26.9221 9.96572 26.9278 9.95972 26.9278C9.92372 26.943 9.88772 26.9525 9.85372 26.9525C8.75581 26.9696 7.65989 26.9563 6.56198 26.962C6.31 26.962 6.05002 26.9677 5.80804 27.0266C5.49806 27.1027 5.41207 27.3631 5.45606 27.6311C5.50806 27.9486 5.72004 28.1501 6.07601 28.152C7.04194 28.1596 8.00587 28.1558 8.97179 28.1558C9.25377 28.1558 9.53375 28.1558 9.81573 28.1558C9.86372 28.1558 9.91772 28.1558 9.96772 28.1558C10.0277 28.1615 10.0957 28.1767 10.1437 28.2109C10.1517 28.2185 10.1577 28.2261 10.1657 28.2337C10.1697 28.2375 10.1737 28.2413 10.1757 28.2451C10.1957 28.2794 10.2057 28.325 10.1997 28.3896C10.1877 28.5113 10.0517 28.5474 9.91772 28.5607C9.90372 28.5607 9.89172 28.5607 9.87372 28.5607H9.88772C9.86772 28.5626 9.84772 28.5645 9.82973 28.5645C8.8258 28.5816 7.81988 28.574 6.81396 28.5721C6.12801 28.5721 5.84803 28.7394 5.84003 29.1671C5.83203 29.5834 6.13801 29.7754 6.80196 29.7735C7.96787 29.7735 9.13378 29.764 10.2997 29.7792C10.3277 29.7792 10.3557 29.7887 10.3837 29.7982C10.4317 29.8191 10.4997 29.8705 10.4917 29.9959C10.4917 29.9959 10.4877 30.1727 10.2657 30.1822C9.43376 30.2012 8.60382 30.1822 7.77188 30.2012C7.23993 30.2126 6.94195 30.6632 7.20793 31.0681C7.30792 31.2201 7.5659 31.3684 7.75389 31.3684C9.75173 31.3817 11.7476 31.3304 13.7454 31.3475C16.7852 31.3722 18.999 28.9751 18.999 28.9751L16.6612 28.2946V28.2927ZM10.2817 30.1784H10.3077H10.2837H10.2817Z" fill="white"/>
<path d="M23.9462 31.7923V31.1821V30.6632C23.9462 30.6632 23.9982 29.8477 23.3083 29.8477H22.5264V31.7923H21.8824H21.3364C21.3364 31.7923 20.4785 31.7429 20.4785 32.3987V33.142H22.5244V33.7522V34.2712C22.5244 34.2712 22.4724 35.0867 23.1623 35.0867H23.9442V33.1401H24.5882H25.1342C25.1342 33.1401 25.9921 33.1895 25.9921 32.5337V31.7904H23.9462V31.7923Z" fill="white"/>
<path d="M12.6621 24.3134L14.04 24.532L14.296 24.0359C13.3861 24.1366 12.6841 23.7773 12.6841 23.7773" fill="white"/>
<path d="M19.7873 18.0234L12.9838 23.2644L12.2078 22.6865L11.1919 22.5686L10.9839 22.9773H10.8959L10.784 23.3708L10.752 23.4355C10.76 23.4222 10.772 23.4146 10.78 23.4032C11.1179 23.0724 11.5439 23.2758 11.6999 23.3689L13.5117 24.5513C15.1816 25.6159 17.4494 25.5779 19.0933 24.3118C21.1112 22.7568 21.4211 19.9415 19.7853 18.0234" fill="#4A3AFF"/>
<path d="M13.1674 19.8457C13.1674 19.8457 12.5734 20.8798 11.3535 21.1858C11.3535 21.1858 12.4934 21.2029 13.4714 20.4939C13.4714 20.4939 13.6753 20.146 13.1674 19.8438" fill="white"/>
<path d="M11.7601 16.8006C11.7601 16.8006 12.574 15.1886 11.1061 13.1641C11.1061 13.1641 7.97436 14.067 6.43847 18.2929C4.90259 22.5187 6.43847 18.5514 6.43847 18.5514L11.7601 16.8006Z" fill="#4A3AFF"/>
</g>
<path d="M135.994 29.9301C136.015 30.5067 135.983 31.0941 135.898 31.6921C135.812 32.2901 135.535 32.7493 135.065 33.0697C134.702 33.2832 134.382 33.39 134.104 33.39C133.741 33.39 133.442 33.2619 133.208 33.0056C132.994 32.7493 132.823 32.4396 132.695 32.0765C132.588 31.7134 132.514 31.3397 132.471 30.9552C132.45 30.5495 132.439 30.1971 132.439 29.898V22.0811H130.357V30.0903C130.4 30.5815 130.379 31.0941 130.293 31.628C130.229 32.1406 130.09 32.5464 129.877 32.8454C129.621 33.2085 129.247 33.39 128.756 33.39C128.521 33.39 128.297 33.3366 128.084 33.2299C127.891 33.1231 127.71 32.9842 127.539 32.8134C127.176 32.4503 126.963 32.0125 126.899 31.4999C126.835 30.9873 126.803 30.4854 126.803 29.9942V11.0285C126.803 10.7295 126.813 10.4305 126.835 10.1315C126.856 9.81108 126.92 9.52275 127.027 9.26646C127.133 8.98881 127.283 8.7432 127.475 8.52962C127.689 8.31604 127.977 8.16654 128.34 8.08111C128.831 7.97432 129.226 8.09179 129.525 8.43351C129.76 8.66844 129.93 8.97813 130.037 9.36257C130.165 9.74701 130.251 10.1742 130.293 10.644C130.336 11.0925 130.357 11.5731 130.357 12.0857C130.357 12.5769 130.357 13.0575 130.357 13.5273V18.2047H132.439V11.3168C132.439 11.0178 132.439 10.6868 132.439 10.3237C132.439 9.96059 132.471 9.62954 132.535 9.33053C132.62 9.01017 132.77 8.73252 132.983 8.49758C133.218 8.26265 133.56 8.12382 134.008 8.08111C134.478 8.03839 134.852 8.17722 135.129 8.49758C135.385 8.75388 135.567 9.08492 135.674 9.49072C135.802 9.87516 135.887 10.281 135.93 10.7081C135.972 11.1353 135.994 11.5731 135.994 12.0216C135.994 12.4701 135.994 12.8652 135.994 13.207V29.9301ZM119.277 29.4175C119.277 29.0971 119.277 28.7981 119.277 28.5205C119.277 28.2428 119.277 27.9118 119.277 27.5273C119.277 27.1429 119.266 26.6837 119.245 26.1498C119.245 25.6158 119.245 24.9217 119.245 24.0674C119.245 23.2131 119.245 22.1772 119.245 20.9598C119.245 19.7424 119.245 18.2688 119.245 16.5388C119.245 16.1757 119.245 15.834 119.245 15.5136C119.245 15.1719 119.223 14.8195 119.181 14.4564C119.116 14.072 119.02 13.8263 118.892 13.7196C118.764 13.6128 118.508 13.5594 118.124 13.5594C117.184 13.538 116.352 13.538 115.626 13.5594C114.9 13.5594 114.121 13.5594 113.288 13.5594C112.541 13.5594 111.986 13.3671 111.623 12.9827C111.26 12.5983 111.078 12.0964 111.078 11.477C111.078 10.8576 111.217 10.3877 111.494 10.0674C111.793 9.72565 112.22 9.5014 112.775 9.39461C113.202 9.28782 113.608 9.22375 113.992 9.20239C114.377 9.18103 114.804 9.17035 115.273 9.17035H119.853C119.96 9.17035 120.067 9.18103 120.173 9.20239C120.301 9.20239 120.419 9.20239 120.526 9.20239C120.803 9.22375 121.091 9.25578 121.39 9.2985C121.711 9.34121 121.999 9.41597 122.255 9.52275C122.426 9.58683 122.586 9.67226 122.735 9.77905C122.906 9.88584 123.045 10.014 123.152 10.1635C123.365 10.4625 123.483 10.7401 123.504 10.9964C123.525 11.2527 123.557 11.5624 123.6 11.9255C123.643 12.5022 123.664 13.0895 123.664 13.6875C123.664 14.2855 123.664 14.8835 123.664 15.4816V25.7333C123.664 25.7546 123.664 25.9148 123.664 26.2138C123.685 26.5128 123.696 26.8759 123.696 27.3031C123.696 27.7302 123.696 28.1787 123.696 28.6486C123.696 29.0971 123.685 29.4922 123.664 29.834C123.6 30.6028 123.354 31.2222 122.927 31.6921C122.522 32.162 121.945 32.3969 121.198 32.3969C120.814 32.3969 120.494 32.3008 120.237 32.1086C119.981 31.9163 119.778 31.6707 119.629 31.3717C119.501 31.0727 119.405 30.7524 119.341 30.4106C119.298 30.0475 119.277 29.7165 119.277 29.4175Z" fill="#4A3AFF"/>
<path d="M93.2059 15.8986C94.3588 15.9413 95.3303 16.2189 96.1202 16.7315C96.9102 17.2441 97.5507 17.9062 98.0417 18.7178C98.5328 19.5294 98.8744 20.4478 99.0666 21.4729C99.2587 22.4981 99.3334 23.534 99.2907 24.5805C99.2694 25.627 99.1199 26.6522 98.8424 27.656C98.5862 28.6598 98.2446 29.5462 97.8176 30.315C97.3479 31.148 96.686 31.7887 95.832 32.2372C94.9993 32.6644 94.1026 32.91 93.1419 32.9741C92.1811 33.0382 91.231 32.91 90.2916 32.5896C89.3736 32.2693 88.5943 31.7674 87.9538 31.0839C87.3987 30.4859 87.0037 29.8665 86.7688 29.2258C86.534 28.5637 86.3632 27.8375 86.2564 27.0473C86.1497 26.2571 86.0643 25.4989 86.0002 24.7727C85.9362 24.0252 85.9255 23.2883 85.9682 22.5622C86.0109 21.836 86.1283 21.1205 86.3205 20.4157C86.534 19.7109 86.8542 19.0061 87.2813 18.3013C87.5161 17.8955 87.847 17.5431 88.274 17.2441C88.701 16.9237 89.1814 16.6674 89.7152 16.4752C90.2489 16.2616 90.8147 16.1121 91.4125 16.0267C92.0317 15.9199 92.6295 15.8772 93.2059 15.8986ZM108.194 18.2372C108.301 18.2372 108.397 18.2479 108.482 18.2693C108.589 18.2906 108.695 18.3013 108.802 18.3013C108.909 18.3227 109.026 18.344 109.155 18.3654C109.283 18.3654 109.411 18.3761 109.539 18.3974C109.774 18.4401 110.009 18.5256 110.243 18.6537C110.478 18.7605 110.649 18.9314 110.756 19.1663C110.905 19.4012 110.98 19.6789 110.98 19.9993C110.98 20.1701 110.969 20.3303 110.948 20.4798C110.948 20.608 110.927 20.7575 110.884 20.9283C110.841 21.0992 110.788 21.2807 110.724 21.4729C110.681 21.6652 110.585 21.8147 110.436 21.9215C110.137 22.135 109.848 22.2739 109.571 22.3379C109.229 22.3806 108.813 22.3913 108.322 22.37C107.831 22.3486 107.414 22.3486 107.073 22.37C107.052 22.37 107.03 22.3806 107.009 22.402H106.977L106.945 22.434V22.5301C106.923 23.0641 106.913 23.6835 106.913 24.3883C106.934 25.0931 106.945 25.7231 106.945 26.2784C106.987 27.389 106.987 28.4783 106.945 29.5462V29.9947C106.945 30.2723 106.934 30.582 106.913 30.9237C106.913 31.2441 106.891 31.5645 106.849 31.8848C106.806 32.2052 106.731 32.5149 106.625 32.8139C106.518 33.0916 106.368 33.3265 106.176 33.5187C105.92 33.8177 105.578 33.9672 105.151 33.9672C105.151 33.9672 105.13 33.9565 105.087 33.9352C104.575 33.9138 104.159 33.7643 103.838 33.4867C103.539 33.209 103.305 32.8673 103.134 32.4615C102.984 32.0557 102.888 31.6392 102.846 31.2121C102.803 30.7636 102.781 30.3684 102.781 30.0267V10.997C102.781 10.9756 102.781 10.8795 102.781 10.7086C102.781 10.5164 102.803 10.3028 102.846 10.0679C102.888 9.81161 102.952 9.55532 103.038 9.29903C103.144 9.02137 103.283 8.79712 103.454 8.62626C103.603 8.47675 103.817 8.36996 104.095 8.30589C104.393 8.22046 104.66 8.17774 104.895 8.17774C105.365 8.17774 105.76 8.33793 106.08 8.65829C106.379 8.9573 106.55 9.27767 106.592 9.61939C106.657 9.93976 106.71 10.2815 106.753 10.6446C106.774 10.73 106.785 10.8581 106.785 11.029C106.827 11.3921 106.849 11.7658 106.849 12.1503C106.87 12.5347 106.891 12.9192 106.913 13.3036C106.913 13.5385 106.913 13.7735 106.913 14.0084C106.934 14.222 106.945 14.4462 106.945 14.6812C106.923 14.8093 106.913 14.9375 106.913 15.0656C106.934 15.1724 106.945 15.2792 106.945 15.386V17.4684C106.945 17.5751 106.945 17.6926 106.945 17.8208C106.945 17.9489 106.966 18.0664 107.009 18.1732C107.009 18.1945 107.116 18.2052 107.329 18.2052C107.543 18.2052 107.66 18.2052 107.681 18.2052C107.874 18.2479 108.023 18.2586 108.13 18.2372H108.194ZM97.6895 10.7727C98.1165 10.7727 98.5435 10.8368 98.9705 10.9649C99.3975 11.0931 99.7284 11.3707 99.9633 11.7979C100.113 12.0755 100.166 12.4279 100.123 12.8551C100.081 13.2609 99.9526 13.6026 99.7391 13.8803C99.5256 14.1366 99.1947 14.3181 98.7463 14.4249C98.298 14.5317 97.8282 14.6064 97.3372 14.6491C96.8461 14.6705 96.3871 14.6705 95.9601 14.6491C95.5544 14.6278 95.2769 14.6171 95.1274 14.6171C94.9566 14.6385 94.7858 14.6491 94.615 14.6491C94.4656 14.6491 94.2948 14.6491 94.1026 14.6491H93.0778C92.907 14.6278 92.7362 14.6171 92.5654 14.6171C92.416 14.6171 92.2558 14.6171 92.085 14.6171L88.3061 14.553C87.2172 14.553 86.4379 14.4142 85.9682 14.1366C85.4985 13.8589 85.221 13.4211 85.1356 12.8231C85.0502 12.2037 85.2103 11.7018 85.6159 11.3173C85.9148 11.061 86.1604 10.9009 86.3525 10.8368C86.566 10.7727 86.8329 10.7407 87.1532 10.7407C87.2386 10.7407 87.324 10.7514 87.4094 10.7727C87.4948 10.7727 87.5802 10.7727 87.6656 10.7727H88.4662C88.7651 10.7727 89.1174 10.7727 89.523 10.7727C89.9287 10.7514 90.281 10.73 90.5799 10.7086C90.5799 10.6232 90.5799 10.5057 90.5799 10.3562C90.6012 10.1854 90.6119 10.0145 90.6119 9.84365C90.6332 9.67279 90.6439 9.5126 90.6439 9.3631C90.6653 9.19224 90.6759 9.07477 90.6759 9.0107C90.7186 8.64761 90.8361 8.31657 91.0282 8.01756C91.4766 7.39819 92.0317 7.10986 92.6935 7.15257C92.9924 7.19529 93.2913 7.24868 93.5902 7.31275C93.8891 7.35547 94.1347 7.50497 94.3268 7.76127C94.5617 8.10299 94.6684 8.57286 94.6471 9.17088C94.6471 9.74754 94.6684 10.2708 94.7111 10.7407H95.6398C95.8107 10.7407 96.0562 10.7514 96.3764 10.7727C96.6967 10.7727 96.9422 10.7727 97.113 10.7727H97.6895ZM93.0778 29.4501C93.5475 29.386 93.9532 29.2044 94.2948 28.9054C94.6364 28.5851 94.9139 28.2113 95.1274 27.7842C95.3409 27.357 95.4904 26.8978 95.5758 26.4066C95.6612 25.9153 95.7039 25.4562 95.7039 25.029C95.7039 24.6659 95.6825 24.2601 95.6398 23.8116C95.6185 23.3417 95.5651 22.8932 95.4797 22.4661C95.3943 22.0176 95.2555 21.6118 95.0634 21.2487C94.8712 20.8642 94.615 20.5546 94.2948 20.3196C93.9959 20.1274 93.6436 20.0099 93.238 19.9672C92.8323 19.9031 92.416 19.9138 91.989 19.9993C91.5833 20.0847 91.2097 20.2342 90.8681 20.4478C90.5265 20.64 90.281 20.907 90.1315 21.2487C89.7259 22.1243 89.5123 23 89.491 23.8757C89.491 24.7514 89.5871 25.6484 89.7792 26.5668C89.886 27.0366 90.0354 27.5279 90.2276 28.0404C90.4197 28.5317 90.7186 28.9161 91.1243 29.1938C91.2097 29.2578 91.3378 29.3112 91.5086 29.3539C91.7007 29.3753 91.8929 29.3967 92.085 29.418C92.2985 29.4394 92.4907 29.4607 92.6615 29.4821C92.8537 29.4821 92.9924 29.4714 93.0778 29.4501Z" fill="#4A3AFF"/>
<path d="M80.6812 31.2128C81.0228 31.2342 81.3217 31.3196 81.5779 31.4691C81.8341 31.5973 82.0156 31.8322 82.1223 32.1739C82.3572 32.9642 82.0796 33.4981 81.2897 33.7757C81.0335 33.8825 80.7666 33.9466 80.489 33.968C80.2328 33.9893 79.998 34 79.7845 34H64.8927C64.4657 34 64.0174 34 63.5477 34C63.0779 34 62.6082 33.9893 62.1385 33.968C61.5621 33.9466 61.1564 33.7651 60.9216 33.4233C60.7081 33.0816 60.58 32.6651 60.5373 32.1739L60.4092 30.0595C60.3878 29.8246 60.3878 29.5469 60.4092 29.2265C60.4519 28.8848 60.5693 28.5965 60.7615 28.3616C61.0604 28.0625 61.402 27.8703 61.7863 27.7849C62.1706 27.6995 62.5976 27.6567 63.0673 27.6567H64.0601C64.1668 27.6567 64.2522 27.6674 64.3163 27.6888C64.3803 27.6888 64.4444 27.6888 64.5084 27.6888H78.4714V26.5675H64.1882C64.0814 26.5675 63.964 26.5675 63.8359 26.5675C63.7291 26.5461 63.6117 26.5461 63.4836 26.5675H62.715C62.5015 26.5675 62.3093 26.5675 62.1385 26.5675C61.9677 26.5675 61.7969 26.5461 61.6261 26.5034C61.434 26.4607 61.2525 26.418 61.0817 26.3753C60.9323 26.3326 60.8042 26.2258 60.6974 26.0549C60.5693 25.82 60.4839 25.5957 60.4412 25.3822C60.3985 25.1686 60.4198 24.9336 60.5052 24.6773C60.5693 24.5065 60.6654 24.3783 60.7935 24.2929C60.9216 24.1861 61.071 24.1007 61.2418 24.0366C61.4126 23.9725 61.5728 23.9298 61.7222 23.9085C61.893 23.8658 62.0425 23.8337 62.1706 23.8124C62.3414 23.791 62.5015 23.7803 62.6509 23.7803C62.8217 23.759 62.9925 23.7483 63.1633 23.7483H63.7078C63.8145 23.7696 63.9106 23.7803 63.996 23.7803C64.1028 23.7803 64.2095 23.7803 64.3163 23.7803H78.7917C79.8805 23.7803 80.7132 23.9512 81.2897 24.2929C81.8661 24.6133 82.1543 25.1472 82.1543 25.8947V28.1373C82.1543 28.4363 82.0796 28.7246 81.9302 29.0023C81.8021 29.2799 81.5672 29.5256 81.2256 29.7391C80.9481 29.91 80.6705 30.0061 80.393 30.0275C80.1154 30.0275 79.8378 30.0275 79.5603 30.0275H64.3483V31.2128H80.6812ZM73.2513 16.0915C73.2513 16.9886 73.0485 17.8535 72.6428 18.6865C72.2585 19.4981 71.6927 20.1709 70.9455 20.7048C69.9634 21.4523 68.8532 21.8688 67.6149 21.9542C66.3979 22.0397 65.245 21.8581 64.1561 21.4096C63.6224 21.196 63.1206 20.9184 62.6509 20.5767C62.1812 20.2349 61.7756 19.8398 61.434 19.3913C61.0924 18.9428 60.8148 18.4409 60.6013 17.8856C60.4092 17.3303 60.3131 16.7323 60.3131 16.0915C60.3131 15.1945 60.4625 14.4043 60.7615 13.7208C61.0604 13.0374 61.466 12.45 61.9784 11.9588H61.2098C60.6974 11.9588 60.249 11.7986 59.8647 11.4783C59.5018 11.1365 59.3203 10.7201 59.3203 10.2288C59.3203 9.75896 59.5018 9.36384 59.8647 9.04348C60.249 8.70175 60.6974 8.53089 61.2098 8.53089H64.7966V7.47368C64.7966 7.06789 64.9781 6.72616 65.3411 6.44851C65.704 6.1495 66.1417 6 66.6541 6C67.1665 6 67.6042 6.1495 67.9671 6.44851C68.3514 6.72616 68.5436 7.06789 68.5436 7.47368V8.53089H72.3226C72.8563 8.53089 73.3047 8.70175 73.6676 9.04348C74.0519 9.36384 74.2441 9.75896 74.2441 10.2288C74.2441 10.7201 74.0519 11.1365 73.6676 11.4783C73.3047 11.7986 72.8563 11.9588 72.3226 11.9588H71.5219C72.0557 12.45 72.472 13.0374 72.7709 13.7208C73.0912 14.4043 73.2513 15.1945 73.2513 16.0915ZM77.6708 20.1281C77.5214 20.1281 77.3292 20.1175 77.0943 20.0961C76.8808 20.0748 76.6567 20.032 76.4218 19.968C76.2083 19.9039 76.0055 19.8185 75.8133 19.7117C75.6212 19.6049 75.4717 19.4554 75.365 19.2632C75.3009 19.1777 75.2476 19.0603 75.2049 18.9108C75.1835 18.7613 75.1622 18.6117 75.1408 18.4622C75.1408 18.2914 75.1408 18.1312 75.1408 17.9817C75.1622 17.8322 75.1835 17.7147 75.2049 17.6293C75.2476 17.3944 75.365 17.1915 75.5571 17.0206C75.7493 16.8284 75.9735 16.6789 76.2297 16.5721C76.3151 16.5507 76.4752 16.5294 76.71 16.508C76.9662 16.4867 77.2224 16.476 77.4786 16.476H78.4394C78.4181 16.241 78.4074 16.0168 78.4074 15.8032V14.8101H77.6708C77.5214 14.8101 77.3292 14.7994 77.0943 14.778C76.8808 14.7567 76.6567 14.714 76.4218 14.6499C76.2083 14.5858 76.0055 14.5004 75.8133 14.3936C75.6212 14.2868 75.4717 14.1373 75.365 13.9451C75.1942 13.6674 75.1088 13.3791 75.1088 13.0801C75.1088 12.7597 75.1728 12.4714 75.3009 12.2151C75.4504 11.9375 75.6425 11.7132 75.8774 11.5423C76.1336 11.3501 76.4325 11.2433 76.7741 11.222C76.7954 11.222 76.8915 11.222 77.0623 11.222C77.2545 11.222 77.4573 11.222 77.6708 11.222C77.8843 11.222 78.0765 11.222 78.2473 11.222C78.4181 11.2006 78.5035 11.1686 78.5035 11.1259C78.5462 10.9123 78.5568 10.6773 78.5355 10.4211C78.5355 10.1648 78.5462 9.90847 78.5675 9.65217C78.5889 9.39588 78.6316 9.16095 78.6956 8.94737C78.781 8.71243 78.9305 8.50953 79.144 8.33867C79.3148 8.21053 79.5176 8.12509 79.7524 8.08238C79.9873 8.03966 80.2115 8.00763 80.425 7.98627C80.9587 7.9222 81.4178 8.10374 81.8021 8.53089C81.9515 8.72311 82.0583 8.90465 82.1223 9.07551C82.2077 9.33181 82.2397 9.59878 82.2184 9.87643C82.2184 10.1541 82.2184 10.4317 82.2184 10.7094V19.8719C82.2184 19.8719 82.2184 19.9786 82.2184 20.1922C82.2184 20.4058 82.197 20.6514 82.1543 20.9291C82.1116 21.1854 82.0369 21.4523 81.9302 21.73C81.8448 21.9863 81.6953 22.1785 81.4818 22.3066C81.3324 22.3921 81.1509 22.4561 80.9374 22.4989C80.7239 22.5416 80.5317 22.5629 80.3609 22.5629C79.998 22.5629 79.6457 22.4455 79.3041 22.2105C79.0479 22.0397 78.8664 21.8368 78.7597 21.6018C78.6316 21.3669 78.5462 21.1213 78.5035 20.865C78.4608 20.6087 78.4287 20.3631 78.4074 20.1281H77.6708ZM67.3587 18.4622C67.9778 18.3555 68.4689 18.1205 68.8318 17.7574C69.2161 17.3944 69.4083 16.8391 69.4083 16.0915C69.4083 15.2372 69.1307 14.5858 68.5756 14.1373C68.0419 13.6888 67.4441 13.4645 66.7822 13.4645C66.462 13.4645 66.1417 13.5179 65.8214 13.6247C65.5012 13.7101 65.213 13.8596 64.9568 14.0732C64.7006 14.2868 64.4977 14.5645 64.3483 14.9062C64.1988 15.2479 64.1241 15.643 64.1241 16.0915C64.1241 16.6041 64.2095 17.0313 64.3803 17.373C64.5725 17.7147 64.818 17.9817 65.1169 18.1739C65.4371 18.3448 65.7894 18.4516 66.1737 18.4943C66.558 18.537 66.953 18.5263 67.3587 18.4622Z" fill="#4A3AFF"/>
<path d="M47.3721 16.8298C47.3721 17.8336 47.148 18.784 46.6996 19.6811C46.2513 20.5781 45.6214 21.3363 44.8101 21.9557C44.255 22.3615 43.6679 22.6712 43.0487 22.8847C42.4296 23.0983 41.7891 23.2371 41.1272 23.3012C40.4653 23.3439 39.8035 23.3226 39.1416 23.2371C38.5011 23.1303 37.882 22.9488 37.2842 22.6925C36.6864 22.4576 36.1206 22.1479 35.5868 21.7635C35.0744 21.379 34.6261 20.9412 34.2418 20.45C33.8575 19.9587 33.5586 19.4141 33.3451 18.8161C33.1316 18.1967 33.0248 17.5346 33.0248 16.8298C33.0248 15.9541 33.1529 15.1853 33.4091 14.5232C33.6653 13.8397 34.0176 13.231 34.4659 12.6971H33.8895C33.3557 12.6971 32.9074 12.5369 32.5444 12.2165C32.1815 11.8748 32 11.469 32 10.9991C32 10.5079 32.1815 10.1021 32.5444 9.78176C32.9074 9.44004 33.3557 9.26917 33.8895 9.26917H38.1168V8.244C38.1168 7.81685 38.2983 7.46444 38.6613 7.18679C39.0242 6.88779 39.4619 6.73828 39.9743 6.73828C40.4867 6.73828 40.9244 6.88779 41.2873 7.18679C41.6503 7.46444 41.8318 7.81685 41.8318 8.244V9.26917H46.2833C46.817 9.26917 47.2654 9.44004 47.6283 9.78176C47.9913 10.1021 48.1728 10.5079 48.1728 10.9991C48.1728 11.469 47.9913 11.8748 47.6283 12.2165C47.2654 12.5369 46.817 12.6971 46.2833 12.6971H45.899C46.3473 13.231 46.6996 13.8397 46.9558 14.5232C47.2334 15.2066 47.3721 15.9755 47.3721 16.8298ZM55.0582 29.9328C55.0582 29.9328 55.1223 29.9541 55.2504 29.9969C55.3998 30.0396 55.5599 30.1143 55.7307 30.2211C55.9015 30.3066 56.0617 30.4347 56.2111 30.6056C56.3606 30.7551 56.4566 30.9366 56.4993 31.1502C56.6061 31.9618 56.4673 32.5918 56.083 33.0403C55.8268 33.3393 55.5493 33.5209 55.2504 33.585C54.9515 33.649 54.7913 33.6811 54.77 33.6811H38.0848C37.2094 33.6811 36.5262 33.5422 36.0352 33.2646C35.5441 33.0083 35.2986 32.6345 35.2986 32.1433V27.6902C35.2986 27.5621 35.2879 27.4019 35.2666 27.2097C35.2666 27.0175 35.2666 26.8146 35.2666 26.601C35.2666 26.366 35.2666 26.1525 35.2666 25.9603C35.2879 25.768 35.2986 25.6078 35.2986 25.4797C35.3413 25.0312 35.5548 24.6681 35.9391 24.3905C36.3234 24.1128 36.7611 23.974 37.2521 23.974C37.3589 23.974 37.487 23.9847 37.6364 24.006C37.8073 24.006 37.946 24.0274 38.0528 24.0701C38.3303 24.1555 38.5545 24.305 38.7253 24.5186C38.8961 24.7108 39.0242 24.9351 39.1096 25.1914C39.195 25.4477 39.2484 25.7253 39.2697 26.0243C39.2911 26.302 39.3124 26.5583 39.3338 26.7932C39.3338 26.8786 39.3338 27.0815 39.3338 27.4019C39.3338 27.7009 39.3338 28.0319 39.3338 28.395C39.3338 28.7368 39.3338 29.0571 39.3338 29.3561C39.3338 29.6338 39.3338 29.8046 39.3338 29.8687C39.3978 29.8901 39.5686 29.9221 39.8462 29.9648C40.1451 29.9862 40.6895 29.9969 41.4795 29.9969C42.1627 29.9969 42.7712 29.9862 43.3049 29.9648C43.8387 29.9435 44.1162 29.9328 44.1376 29.9328H55.0582ZM51.055 17.1822C50.4359 17.1395 49.8808 17.1075 49.3897 17.0861C48.8987 17.0434 48.5144 16.8085 48.2368 16.3813C48.1087 16.1677 48.0447 15.9008 48.0447 15.5804C48.0447 15.26 48.066 14.9824 48.1087 14.7474C48.1728 14.5125 48.2902 14.3203 48.461 14.1708C48.6318 13.9999 48.9307 13.8611 49.3577 13.7543C49.4431 13.7329 49.6032 13.7223 49.8381 13.7223C50.0729 13.7009 50.3185 13.6795 50.5747 13.6582C50.8522 13.6368 51.1084 13.6262 51.3433 13.6262C51.5781 13.6048 51.7383 13.5941 51.8237 13.5941V10.839C51.8023 10.604 51.7916 10.3691 51.7916 10.1342C51.813 9.89923 51.8557 9.66429 51.9197 9.42936C51.9624 9.25849 52.0051 9.09831 52.0478 8.94881C52.0905 8.7993 52.1866 8.63912 52.3361 8.46826C52.5069 8.25468 52.7417 8.10518 53.0406 8.01974C53.3609 7.93431 53.7025 7.91296 54.0654 7.95567C54.7486 8.06246 55.1863 8.32943 55.3785 8.75659C55.5066 9.01288 55.5813 9.33325 55.6026 9.71769C55.6453 10.0808 55.6667 10.305 55.6667 10.3905V22.4362H55.6347C55.6347 22.4576 55.624 22.5323 55.6026 22.6605C55.5813 22.7886 55.5386 22.9488 55.4745 23.141C55.4105 23.3119 55.3144 23.4934 55.1863 23.6856C55.0582 23.8779 54.8874 24.0381 54.6739 24.1662C54.375 24.3371 54.0761 24.4225 53.7772 24.4225C53.4142 24.4225 53.062 24.305 52.7204 24.0701C52.4642 23.8992 52.2827 23.6856 52.1759 23.4294C52.0478 23.1944 51.9624 22.9595 51.9197 22.7246C51.877 22.4896 51.845 22.2547 51.8237 22.0197V17.1822H51.055ZM40.839 19.6811C41.5222 19.5529 42.1093 19.2539 42.6004 18.784C43.1128 18.2928 43.369 17.6414 43.369 16.8298C43.369 16.3599 43.2729 15.9435 43.0807 15.5804C42.9099 15.2173 42.6751 14.9183 42.3762 14.6834C42.0986 14.4271 41.7677 14.2348 41.3834 14.1067C40.9991 13.9786 40.6148 13.9145 40.2305 13.9145C39.8248 13.8931 39.4299 13.9465 39.0456 14.0747C38.6613 14.1815 38.3197 14.3523 38.0208 14.5873C37.7219 14.8222 37.4763 15.1319 37.2842 15.5163C37.1134 15.8794 37.028 16.3172 37.028 16.8298C37.028 17.4065 37.1454 17.8977 37.3802 18.3035C37.6151 18.7093 37.914 19.0297 38.277 19.2646C38.6399 19.4995 39.0456 19.649 39.4939 19.7131C39.9423 19.7772 40.3906 19.7665 40.839 19.6811Z" fill="#4A3AFF"/>
<defs>
<clipPath id="clip0_424_27511">
<rect width="26" height="40" fill="white" transform="translate(4)"/>
</clipPath>
</defs>
</svg>
