<svg width="1200" height="630" viewBox="0 0 1200 630" fill="none" xmlns="http://www.w3.org/2000/svg">
<rect width="1200" height="630" fill="white"/>
<g clip-path="url(#clip0_426_19101)">
<path d="M385.134 336.843C371.006 282.488 327.571 213.352 327.571 213.352H327.55C325.703 210.733 322.561 209 318.984 209C315.004 209 311.554 211.156 309.845 214.299C304.665 222.692 266.155 285.984 252.93 336.611C251.03 342.596 250 348.943 250 355.512C250 391.681 280.888 421 318.995 421C357.101 421 387.989 391.681 387.989 355.512C387.989 349.024 386.981 342.767 385.134 336.843Z" fill="#4A3AFF"/>
<path d="M305.939 258.753C299.581 258.4 293.223 258.904 287.087 260.345L283.372 261.413C283.372 261.413 281.515 264.868 279.668 268.606C276.95 273.855 269.722 288.212 264.945 301.129L283.234 354.688L303.37 365.418V388.973C341.275 388.973 372.004 359.806 372.004 323.828C372.004 287.85 342.655 260.032 305.939 258.753Z" fill="white"/>
<path d="M321.998 381.203C321.998 365.929 335.043 353.547 351.135 353.547C367.227 353.547 380.272 365.929 380.272 381.203" fill="#4A3AFF"/>
<path d="M320.99 361.347H308.656C303.943 361.347 300.971 359.695 300.971 359.695C291.916 355.1 295.271 346.899 295.271 346.899C296.385 333.721 308.04 331.807 308.04 331.807C313.496 332.159 319.599 330.86 319.599 330.86C334.215 326.588 335.595 315.666 335.585 311.596C335.585 311.596 335.585 311.546 335.585 311.526V311.465C335.606 308.453 335.011 306.629 334.566 305.692C334.555 305.652 334.534 305.622 334.513 305.591C334.385 305.329 334.268 305.148 334.194 305.037C334.194 305.037 334.173 305.007 334.173 304.997C334.12 304.926 334.099 304.896 334.099 304.896C333.345 303.929 332.135 303.274 330.755 303.274C329.821 303.274 328.972 303.576 328.282 304.07C328.186 304.161 328.07 304.221 327.985 304.302C327.91 304.372 327.836 304.433 327.762 304.503C323.017 308.846 317.126 310.659 314.674 311.264C313.963 311.455 313.379 311.475 312.976 311.445C310.821 311.526 309.685 309.803 309.685 309.803C308.326 308.06 306.607 306.428 304.802 304.977C309.505 303.566 308.698 298.196 308.698 298.196C305.121 303.355 301.82 302.579 301.82 302.579L302.531 303.294C302.053 302.952 301.576 302.609 301.098 302.297C300.408 301.46 299.941 300.644 299.941 300.644C299.877 299.325 299.166 298.791 299.166 298.791C297.988 297.612 293.647 298.065 293.647 298.065C291.152 297.894 291.895 295.879 291.895 295.879L289.963 297.259L290.176 298.055L275.984 298.025C262.408 298.025 261.484 313.379 261.484 313.379V385.043C261.484 392.993 269.605 393.224 269.605 393.224H354.648C354.648 362.274 320.99 361.337 320.99 361.337" fill="#4A3AFF"/>
<path d="M290.622 283.274C290.622 283.274 289.104 280.04 284.551 282.277L285.856 278.539L292.299 279.476" fill="white"/>
<path d="M317.2 358.957L320.289 346.584C315.226 348.237 311.872 345.829 308.146 342.887C303.104 338.907 297.266 335.814 291.736 332.399C289.592 331.069 287.204 331.472 285.834 333.215C284.561 334.827 284.922 336.963 286.949 338.565C288.329 339.653 289.794 340.66 291.365 341.748C291.587 341.91 291.683 342.081 291.736 342.202C292.001 343.29 290.643 343.32 290.6 343.32C289.825 343.33 289.051 343.34 288.276 343.35H266.219C265.985 343.35 265.741 343.35 265.507 343.35C263.342 343.391 261.994 344.63 261.973 346.393C261.952 348.237 263.342 349.446 265.561 349.476C270.74 349.546 275.92 349.557 281.09 349.698C281.228 349.698 281.376 349.738 281.514 349.788C281.79 349.889 282.236 350.171 282.183 350.876C282.183 350.876 282.151 351.4 281.716 351.682C281.695 351.692 281.663 351.723 281.631 351.723C281.44 351.803 281.249 351.854 281.068 351.854C275.241 351.944 269.424 351.874 263.597 351.904C262.259 351.904 260.88 351.934 259.595 352.247C257.95 352.65 257.493 354.03 257.727 355.45C258.003 357.133 259.128 358.201 261.017 358.211C266.144 358.251 271.261 358.231 276.387 358.231C277.884 358.231 279.37 358.231 280.867 358.231C281.121 358.231 281.408 358.231 281.673 358.231C281.992 358.261 282.353 358.342 282.608 358.523C282.65 358.564 282.682 358.604 282.724 358.644C282.746 358.664 282.767 358.685 282.777 358.705C282.884 358.886 282.937 359.128 282.905 359.47C282.841 360.115 282.119 360.307 281.408 360.377C281.334 360.377 281.27 360.377 281.175 360.377H281.249C281.143 360.387 281.037 360.397 280.941 360.397C275.613 360.488 270.273 360.448 264.934 360.438C261.293 360.438 259.807 361.324 259.765 363.591C259.723 365.798 261.347 366.815 264.871 366.805C271.059 366.805 277.247 366.755 283.435 366.835C283.584 366.835 283.733 366.886 283.881 366.936C284.136 367.047 284.497 367.319 284.454 367.984C284.454 367.984 284.433 368.921 283.255 368.971C278.839 369.072 274.434 368.971 270.019 369.072C267.195 369.132 265.614 371.52 267.025 373.666C267.556 374.472 268.925 375.258 269.923 375.258C280.527 375.329 291.12 375.057 301.724 375.147C317.859 375.278 329.609 362.574 329.609 362.574L317.2 358.967V358.957ZM283.34 368.951H283.478H283.351H283.34Z" fill="white"/>
<path d="M355.871 377.506V374.272V371.521C355.871 371.521 356.146 367.199 352.484 367.199H348.334V377.506H344.916H342.018C342.018 377.506 337.465 377.244 337.465 380.72V384.659H348.324V387.893V390.644C348.324 390.644 348.048 394.966 351.71 394.966H355.86V384.649H359.278H362.176C362.176 384.649 366.729 384.911 366.729 381.435V377.496H355.871V377.506Z" fill="white"/>
<path d="M295.973 337.861L303.286 339.019L304.645 336.39C299.815 336.924 296.089 335.02 296.089 335.02" fill="white"/>
<path d="M333.791 304.523L297.68 332.3L293.561 329.238L288.169 328.613L287.065 330.779H286.598L286.004 332.865L285.834 333.207C285.876 333.137 285.94 333.096 285.983 333.036C287.776 331.283 290.037 332.361 290.865 332.855L300.482 339.121C309.345 344.763 321.382 344.562 330.107 337.852C340.817 329.61 342.463 314.689 333.78 304.523" fill="#4A3AFF"/>
<path d="M298.657 314.186C298.657 314.186 295.504 319.667 289.029 321.289C289.029 321.289 295.08 321.379 300.27 317.621C300.27 317.621 301.353 315.778 298.657 314.176" fill="white"/>
<path d="M291.185 298.035C291.185 298.035 295.505 289.492 287.714 278.762C287.714 278.762 271.092 283.547 262.94 305.944C254.788 328.341 262.94 307.315 262.94 307.315L291.185 298.035Z" fill="#4A3AFF"/>
</g>
<path d="M949.567 367.642C949.68 370.699 949.51 373.811 949.058 376.981C948.605 380.15 947.134 382.584 944.644 384.282C942.721 385.414 941.023 385.98 939.552 385.98C937.629 385.98 936.045 385.301 934.8 383.943C933.668 382.584 932.763 380.943 932.084 379.019C931.518 377.094 931.122 375.113 930.896 373.076C930.783 370.925 930.726 369.057 930.726 367.473V326.043H919.694V368.491C919.92 371.095 919.807 373.811 919.354 376.641C919.015 379.358 918.279 381.509 917.148 383.094C915.79 385.018 913.809 385.98 911.207 385.98C909.962 385.98 908.774 385.697 907.642 385.131C906.624 384.565 905.662 383.829 904.757 382.924C902.833 380.999 901.702 378.679 901.362 375.962C901.023 373.245 900.853 370.585 900.853 367.982V267.464C900.853 265.879 900.91 264.294 901.023 262.71C901.136 261.012 901.475 259.483 902.041 258.125C902.607 256.654 903.399 255.352 904.417 254.22C905.549 253.088 907.077 252.296 909 251.843C911.603 251.277 913.696 251.899 915.28 253.71C916.525 254.956 917.43 256.597 917.996 258.635C918.675 260.672 919.128 262.936 919.354 265.426C919.58 267.803 919.694 270.35 919.694 273.067C919.694 275.671 919.694 278.217 919.694 280.708V305.498H930.726V268.992C930.726 267.407 930.726 265.653 930.726 263.728C930.726 261.804 930.896 260.049 931.235 258.465C931.688 256.767 932.48 255.295 933.612 254.05C934.856 252.805 936.667 252.069 939.043 251.843C941.533 251.616 943.513 252.352 944.984 254.05C946.342 255.408 947.304 257.163 947.869 259.314C948.548 261.351 949.001 263.502 949.227 265.766C949.454 268.03 949.567 270.35 949.567 272.727C949.567 275.105 949.567 277.199 949.567 279.01V367.642ZM860.966 364.926C860.966 363.228 860.966 361.643 860.966 360.171C860.966 358.7 860.966 356.945 860.966 354.908C860.966 352.87 860.909 350.437 860.796 347.607C860.796 344.777 860.796 341.098 860.796 336.57C860.796 332.042 860.796 326.552 860.796 320.1C860.796 313.648 860.796 305.837 860.796 296.668C860.796 294.744 860.796 292.933 860.796 291.235C860.796 289.424 860.683 287.556 860.456 285.632C860.117 283.594 859.608 282.292 858.929 281.727C858.25 281.161 856.892 280.878 854.855 280.878C849.876 280.764 845.463 280.764 841.616 280.878C837.769 280.878 833.638 280.878 829.225 280.878C825.265 280.878 822.323 279.859 820.399 277.821C818.475 275.784 817.514 273.124 817.514 269.841C817.514 266.558 818.249 264.068 819.72 262.37C821.304 260.559 823.568 259.37 826.51 258.804C828.773 258.238 830.923 257.899 832.959 257.786C834.996 257.672 837.259 257.616 839.749 257.616H864.021C864.587 257.616 865.152 257.672 865.718 257.786C866.397 257.786 867.019 257.786 867.585 257.786C869.056 257.899 870.584 258.069 872.168 258.295C873.865 258.521 875.393 258.918 876.751 259.483C877.656 259.823 878.505 260.276 879.297 260.842C880.202 261.408 880.938 262.087 881.503 262.879C882.635 264.464 883.257 265.936 883.37 267.294C883.484 268.652 883.653 270.294 883.88 272.218C884.106 275.274 884.219 278.387 884.219 281.557C884.219 284.726 884.219 287.896 884.219 291.065V345.399C884.219 345.512 884.219 346.361 884.219 347.946C884.332 349.531 884.389 351.455 884.389 353.719C884.389 355.983 884.389 358.36 884.389 360.851C884.389 363.228 884.332 365.322 884.219 367.133C883.88 371.208 882.578 374.491 880.315 376.981C878.165 379.471 875.11 380.716 871.15 380.716C869.113 380.716 867.415 380.207 866.058 379.188C864.7 378.17 863.625 376.868 862.833 375.283C862.154 373.698 861.645 372 861.305 370.189C861.079 368.265 860.966 366.51 860.966 364.926Z" fill="#4A3AFF"/>
<path d="M722.789 293.262C728.9 293.489 734.049 294.96 738.235 297.677C742.422 300.394 745.817 303.903 748.419 308.204C751.022 312.506 752.832 317.373 753.851 322.807C754.869 328.24 755.265 333.73 755.039 339.277C754.926 344.823 754.134 350.257 752.663 355.577C751.305 360.897 749.494 365.595 747.231 369.67C744.742 374.084 741.234 377.48 736.708 379.857C732.295 382.121 727.542 383.423 722.45 383.763C717.358 384.102 712.323 383.423 707.344 381.725C702.478 380.027 698.348 377.367 694.953 373.745C692.011 370.575 689.918 367.293 688.673 363.897C687.428 360.388 686.523 356.539 685.957 352.351C685.391 348.162 684.939 344.144 684.599 340.295C684.26 336.333 684.203 332.428 684.43 328.58C684.656 324.731 685.278 320.939 686.297 317.203C687.428 313.468 689.126 309.732 691.389 305.997C692.633 303.846 694.387 301.979 696.65 300.394C698.914 298.696 701.46 297.337 704.288 296.319C707.117 295.187 710.116 294.394 713.284 293.942C716.566 293.376 719.734 293.149 722.789 293.262ZM802.225 305.657C802.791 305.657 803.3 305.714 803.753 305.827C804.318 305.94 804.884 305.997 805.45 305.997C806.016 306.11 806.638 306.223 807.317 306.337C807.996 306.337 808.675 306.393 809.354 306.506C810.599 306.733 811.843 307.186 813.088 307.865C814.333 308.431 815.238 309.336 815.804 310.581C816.596 311.827 816.992 313.298 816.992 314.996C816.992 315.902 816.935 316.751 816.822 317.543C816.822 318.222 816.709 319.015 816.483 319.92C816.256 320.826 815.973 321.788 815.634 322.807C815.408 323.825 814.898 324.618 814.106 325.184C812.522 326.316 810.995 327.051 809.524 327.391C807.713 327.617 805.507 327.674 802.904 327.561C800.301 327.448 798.095 327.448 796.284 327.561C796.171 327.561 796.058 327.617 795.945 327.731H795.775L795.605 327.9V328.41C795.492 331.24 795.436 334.522 795.436 338.258C795.549 341.993 795.605 345.333 795.605 348.276C795.832 354.162 795.832 359.935 795.605 365.595V367.972C795.605 369.443 795.549 371.085 795.436 372.896C795.436 374.594 795.322 376.292 795.096 377.99C794.87 379.688 794.474 381.329 793.908 382.914C793.342 384.385 792.55 385.63 791.532 386.649C790.174 388.234 788.363 389.026 786.1 389.026C786.1 389.026 785.987 388.97 785.761 388.856C783.045 388.743 780.839 387.951 779.141 386.479C777.557 385.008 776.312 383.197 775.407 381.046C774.615 378.895 774.106 376.688 773.879 374.424C773.653 372.047 773.54 369.953 773.54 368.142V267.284C773.54 267.171 773.54 266.661 773.54 265.756C773.54 264.737 773.653 263.605 773.879 262.36C774.106 261.002 774.445 259.643 774.898 258.285C775.464 256.813 776.199 255.625 777.104 254.719C777.896 253.927 779.028 253.361 780.499 253.021C782.083 252.568 783.498 252.342 784.742 252.342C787.232 252.342 789.325 253.191 791.023 254.889C792.607 256.474 793.512 258.172 793.738 259.983C794.078 261.681 794.361 263.492 794.587 265.416C794.7 265.869 794.757 266.548 794.757 267.454C794.983 269.378 795.096 271.359 795.096 273.397C795.209 275.434 795.322 277.472 795.436 279.509C795.436 280.754 795.436 281.999 795.436 283.245C795.549 284.377 795.605 285.565 795.605 286.81C795.492 287.489 795.436 288.169 795.436 288.848C795.549 289.414 795.605 289.98 795.605 290.546V301.582C795.605 302.148 795.605 302.771 795.605 303.45C795.605 304.129 795.719 304.752 795.945 305.318C795.945 305.431 796.511 305.488 797.642 305.488C798.774 305.488 799.396 305.488 799.509 305.488C800.528 305.714 801.32 305.771 801.886 305.657H802.225ZM746.552 266.095C748.815 266.095 751.078 266.435 753.342 267.114C755.605 267.793 757.359 269.265 758.603 271.529C759.395 273 759.678 274.868 759.452 277.132C759.226 279.283 758.547 281.094 757.415 282.565C756.284 283.924 754.53 284.886 752.153 285.452C749.777 286.018 747.288 286.414 744.685 286.64C742.083 286.754 739.65 286.754 737.387 286.64C735.237 286.527 733.766 286.471 732.974 286.471C732.068 286.584 731.163 286.64 730.258 286.64C729.466 286.64 728.56 286.64 727.542 286.64H722.111C721.205 286.527 720.3 286.471 719.395 286.471C718.603 286.471 717.754 286.471 716.849 286.471L696.82 286.131C691.049 286.131 686.919 285.395 684.43 283.924C681.94 282.452 680.469 280.132 680.017 276.962C679.564 273.679 680.413 271.019 682.563 268.982C684.147 267.624 685.448 266.775 686.466 266.435C687.598 266.095 689.012 265.926 690.71 265.926C691.162 265.926 691.615 265.982 692.068 266.095C692.52 266.095 692.973 266.095 693.425 266.095H697.669C699.253 266.095 701.12 266.095 703.27 266.095C705.42 265.982 707.287 265.869 708.871 265.756C708.871 265.303 708.871 264.68 708.871 263.888C708.984 262.982 709.041 262.077 709.041 261.171C709.154 260.266 709.211 259.417 709.211 258.624C709.324 257.719 709.38 257.096 709.38 256.757C709.607 254.832 710.229 253.078 711.248 251.493C713.624 248.21 716.566 246.682 720.074 246.909C721.658 247.135 723.242 247.418 724.826 247.758C726.41 247.984 727.712 248.776 728.73 250.135C729.975 251.946 730.541 254.436 730.427 257.606C730.427 260.662 730.541 263.435 730.767 265.926H735.689C736.595 265.926 737.896 265.982 739.593 266.095C741.29 266.095 742.592 266.095 743.497 266.095H746.552ZM722.111 365.085C724.6 364.746 726.75 363.784 728.56 362.199C730.371 360.501 731.842 358.52 732.974 356.256C734.105 353.992 734.897 351.558 735.35 348.955C735.802 346.351 736.029 343.918 736.029 341.654C736.029 339.729 735.916 337.579 735.689 335.202C735.576 332.711 735.293 330.334 734.841 328.07C734.388 325.693 733.652 323.542 732.634 321.618C731.616 319.58 730.258 317.939 728.56 316.694C726.976 315.675 725.109 315.053 722.959 314.826C720.809 314.487 718.603 314.543 716.34 314.996C714.19 315.449 712.209 316.241 710.399 317.373C708.588 318.392 707.287 319.807 706.495 321.618C704.345 326.259 703.213 330.9 703.1 335.541C703.1 340.182 703.61 344.936 704.628 349.804C705.194 352.294 705.986 354.898 707.004 357.614C708.023 360.218 709.607 362.255 711.757 363.727C712.209 364.067 712.888 364.35 713.794 364.576C714.812 364.689 715.83 364.802 716.849 364.916C717.98 365.029 718.999 365.142 719.904 365.255C720.922 365.255 721.658 365.198 722.111 365.085Z" fill="#4A3AFF"/>
<path d="M656.41 374.429C658.22 374.542 659.805 374.995 661.162 375.787C662.52 376.466 663.482 377.711 664.048 379.523C665.293 383.711 663.822 386.541 659.635 388.012C658.277 388.578 656.862 388.918 655.391 389.031C654.034 389.144 652.789 389.201 651.657 389.201H572.731C570.468 389.201 568.092 389.201 565.602 389.201C563.113 389.201 560.623 389.144 558.134 389.031C555.079 388.918 552.929 387.956 551.684 386.144C550.552 384.333 549.873 382.126 549.647 379.523L548.968 368.316C548.855 367.071 548.855 365.599 548.968 363.901C549.195 362.09 549.817 360.562 550.835 359.317C552.419 357.732 554.23 356.714 556.267 356.261C558.304 355.808 560.567 355.582 563.056 355.582H568.318C568.884 355.582 569.336 355.638 569.676 355.751C570.015 355.751 570.355 355.751 570.694 355.751H644.698V349.809H568.997C568.431 349.809 567.809 349.809 567.13 349.809C566.564 349.695 565.942 349.695 565.263 349.809H561.189C560.058 349.809 559.039 349.809 558.134 349.809C557.229 349.809 556.323 349.695 555.418 349.469C554.4 349.243 553.438 349.016 552.533 348.79C551.741 348.563 551.062 347.997 550.496 347.092C549.817 345.847 549.364 344.658 549.138 343.526C548.912 342.394 549.025 341.149 549.477 339.791C549.817 338.885 550.326 338.206 551.005 337.753C551.684 337.187 552.476 336.734 553.381 336.395C554.287 336.055 555.135 335.829 555.927 335.716C556.833 335.489 557.625 335.319 558.304 335.206C559.209 335.093 560.058 335.036 560.85 335.036C561.755 334.923 562.66 334.867 563.565 334.867H566.451C567.017 334.98 567.526 335.036 567.978 335.036C568.544 335.036 569.11 335.036 569.676 335.036H646.396C652.166 335.036 656.58 335.942 659.635 337.753C662.69 339.451 664.218 342.281 664.218 346.243V358.128C664.218 359.713 663.822 361.241 663.029 362.713C662.351 364.184 661.106 365.486 659.295 366.618C657.824 367.524 656.353 368.033 654.882 368.146C653.411 368.146 651.94 368.146 650.469 368.146H569.846V374.429H656.41ZM617.032 294.286C617.032 299.04 615.957 303.625 613.807 308.039C611.77 312.341 608.771 315.906 604.811 318.736C599.606 322.698 593.721 324.905 587.158 325.358C580.708 325.811 574.598 324.849 568.827 322.472C565.998 321.34 563.339 319.868 560.85 318.057C558.36 316.246 556.21 314.152 554.4 311.775C552.589 309.398 551.118 306.737 549.987 303.794C548.968 300.851 548.459 297.682 548.459 294.286C548.459 289.532 549.251 285.343 550.835 281.721C552.419 278.099 554.569 274.986 557.285 272.382H553.212C550.496 272.382 548.12 271.534 546.083 269.836C544.159 268.024 543.197 265.817 543.197 263.214C543.197 260.723 544.159 258.629 546.083 256.931C548.12 255.12 550.496 254.215 553.212 254.215H572.222V248.611C572.222 246.461 573.184 244.649 575.107 243.178C577.031 241.593 579.351 240.801 582.066 240.801C584.782 240.801 587.102 241.593 589.025 243.178C591.062 244.649 592.081 246.461 592.081 248.611V254.215H612.109C614.938 254.215 617.314 255.12 619.238 256.931C621.275 258.629 622.293 260.723 622.293 263.214C622.293 265.817 621.275 268.024 619.238 269.836C617.314 271.534 614.938 272.382 612.109 272.382H607.866C610.695 274.986 612.901 278.099 614.486 281.721C616.183 285.343 617.032 289.532 617.032 294.286ZM640.455 315.68C639.663 315.68 638.644 315.623 637.4 315.51C636.268 315.397 635.08 315.171 633.835 314.831C632.704 314.491 631.629 314.039 630.61 313.473C629.592 312.907 628.8 312.114 628.234 311.096C627.895 310.643 627.612 310.02 627.385 309.228C627.272 308.435 627.159 307.643 627.046 306.851C627.046 305.945 627.046 305.096 627.046 304.304C627.159 303.511 627.272 302.889 627.385 302.436C627.612 301.191 628.234 300.115 629.252 299.21C630.271 298.191 631.459 297.399 632.817 296.833C633.269 296.72 634.118 296.606 635.363 296.493C636.721 296.38 638.079 296.323 639.436 296.323H644.528C644.415 295.078 644.359 293.89 644.359 292.758V287.494H640.455C639.663 287.494 638.644 287.438 637.4 287.324C636.268 287.211 635.08 286.985 633.835 286.645C632.704 286.306 631.629 285.853 630.61 285.287C629.592 284.721 628.8 283.928 628.234 282.91C627.329 281.438 626.876 279.91 626.876 278.325C626.876 276.627 627.216 275.099 627.895 273.741C628.687 272.269 629.705 271.081 630.95 270.175C632.308 269.156 633.892 268.59 635.702 268.477C635.815 268.477 636.325 268.477 637.23 268.477C638.248 268.477 639.323 268.477 640.455 268.477C641.586 268.477 642.605 268.477 643.51 268.477C644.415 268.364 644.868 268.194 644.868 267.968C645.094 266.836 645.151 265.591 645.038 264.232C645.038 262.874 645.094 261.516 645.207 260.157C645.321 258.799 645.547 257.554 645.886 256.422C646.339 255.177 647.131 254.101 648.263 253.196C649.168 252.517 650.243 252.064 651.488 251.837C652.732 251.611 653.92 251.441 655.052 251.328C657.881 250.988 660.314 251.951 662.351 254.215C663.143 255.233 663.708 256.195 664.048 257.101C664.5 258.459 664.67 259.874 664.557 261.346C664.557 262.817 664.557 264.289 664.557 265.76V314.322C664.557 314.322 664.557 314.888 664.557 316.02C664.557 317.151 664.444 318.453 664.218 319.925C663.991 321.283 663.595 322.698 663.029 324.17C662.577 325.528 661.785 326.547 660.653 327.226C659.861 327.679 658.899 328.018 657.768 328.245C656.636 328.471 655.618 328.584 654.713 328.584C652.789 328.584 650.922 327.962 649.111 326.717C647.753 325.811 646.792 324.736 646.226 323.49C645.547 322.245 645.094 320.944 644.868 319.585C644.642 318.227 644.472 316.925 644.359 315.68H640.455ZM585.801 306.851C589.082 306.285 591.685 305.04 593.608 303.115C595.645 301.191 596.663 298.248 596.663 294.286C596.663 289.758 595.192 286.306 592.25 283.928C589.421 281.551 586.253 280.363 582.745 280.363C581.048 280.363 579.351 280.646 577.653 281.212C575.956 281.665 574.428 282.457 573.07 283.589C571.713 284.721 570.638 286.192 569.846 288.004C569.053 289.815 568.657 291.909 568.657 294.286C568.657 297.003 569.11 299.267 570.015 301.078C571.034 302.889 572.335 304.304 573.919 305.323C575.616 306.228 577.484 306.794 579.52 307.02C581.557 307.247 583.651 307.19 585.801 306.851Z" fill="#4A3AFF"/>
<path d="M479.873 298.188C479.873 303.508 478.685 308.546 476.308 313.3C473.932 318.054 470.594 322.073 466.294 325.355C463.352 327.506 460.24 329.147 456.959 330.279C453.677 331.411 450.282 332.147 446.775 332.487C443.267 332.713 439.759 332.6 436.251 332.147C432.856 331.581 429.575 330.619 426.406 329.261C423.238 328.015 420.239 326.374 417.411 324.337C414.695 322.299 412.319 319.978 410.282 317.375C408.245 314.771 406.661 311.885 405.529 308.715C404.398 305.433 403.832 301.924 403.832 298.188C403.832 293.547 404.511 289.472 405.869 285.963C407.227 282.341 409.094 279.115 411.47 276.285H408.415C405.586 276.285 403.21 275.436 401.286 273.738C399.362 271.927 398.4 269.776 398.4 267.286C398.4 264.682 399.362 262.531 401.286 260.834C403.21 259.022 405.586 258.117 408.415 258.117H430.82V252.683C430.82 250.42 431.781 248.552 433.705 247.08C435.629 245.495 437.948 244.703 440.664 244.703C443.38 244.703 445.7 245.495 447.623 247.08C449.547 248.552 450.509 250.42 450.509 252.683V258.117H474.102C476.931 258.117 479.307 259.022 481.231 260.834C483.154 262.531 484.116 264.682 484.116 267.286C484.116 269.776 483.154 271.927 481.231 273.738C479.307 275.436 476.931 276.285 474.102 276.285H472.065C474.441 279.115 476.308 282.341 477.666 285.963C479.137 289.585 479.873 293.66 479.873 298.188ZM520.609 367.634C520.609 367.634 520.948 367.747 521.627 367.974C522.419 368.2 523.268 368.596 524.173 369.162C525.079 369.615 525.927 370.294 526.719 371.2C527.511 371.992 528.021 372.954 528.247 374.086C528.813 378.388 528.077 381.727 526.04 384.104C524.682 385.689 523.211 386.651 521.627 386.991C520.043 387.33 519.194 387.5 519.081 387.5H430.65C426.01 387.5 422.389 386.764 419.787 385.293C417.184 383.934 415.883 381.953 415.883 379.35V355.748C415.883 355.069 415.826 354.22 415.713 353.202C415.713 352.183 415.713 351.107 415.713 349.975C415.713 348.73 415.713 347.598 415.713 346.58C415.826 345.561 415.883 344.712 415.883 344.033C416.109 341.656 417.241 339.731 419.278 338.26C421.314 336.788 423.634 336.052 426.237 336.052C426.803 336.052 427.481 336.109 428.274 336.222C429.179 336.222 429.914 336.335 430.48 336.562C431.951 337.014 433.139 337.807 434.045 338.939C434.95 339.958 435.629 341.146 436.081 342.504C436.534 343.863 436.817 345.334 436.93 346.919C437.043 348.391 437.156 349.749 437.269 350.994C437.269 351.447 437.269 352.522 437.269 354.22C437.269 355.805 437.269 357.56 437.269 359.484C437.269 361.295 437.269 362.993 437.269 364.578C437.269 366.049 437.269 366.955 437.269 367.294C437.609 367.408 438.514 367.577 439.985 367.804C441.569 367.917 444.455 367.974 448.642 367.974C452.263 367.974 455.488 367.917 458.316 367.804C461.145 367.691 462.616 367.634 462.73 367.634H520.609ZM499.392 300.056C496.111 299.83 493.169 299.66 490.566 299.547C487.963 299.32 485.927 298.075 484.456 295.811C483.777 294.679 483.437 293.264 483.437 291.566C483.437 289.868 483.55 288.397 483.777 287.152C484.116 285.906 484.738 284.888 485.644 284.095C486.549 283.19 488.133 282.454 490.396 281.888C490.849 281.775 491.698 281.718 492.942 281.718C494.187 281.605 495.488 281.492 496.846 281.379C498.317 281.265 499.675 281.209 500.92 281.209C502.164 281.096 503.013 281.039 503.466 281.039V266.437C503.353 265.192 503.296 263.946 503.296 262.701C503.409 261.456 503.635 260.211 503.975 258.966C504.201 258.06 504.428 257.211 504.654 256.419C504.88 255.627 505.389 254.778 506.181 253.872C507.087 252.74 508.331 251.948 509.916 251.495C511.613 251.042 513.423 250.929 515.347 251.155C518.968 251.721 521.288 253.136 522.306 255.4C522.985 256.758 523.381 258.456 523.494 260.494C523.721 262.418 523.834 263.607 523.834 264.06V327.902H523.664C523.664 328.015 523.608 328.412 523.494 329.091C523.381 329.77 523.155 330.619 522.815 331.638C522.476 332.543 521.967 333.505 521.288 334.524C520.609 335.543 519.704 336.392 518.572 337.071C516.988 337.977 515.404 338.429 513.82 338.429C511.896 338.429 510.029 337.807 508.218 336.562C506.86 335.656 505.899 334.524 505.333 333.166C504.654 331.921 504.201 330.676 503.975 329.43C503.749 328.185 503.579 326.94 503.466 325.695V300.056H499.392ZM445.247 313.3C448.868 312.621 451.98 311.036 454.582 308.546C457.298 305.942 458.656 302.49 458.656 298.188C458.656 295.698 458.147 293.491 457.128 291.566C456.223 289.642 454.978 288.057 453.394 286.812C451.923 285.454 450.169 284.435 448.132 283.756C446.096 283.077 444.059 282.737 442.022 282.737C439.872 282.624 437.779 282.907 435.742 283.586C433.705 284.152 431.895 285.058 430.31 286.303C428.726 287.548 427.425 289.189 426.406 291.227C425.501 293.151 425.049 295.472 425.049 298.188C425.049 301.245 425.671 303.848 426.916 305.999C428.16 308.15 429.745 309.847 431.668 311.093C433.592 312.338 435.742 313.13 438.118 313.47C440.494 313.809 442.871 313.753 445.247 313.3Z" fill="#4A3AFF"/>
<defs>
<clipPath id="clip0_426_19101">
<rect width="138" height="212" fill="white" transform="translate(250 209)"/>
</clipPath>
</defs>
</svg>
