<svg width="24" height="24" viewBox="0 0 24 24" fill="none" xmlns="http://www.w3.org/2000/svg">
<path fill-rule="evenodd" clip-rule="evenodd" d="M10.7536 5.24801C10.9488 5.44327 10.9488 5.75985 10.7536 5.95512L5.20711 11.5016H20C20.2761 11.5016 20.5 11.7254 20.5 12.0016C20.5 12.2777 20.2761 12.5016 20 12.5016H5.20711L10.7536 18.048C10.9488 18.2433 10.9488 18.5599 10.7536 18.7551C10.5583 18.9504 10.2417 18.9504 10.0464 18.7551L3.64645 12.3551C3.55268 12.2613 3.5 12.1342 3.5 12.0016C3.5 11.869 3.55268 11.7418 3.64645 11.648L10.0464 5.24801C10.2417 5.05275 10.5583 5.05275 10.7536 5.24801Z" fill="#4A3AFF"/>
</svg>
