<svg width="24" height="24" viewBox="0 0 24 24" fill="none" xmlns="http://www.w3.org/2000/svg">
<path fill-rule="evenodd" clip-rule="evenodd" d="M8.79961 1.89844C8.52347 1.89844 8.29961 2.1223 8.29961 2.39844C8.29961 2.67458 8.52347 2.89844 8.79961 2.89844H15.1996C15.4758 2.89844 15.6996 2.67458 15.6996 2.39844C15.6996 2.1223 15.4758 1.89844 15.1996 1.89844H8.79961ZM7.39961 6.09844H16.5996L16.5996 19.7984H7.39961L7.39961 6.09844ZM16.5996 4.79844C16.8794 4.79844 17.1323 4.9133 17.3138 5.09844H18.3996C18.6758 5.09844 18.8996 5.32229 18.8996 5.59844C18.8996 5.87458 18.6758 6.09844 18.3996 6.09844H17.5996V19.7984C17.5996 20.3507 17.1519 20.7984 16.5996 20.7984H7.39961C6.84732 20.7984 6.39961 20.3507 6.39961 19.7984V6.09844H5.59961C5.32347 6.09844 5.09961 5.87458 5.09961 5.59844C5.09961 5.32229 5.32347 5.09844 5.59961 5.09844H6.68547C6.86696 4.9133 7.11987 4.79844 7.39961 4.79844H16.5996Z" fill="#4A3AFF"/>
</svg>
