<svg width="20" height="21" viewBox="0 0 20 21" fill="none" xmlns="http://www.w3.org/2000/svg">
<path fill-rule="evenodd" clip-rule="evenodd" d="M7.33334 1.875C7.0572 1.875 6.83334 2.09886 6.83334 2.375C6.83334 2.65114 7.0572 2.875 7.33334 2.875H12.6667C12.9428 2.875 13.1667 2.65114 13.1667 2.375C13.1667 2.09886 12.9428 1.875 12.6667 1.875H7.33334ZM6.33334 5.54167H13.6667V16.7083L6.33334 16.7083L6.33334 5.54167ZM13.6667 4.375C13.8711 4.375 14.0613 4.43636 14.2196 4.54167H15.3333C15.6095 4.54167 15.8333 4.76552 15.8333 5.04167C15.8333 5.31781 15.6095 5.54167 15.3333 5.54167H14.6667V16.7083C14.6667 17.2606 14.219 17.7083 13.6667 17.7083H6.33334C5.78105 17.7083 5.33334 17.2606 5.33334 16.7083V5.54167H4.66667C4.39053 5.54167 4.16667 5.31781 4.16667 5.04167C4.16667 4.76552 4.39053 4.54167 4.66667 4.54167H5.78037C5.93876 4.43636 6.12888 4.375 6.33334 4.375H13.6667Z" fill="#4A3AFF"/>
</svg>
