<svg width="32" height="32" viewBox="0 0 32 32" fill="none" xmlns="http://www.w3.org/2000/svg">
<mask id="mask0_485_23358" style="mask-type:alpha" maskUnits="userSpaceOnUse" x="0" y="0" width="32" height="32">
<rect width="32" height="32" fill="#D9D9D9"/>
</mask>
<g mask="url(#mask0_485_23358)">
<path d="M15.996 29.9352C12.8078 29.9352 10.1502 28.8475 8.02334 26.6722C5.89645 24.4968 4.83301 21.7615 4.83301 18.4662C4.83301 16.1122 5.76079 13.5685 7.61634 10.8352C9.4719 8.10182 12.2663 5.16849 15.9997 2.03516C19.733 5.16849 22.5275 8.10249 24.383 10.8372C26.2386 13.572 27.1663 16.1148 27.1663 18.4655C27.1663 21.7564 26.1017 24.4907 23.9723 26.6685C21.843 28.8463 19.1842 29.9352 15.996 29.9352ZM15.9967 27.5018C18.4876 27.5018 20.5663 26.642 22.233 24.9225C23.8997 23.2029 24.733 21.047 24.733 18.4548C24.733 16.6862 23.9831 14.6685 22.4833 12.4018C20.9833 10.1352 18.8222 7.75738 16 5.26849C13.1776 7.75738 11.0163 10.1378 9.51634 12.4098C8.01634 14.6816 7.26634 16.7008 7.26634 18.4675C7.26634 21.0568 8.09867 23.2098 9.76334 24.9265C11.4278 26.6434 13.5056 27.5018 15.9967 27.5018ZM11.7663 23.6685H20.2663V21.2352H11.7663V23.6685ZM14.7997 20.3018H17.233V17.2685H20.2663V14.8352H17.233V11.8018H14.7997V14.8352H11.7663V17.2685H14.7997V20.3018Z" fill="#4A3AFF"/>
</g>
</svg>
