<svg width="32" height="32" viewBox="0 0 32 32" fill="none" xmlns="http://www.w3.org/2000/svg">
<mask id="mask0_485_23224" style="mask-type:alpha" maskUnits="userSpaceOnUse" x="0" y="0" width="32" height="32">
<rect width="32" height="32" fill="#D9D9D9"/>
</mask>
<g mask="url(#mask0_485_23224)">
<path d="M5.66233 15.8346C4.82099 15.8346 4.11144 15.5442 3.53366 14.9633C2.95588 14.3824 2.66699 13.6713 2.66699 12.83C2.66699 11.9886 2.95744 11.2791 3.53833 10.7013C4.11921 10.1235 4.83033 9.83464 5.67166 9.83464C6.51299 9.83464 7.22255 10.1251 7.80033 10.706C8.3781 11.2869 8.66699 11.998 8.66699 12.8393C8.66699 13.6806 8.37655 14.3902 7.79566 14.968C7.21477 15.5457 6.50366 15.8346 5.66233 15.8346ZM11.829 10.168C10.9877 10.168 10.2781 9.87752 9.70033 9.29664C9.12255 8.71575 8.83366 8.00464 8.83366 7.1633C8.83366 6.32197 9.1241 5.61241 9.70499 5.03464C10.2859 4.45686 10.997 4.16797 11.8383 4.16797C12.6797 4.16797 13.3892 4.45841 13.967 5.0393C14.5448 5.62019 14.8337 6.3313 14.8337 7.17264C14.8337 8.01397 14.5432 8.72352 13.9623 9.3013C13.3814 9.87908 12.6703 10.168 11.829 10.168ZM20.1623 10.168C19.321 10.168 18.6114 9.87752 18.0337 9.29664C17.4559 8.71575 17.167 8.00464 17.167 7.1633C17.167 6.32197 17.4574 5.61241 18.0383 5.03464C18.6192 4.45686 19.3303 4.16797 20.1717 4.16797C21.013 4.16797 21.7225 4.45841 22.3003 5.0393C22.8781 5.62019 23.167 6.3313 23.167 7.17264C23.167 8.01397 22.8765 8.72352 22.2957 9.3013C21.7148 9.87908 21.0037 10.168 20.1623 10.168ZM26.329 15.8346C25.4877 15.8346 24.7781 15.5442 24.2003 14.9633C23.6225 14.3824 23.3337 13.6713 23.3337 12.83C23.3337 11.9886 23.6241 11.2791 24.205 10.7013C24.7859 10.1235 25.497 9.83464 26.3383 9.83464C27.1797 9.83464 27.8892 10.1251 28.467 10.706C29.0448 11.2869 29.3337 11.998 29.3337 12.8393C29.3337 13.6806 29.0432 14.3902 28.4623 14.968C27.8814 15.5457 27.1703 15.8346 26.329 15.8346ZM8.86699 29.5013C7.93366 29.5013 7.16699 29.151 6.56699 28.4503C5.96699 27.7499 5.66699 26.9224 5.66699 25.968C5.66699 25.0346 5.95033 24.2069 6.51699 23.4846C7.08366 22.7624 7.68921 22.068 8.33366 21.4013C8.82255 20.9124 9.2781 20.3957 9.70033 19.8513C10.1225 19.3069 10.5225 18.7457 10.9003 18.168C11.5448 17.1902 12.267 16.2791 13.067 15.4346C13.867 14.5902 14.8448 14.168 16.0003 14.168C17.1559 14.168 18.1392 14.5902 18.9503 15.4346C19.7614 16.2791 20.4892 17.2013 21.1337 18.2013C21.5114 18.7791 21.9059 19.3346 22.317 19.868C22.7281 20.4013 23.1781 20.9124 23.667 21.4013C24.3114 22.068 24.917 22.7624 25.4837 23.4846C26.0503 24.2069 26.3337 25.0346 26.3337 25.968C26.3337 26.9224 26.0337 27.7499 25.4337 28.4503C24.8337 29.151 24.067 29.5013 23.1337 29.5013C21.9337 29.5013 20.7448 29.4013 19.567 29.2013C18.3892 29.0013 17.2003 28.9013 16.0003 28.9013C14.8003 28.9013 13.6114 29.0013 12.4337 29.2013C11.2559 29.4013 10.067 29.5013 8.86699 29.5013Z" fill="#4A3AFF"/>
</g>
</svg>
