<svg width="24" height="24" viewBox="0 0 24 24" fill="none" xmlns="http://www.w3.org/2000/svg">
<path fill-rule="evenodd" clip-rule="evenodd" d="M2.40039 5.10156C2.12425 5.10156 1.90039 5.32542 1.90039 5.60156C1.90039 5.8777 2.12425 6.10156 2.40039 6.10156H21.6004C21.8765 6.10156 22.1004 5.8777 22.1004 5.60156C22.1004 5.32542 21.8765 5.10156 21.6004 5.10156H2.40039ZM1.90039 12.0016C1.90039 11.7254 2.12425 11.5016 2.40039 11.5016H21.6004C21.8765 11.5016 22.1004 11.7254 22.1004 12.0016C22.1004 12.2777 21.8765 12.5016 21.6004 12.5016H2.40039C2.12425 12.5016 1.90039 12.2777 1.90039 12.0016ZM1.90039 18.4016C1.90039 18.1254 2.12425 17.9016 2.40039 17.9016H21.6004C21.8765 17.9016 22.1004 18.1254 22.1004 18.4016C22.1004 18.6777 21.8765 18.9016 21.6004 18.9016H2.40039C2.12425 18.9016 1.90039 18.6777 1.90039 18.4016Z" fill="#09090B"/>
</svg>
