<svg width="24" height="24" viewBox="0 0 24 24" fill="none" xmlns="http://www.w3.org/2000/svg">
<path fill-rule="evenodd" clip-rule="evenodd" d="M16.6002 10.3992C16.6002 13.8234 13.8244 16.5992 10.4002 16.5992C6.97603 16.5992 4.2002 13.8234 4.2002 10.3992C4.2002 6.97505 6.97603 4.19922 10.4002 4.19922C13.8244 4.19922 16.6002 6.97505 16.6002 10.3992ZM15.1256 15.8317C13.861 16.9326 12.2085 17.5992 10.4002 17.5992C6.42374 17.5992 3.2002 14.3757 3.2002 10.3992C3.2002 6.42277 6.42374 3.19922 10.4002 3.19922C14.3766 3.19922 17.6002 6.42277 17.6002 10.3992C17.6002 12.2075 16.9336 13.8601 15.8327 15.1246L20.3537 19.6457C20.549 19.8409 20.549 20.1575 20.3537 20.3528C20.1585 20.548 19.8419 20.548 19.6466 20.3528L15.1256 15.8317Z" fill="#09090B"/>
</svg>
