<svg width="32" height="32" viewBox="0 0 32 32" fill="none" xmlns="http://www.w3.org/2000/svg">
<mask id="mask0_464_42591" style="mask-type:alpha" maskUnits="userSpaceOnUse" x="0" y="0" width="32" height="32">
<rect width="32" height="32" fill="#D9D9D9"/>
</mask>
<g mask="url(#mask0_464_42591)">
<path d="M8.33301 29.3346C7.13301 29.3346 6.11079 28.9124 5.26634 28.068C4.4219 27.2235 3.99967 26.2013 3.99967 25.0013V13.6346C3.46634 13.1235 2.88856 12.5735 2.26634 11.9846C1.64412 11.3957 1.33301 10.6902 1.33301 9.86797C1.33301 9.35686 1.51634 8.91797 1.88301 8.5513C2.24967 8.18464 2.68856 8.0013 3.19967 8.0013C3.57745 8.0013 3.91079 8.1013 4.19967 8.3013C4.48856 8.5013 4.75523 8.73464 4.99967 9.0013C5.24412 8.73464 5.51634 8.5013 5.81634 8.3013C6.11634 8.1013 6.44412 8.0013 6.79967 8.0013C7.31079 8.0013 7.74967 8.18464 8.11634 8.5513C8.48301 8.91797 8.66634 9.35686 8.66634 9.86797C8.66634 10.6902 8.35523 11.3957 7.73301 11.9846C7.11079 12.5735 6.53301 13.1235 5.99967 13.6346V25.0013C5.99967 25.6457 6.22745 26.1957 6.68301 26.6513C7.13856 27.1069 7.68856 27.3346 8.33301 27.3346C8.97745 27.3346 9.52745 27.1069 9.98301 26.6513C10.4386 26.1957 10.6663 25.6457 10.6663 25.0013V9.16797C10.6663 7.36797 11.2997 5.83464 12.5663 4.56797C13.833 3.3013 15.3663 2.66797 17.1663 2.66797C18.9663 2.66797 20.4997 3.3013 21.7663 4.56797C23.033 5.83464 23.6663 7.36797 23.6663 9.16797V9.4013C25.2663 9.64575 26.6108 10.3902 27.6997 11.6346C28.7886 12.8791 29.333 14.3346 29.333 16.0013V22.668C29.333 24.5124 28.683 26.0846 27.383 27.3846C26.083 28.6846 24.5108 29.3346 22.6663 29.3346C20.8219 29.3346 19.2497 28.6846 17.9497 27.3846C16.6497 26.0846 15.9997 24.5124 15.9997 22.668V16.0013C15.9997 14.3346 16.5441 12.8791 17.633 11.6346C18.7219 10.3902 20.0663 9.64575 21.6663 9.4013V9.16797C21.6663 7.9013 21.233 6.83464 20.3663 5.96797C19.4997 5.1013 18.433 4.66797 17.1663 4.66797C15.8997 4.66797 14.833 5.1013 13.9663 5.96797C13.0997 6.83464 12.6663 7.9013 12.6663 9.16797V25.0013C12.6663 26.2013 12.2441 27.2235 11.3997 28.068C10.5552 28.9124 9.53301 29.3346 8.33301 29.3346ZM22.6663 20.0013C21.933 20.0013 21.3052 20.2624 20.783 20.7846C20.2608 21.3069 19.9997 21.9346 19.9997 22.668C19.9997 23.4013 20.2608 24.0291 20.783 24.5513C21.3052 25.0735 21.933 25.3346 22.6663 25.3346C23.3997 25.3346 24.0275 25.0735 24.5497 24.5513C25.0719 24.0291 25.333 23.4013 25.333 22.668C25.333 21.9346 25.0719 21.3069 24.5497 20.7846C24.0275 20.2624 23.3997 20.0013 22.6663 20.0013Z" fill="#4A3AFF"/>
</g>
</svg>
