<svg width="24" height="24" viewBox="0 0 24 24" fill="none" xmlns="http://www.w3.org/2000/svg">
<path fill-rule="evenodd" clip-rule="evenodd" d="M11.4798 1.25097L11.4589 1.30126L8.89675 7.4614C8.85355 7.56527 8.75587 7.63624 8.64373 7.64523L1.99334 8.17839L1.93905 8.18274L1.60751 8.20932L1.30672 8.23344C1.04073 8.25476 0.93287 8.58671 1.13553 8.76031L1.3647 8.95662L1.6173 9.173L1.65866 9.20843L6.72556 13.5488C6.81099 13.622 6.8483 13.7368 6.8222 13.8462L5.27418 20.3359L5.26154 20.3888L5.18437 20.7124L5.11436 21.0059C5.05244 21.2654 5.33482 21.4706 5.56255 21.3315L5.82006 21.1742L6.10391 21.0008L6.15039 20.9725L11.844 17.4948C11.9401 17.4362 12.0608 17.4362 12.1568 17.4948L17.8505 20.9725L17.8969 21.0008L18.1808 21.1742L18.4383 21.3315C18.666 21.4706 18.9484 21.2654 18.8865 21.0059L18.8165 20.7124L18.7393 20.3888L18.7267 20.3359L17.1786 13.8462C17.1525 13.7368 17.1899 13.622 17.2753 13.5488L22.3422 9.20843L22.3835 9.173L22.6361 8.95662L22.8653 8.76031C23.068 8.58671 22.9601 8.25476 22.6941 8.23344L22.3933 8.20932L22.0618 8.18274L22.0075 8.17839L15.3571 7.64523C15.245 7.63624 15.1473 7.56527 15.1041 7.4614L12.5419 1.30126L12.521 1.25097L12.3933 0.943876L12.2774 0.66526C12.1749 0.418872 11.8259 0.418872 11.7234 0.66526L11.6075 0.943876L11.4798 1.25097ZM12.0004 2.60324L9.82007 7.84543C9.63286 8.29554 9.20957 8.60308 8.72364 8.64203L3.06426 9.09574L7.37611 12.7893C7.74634 13.1064 7.90802 13.6041 7.79491 14.0782L6.47757 19.6008L11.3228 16.6414C11.7388 16.3873 12.262 16.3873 12.6781 16.6414L17.5233 19.6008L16.2059 14.0782C16.0928 13.6041 16.2545 13.1064 16.6247 12.7893L20.9366 9.09574L15.2772 8.64203C14.7913 8.60308 14.368 8.29554 14.1808 7.84543L12.0004 2.60324Z" fill="#09090B"/>
</svg>
