<svg width="24" height="24" viewBox="0 0 24 24" fill="none" xmlns="http://www.w3.org/2000/svg">
<path d="M11.7234 0.66526C11.8259 0.418872 12.1749 0.418872 12.2774 0.66526L15.1041 7.4614C15.1473 7.56527 15.245 7.63624 15.3571 7.64523L22.6941 8.23344C22.9601 8.25476 23.068 8.58671 22.8653 8.76031L17.2753 13.5488C17.1899 13.622 17.1525 13.7368 17.1786 13.8462L18.8865 21.0059C18.9484 21.2655 18.666 21.4706 18.4383 21.3315L12.1568 17.4948C12.0608 17.4362 11.9401 17.4362 11.844 17.4948L5.56255 21.3315C5.33482 21.4706 5.05244 21.2655 5.11436 21.0059L6.8222 13.8462C6.8483 13.7368 6.81099 13.622 6.72555 13.5488L1.13553 8.76031C0.93287 8.58671 1.04073 8.25476 1.30672 8.23344L8.64373 7.64523C8.75587 7.63624 8.85355 7.56527 8.89675 7.4614L11.7234 0.66526Z" fill="#09090B"/>
</svg>
