<svg width="32" height="32" viewBox="0 0 32 32" fill="none" xmlns="http://www.w3.org/2000/svg">
<mask id="mask0_485_23209" style="mask-type:alpha" maskUnits="userSpaceOnUse" x="0" y="0" width="32" height="32">
<rect width="32" height="32" fill="#D9D9D9"/>
</mask>
<g mask="url(#mask0_485_23209)">
<path d="M8.83379 21.6008C8.50557 21.6008 8.22346 21.4823 7.98746 21.2454C7.75168 21.0086 7.63379 20.7252 7.63379 20.3954C7.63379 20.0657 7.75168 19.7786 7.98746 19.5341C8.22346 19.2897 8.50557 19.1674 8.83379 19.1674H11.9338C12.2716 19.1674 12.5616 19.2891 12.8038 19.5324C13.046 19.7758 13.1671 20.0672 13.1671 20.4068C13.1671 20.7366 13.046 21.018 12.8038 21.2511C12.5616 21.4842 12.2716 21.6008 11.9338 21.6008H8.83379ZM8.83379 15.6674C8.50557 15.6674 8.22346 15.549 7.98746 15.3121C7.75168 15.0752 7.63379 14.7919 7.63379 14.4621C7.63379 14.1323 7.75168 13.8452 7.98746 13.6008C8.22346 13.3563 8.50557 13.2341 8.83379 13.2341H24.7338C25.0716 13.2341 25.3616 13.3558 25.6038 13.5991C25.846 13.8424 25.9671 14.1339 25.9671 14.4734C25.9671 14.8032 25.846 15.0847 25.6038 15.3178C25.3616 15.5509 25.0716 15.6674 24.7338 15.6674H8.83379ZM8.83379 9.73411C8.50557 9.73411 8.22346 9.61567 7.98746 9.37878C7.75168 9.14189 7.63379 8.85856 7.63379 8.52878C7.63379 8.199 7.75168 7.91189 7.98746 7.66745C8.22346 7.423 8.50557 7.30078 8.83379 7.30078H24.7338C25.0716 7.30078 25.3616 7.42245 25.6038 7.66578C25.846 7.90912 25.9671 8.20056 25.9671 8.54011C25.9671 8.87011 25.846 9.15156 25.6038 9.38445C25.3616 9.61756 25.0716 9.73411 24.7338 9.73411H8.83379ZM21.6128 26.6674C21.449 26.6674 21.2949 26.6341 21.1505 26.5674C21.006 26.5008 20.8782 26.4119 20.7671 26.3008L16.7005 22.1674C16.456 21.9141 16.3338 21.6286 16.3338 21.3108C16.3338 20.993 16.451 20.7119 16.6855 20.4674C16.9201 20.2452 17.2035 20.1341 17.5355 20.1341C17.8677 20.1341 18.156 20.2452 18.4005 20.4674L21.6671 23.7341L28.6338 16.7674C28.8782 16.523 29.1616 16.4008 29.4838 16.4008C29.806 16.4008 30.0937 16.5119 30.3468 16.7341C30.5603 16.9786 30.6671 17.273 30.6671 17.6174C30.6671 17.9619 30.556 18.2452 30.3338 18.4674L22.4671 26.3341C22.356 26.4452 22.2268 26.5286 22.0795 26.5841C21.9319 26.6397 21.7763 26.6674 21.6128 26.6674ZM3.35079 9.73411C3.01434 9.73411 2.72734 9.61567 2.48979 9.37878C2.25246 9.14189 2.13379 8.85856 2.13379 8.52878C2.13379 8.199 2.25446 7.91189 2.49579 7.66745C2.73712 7.423 3.02601 7.30078 3.36246 7.30078C3.6989 7.30078 3.98379 7.42245 4.21712 7.66578C4.45046 7.90912 4.56712 8.20056 4.56712 8.54011C4.56712 8.87011 4.44846 9.15156 4.21112 9.38445C3.97401 9.61756 3.68723 9.73411 3.35079 9.73411ZM3.35079 15.6674C3.01434 15.6674 2.72734 15.549 2.48979 15.3121C2.25246 15.0752 2.13379 14.7919 2.13379 14.4621C2.13379 14.1323 2.25446 13.8452 2.49579 13.6008C2.73712 13.3563 3.02601 13.2341 3.36246 13.2341C3.6989 13.2341 3.98379 13.3558 4.21712 13.5991C4.45046 13.8424 4.56712 14.1339 4.56712 14.4734C4.63379 14.8694 4.53179 15.1674 4.26112 15.3674C3.99068 15.5674 3.68723 15.6674 3.35079 15.6674ZM3.35079 21.6008C3.01434 21.6008 2.72734 21.4823 2.48979 21.2454C2.25246 21.0086 2.13379 20.7252 2.13379 20.3954C2.13379 20.0657 2.25446 19.7786 2.49579 19.5341C2.73712 19.2897 3.02601 19.1674 3.36246 19.1674C3.6989 19.1674 3.98379 19.2891 4.21712 19.5324C4.45046 19.7758 4.56712 20.0672 4.56712 20.4068C4.56712 20.7366 4.44846 21.018 4.21112 21.2511C3.97401 21.4842 3.68723 21.6008 3.35079 21.6008Z" fill="#702DFF"/>
</g>
</svg>
