<svg width="32" height="32" viewBox="0 0 32 32" fill="none" xmlns="http://www.w3.org/2000/svg">
<mask id="mask0_464_42590" style="mask-type:alpha" maskUnits="userSpaceOnUse" x="0" y="0" width="32" height="32">
<rect width="32" height="32" fill="#D9D9D9"/>
</mask>
<g mask="url(#mask0_464_42590)">
<path d="M14.5665 17.2987L12.2665 14.8653C12.0221 14.5987 11.7221 14.4709 11.3665 14.482C11.011 14.4931 10.711 14.6098 10.4665 14.832C10.1776 15.1209 10.0332 15.4376 10.0332 15.782C10.0332 16.1265 10.1776 16.432 10.4665 16.6987L13.7332 19.8987C13.9554 20.1431 14.2332 20.2653 14.5665 20.2653C14.8999 20.2653 15.1888 20.1431 15.4332 19.8987L21.5999 13.7653C21.8221 13.5431 21.9388 13.2542 21.9499 12.8987C21.961 12.5431 21.8332 12.2431 21.5665 11.9987C21.3221 11.7765 21.0332 11.6709 20.6999 11.682C20.3665 11.6931 20.0888 11.8098 19.8665 12.032L14.5665 17.2987ZM10.7332 29.6987L8.66654 26.132L4.49987 25.2653C4.18876 25.1987 3.93876 25.0376 3.74987 24.782C3.56098 24.5265 3.48876 24.2431 3.5332 23.932L3.99987 19.8987L1.3332 16.7987C1.1332 16.5765 1.0332 16.3098 1.0332 15.9987C1.0332 15.6876 1.1332 15.4098 1.3332 15.1653L3.99987 12.132L3.5332 8.09867C3.48876 7.78756 3.56098 7.50423 3.74987 7.24867C3.93876 6.99312 4.18876 6.83201 4.49987 6.76534L8.66654 5.89867L10.7332 2.29867C10.8888 2.03201 11.1165 1.84312 11.4165 1.73201C11.7165 1.6209 12.0221 1.63201 12.3332 1.76534L15.9999 3.49867L19.6999 1.76534C19.9888 1.65423 20.2832 1.64312 20.5832 1.73201C20.8832 1.8209 21.111 1.99867 21.2665 2.26534L23.3665 5.89867L27.4999 6.76534C27.811 6.83201 28.061 6.99312 28.2499 7.24867C28.4388 7.50423 28.511 7.78756 28.4665 8.09867L27.9999 12.132L30.6665 15.1653C30.8665 15.4098 30.9665 15.6876 30.9665 15.9987C30.9665 16.3098 30.8665 16.5765 30.6665 16.7987L27.9999 19.8987L28.4665 23.932C28.511 24.2431 28.4388 24.5265 28.2499 24.782C28.061 25.0376 27.811 25.1987 27.4999 25.2653L23.3665 26.132L21.2665 29.732C21.111 29.9987 20.8832 30.1765 20.5832 30.2653C20.2832 30.3542 19.9888 30.3431 19.6999 30.232L15.9999 28.4987L12.3332 30.232C12.0221 30.3431 11.7165 30.3487 11.4165 30.2487C11.1165 30.1487 10.8888 29.9653 10.7332 29.6987Z" fill="#4A3AFF"/>
</g>
</svg>
