<svg width="32" height="32" viewBox="0 0 32 32" fill="none" xmlns="http://www.w3.org/2000/svg">
<mask id="mask0_485_23358" style="mask-type:alpha" maskUnits="userSpaceOnUse" x="0" y="0" width="32" height="32">
<rect width="32" height="32" fill="#D9D9D9"/>
</mask>
<g mask="url(#mask0_485_23358)">
<path d="M15.997 29.9352C12.8088 29.9352 10.1512 28.8475 8.02432 26.6722C5.89743 24.4968 4.83398 21.7615 4.83398 18.4662C4.83398 16.1122 5.76176 13.5685 7.61732 10.8352C9.47287 8.10182 12.2673 5.16849 16.0007 2.03516C19.734 5.16849 22.5284 8.10249 24.384 10.8372C26.2395 13.572 27.1673 16.1148 27.1673 18.4655C27.1673 21.7564 26.1027 24.4907 23.9733 26.6685C21.844 28.8463 19.1852 29.9352 15.997 29.9352ZM15.9977 27.5018C18.4885 27.5018 20.5673 26.642 22.234 24.9225C23.9007 23.2029 24.734 21.047 24.734 18.4548C24.734 16.6862 23.9841 14.6685 22.4843 12.4018C20.9843 10.1352 18.8232 7.75738 16.001 5.26849C13.1785 7.75738 11.0173 10.1378 9.51732 12.4098C8.01732 14.6816 7.26732 16.7008 7.26732 18.4675C7.26732 21.0568 8.09965 23.2098 9.76432 24.9265C11.4288 26.6434 13.5065 27.5018 15.9977 27.5018ZM11.7673 23.6685H20.2673V21.2352H11.7673V23.6685ZM14.8007 20.3018H17.234V17.2685H20.2673V14.8352H17.234V11.8018H14.8007V14.8352H11.7673V17.2685H14.8007V20.3018Z" fill="#4A3AFF"/>
</g>
</svg>
