<svg width="48" height="48" viewBox="0 0 48 48" fill="none" xmlns="http://www.w3.org/2000/svg">
<mask id="mask0_212_11811" style="mask-type:alpha" maskUnits="userSpaceOnUse" x="0" y="0" width="48" height="48">
<rect width="48" height="48" fill="#D9D9D9"/>
</mask>
<g mask="url(#mask0_212_11811)">
<path d="M23.9945 44.9008C19.2122 44.9008 15.2258 43.2693 12.0355 40.0063C8.84517 36.7433 7.25 32.6403 7.25 27.6973C7.25 24.1663 8.64167 20.3508 11.425 16.2508C14.2083 12.1508 18.4 7.75078 24 3.05078C29.6 7.75078 33.7917 12.1518 36.575 16.2538C39.3583 20.3561 40.75 24.1703 40.75 27.6963C40.75 32.6326 39.153 36.7341 35.959 40.0008C32.765 43.2675 28.7768 44.9008 23.9945 44.9008ZM17.65 35.5008H30.4V31.8508H17.65V35.5008ZM22.2 30.4508H25.85V25.9008H30.4V22.2508H25.85V17.7008H22.2V22.2508H17.65V25.9008H22.2V30.4508Z" fill="#F64D4D"/>
</g>
</svg>
