<svg width="48" height="48" viewBox="0 0 48 48" fill="none" xmlns="http://www.w3.org/2000/svg">
<mask id="mask0_574_26537" style="mask-type:alpha" maskUnits="userSpaceOnUse" x="0" y="0" width="48" height="48">
<rect width="48" height="48" fill="#D9D9D9"/>
</mask>
<g mask="url(#mask0_574_26537)">
<path d="M1.69995 41.15V32.8C1.69995 31.7333 2.07495 30.8333 2.82495 30.1C3.57495 29.3667 4.46662 29 5.49995 29H12.55C13.05 29 13.525 29.1167 13.975 29.35C14.425 29.5833 14.8 29.9167 15.1 30.35C16.1333 31.8167 17.4333 32.9583 19 33.775C20.5666 34.5917 22.2333 35 24 35C25.7666 35 27.4416 34.5917 29.025 33.775C30.6083 32.9583 31.9333 31.8167 33 30.35C33.2666 29.9167 33.6166 29.5833 34.05 29.35C34.4833 29.1167 34.95 29 35.45 29H42.5C43.5666 29 44.475 29.3667 45.225 30.1C45.975 30.8333 46.35 31.7333 46.35 32.8V41.15H32.7V35.55C31.5 36.55 30.1583 37.3167 28.675 37.85C27.1916 38.3833 25.6333 38.65 24 38.65C22.4 38.65 20.8583 38.3833 19.375 37.85C17.8916 37.3167 16.55 36.5667 15.35 35.6V41.15H1.69995ZM24 31.5C22.9 31.5 21.8583 31.2417 20.875 30.725C19.8916 30.2083 19.0833 29.5 18.45 28.6C17.85 27.7667 17.1416 27.1 16.325 26.6C15.5083 26.1 14.6333 25.7667 13.7 25.6C14.8 24.6667 16.3583 23.9417 18.375 23.425C20.3916 22.9083 22.2666 22.65 24 22.65C25.7666 22.65 27.65 22.9083 29.65 23.425C31.65 23.9417 33.2333 24.6667 34.4 25.6C33.4333 25.7667 32.5416 26.1 31.725 26.6C30.9083 27.1 30.2166 27.7667 29.65 28.6C29.0166 29.5 28.2 30.2083 27.2 30.725C26.2 31.2417 25.1333 31.5 24 31.5ZM7.99995 24.5C6.39995 24.5 5.03328 23.925 3.89995 22.775C2.76662 21.625 2.19995 20.25 2.19995 18.65C2.19995 17.05 2.76662 15.6833 3.89995 14.55C5.03328 13.4167 6.39995 12.85 7.99995 12.85C9.63328 12.85 11.0166 13.4167 12.15 14.55C13.2833 15.6833 13.85 17.05 13.85 18.65C13.85 20.25 13.2833 21.625 12.15 22.775C11.0166 23.925 9.63328 24.5 7.99995 24.5ZM40 24.5C38.4 24.5 37.0333 23.925 35.9 22.775C34.7666 21.625 34.2 20.25 34.2 18.65C34.2 17.05 34.7666 15.6833 35.9 14.55C37.0333 13.4167 38.4 12.85 40 12.85C41.6333 12.85 43.0166 13.4167 44.15 14.55C45.2833 15.6833 45.85 17.05 45.85 18.65C45.85 20.25 45.2833 21.625 44.15 22.775C43.0166 23.925 41.6333 24.5 40 24.5ZM24 18.15C22.4 18.15 21.0333 17.5833 19.9 16.45C18.7666 15.3167 18.2 13.95 18.2 12.35C18.2 10.7167 18.7666 9.33333 19.9 8.2C21.0333 7.06667 22.4 6.5 24 6.5C25.6333 6.5 27.0166 7.06667 28.15 8.2C29.2833 9.33333 29.85 10.7167 29.85 12.35C29.85 13.95 29.2833 15.3167 28.15 16.45C27.0166 17.5833 25.6333 18.15 24 18.15Z" fill="#170F49"/>
</g>
</svg>
