<svg width="48" height="48" viewBox="0 0 48 48" fill="none" xmlns="http://www.w3.org/2000/svg">
<mask id="mask0_574_26546" style="mask-type:alpha" maskUnits="userSpaceOnUse" x="0" y="0" width="48" height="48">
<rect width="48" height="48" fill="#D9D9D9"/>
</mask>
<g mask="url(#mask0_574_26546)">
<path d="M25.4 44.3L29.35 40.65C33.05 37.2833 35.5333 34.6417 36.8 32.725C38.0666 30.8083 38.7 28.8117 38.7 26.735C38.7 25.845 38.5416 24.9833 38.225 24.15C37.9083 23.3167 37.4833 22.4833 36.95 21.65H40.7C41.6906 21.65 42.5466 22.0107 43.268 22.732C43.9893 23.453 44.35 24.309 44.35 25.3V44.3H25.4ZM3.69995 44.3V25.3C3.69995 24.309 4.04562 23.453 4.73695 22.732C5.42795 22.0107 6.29895 21.65 7.34995 21.65H11.05C10.481 22.4567 10.0553 23.2833 9.77295 24.13C9.49095 24.9767 9.34995 25.8432 9.34995 26.7295C9.34995 28.8765 9.93328 30.8667 11.1 32.7C12.2666 34.5333 14.7666 37.1833 18.6 40.65L22.6 44.3H3.69995ZM39 19.65C37.2323 19.65 35.7405 19.0422 34.5245 17.8265C33.3081 16.6108 32.7 15.1188 32.7 13.3505C32.7 11.6168 33.3078 10.125 34.5235 8.875C35.7391 7.625 37.2311 7 38.9995 7C40.7331 7 42.225 7.61733 43.475 8.852C44.725 10.0867 45.35 11.586 45.35 13.35C45.35 15.1177 44.7326 16.6095 43.498 17.8255C42.2633 19.0418 40.764 19.65 39 19.65ZM24.2665 17.4C22.2061 17.4 20.4716 16.693 19.063 15.279C17.6543 13.865 16.95 12.128 16.95 10.068C16.95 8.043 17.654 6.31717 19.062 4.8905C20.4696 3.4635 22.199 2.75 24.25 2.75C26.28 2.75 28.0125 3.4635 29.4475 4.8905C30.8825 6.31717 31.6 8.043 31.6 10.068C31.6 12.128 30.8841 13.865 29.4525 15.279C28.0205 16.693 26.2918 17.4 24.2665 17.4ZM13 26.75C13 28.2833 13.75 30 15.25 31.9C16.75 33.8 19.675 36.7333 24.025 40.7C28.3083 36.8 31.2166 33.8893 32.75 31.968C34.2833 30.0463 35.05 28.307 35.05 26.75C35.05 25.1167 34.4961 23.7417 33.3885 22.625C32.2805 21.5083 30.948 20.95 29.391 20.95C28.497 20.95 27.6848 21.139 26.9545 21.517C26.2241 21.895 25.5781 22.3393 25.0165 22.85L24.05 23.75L23 22.8C22.3666 22.3 21.675 21.8667 20.925 21.5C20.175 21.1333 19.4 20.95 18.6 20.95C16.9816 20.95 15.6436 21.5167 14.586 22.65C13.5286 23.7833 13 25.15 13 26.75ZM9.49995 19.65C7.73262 19.65 6.24078 19.0422 5.02445 17.8265C3.80812 16.6108 3.19995 15.1188 3.19995 13.3505C3.19995 11.6168 3.80778 10.125 5.02345 8.875C6.23912 7.625 7.73112 7 9.49945 7C11.2331 7 12.725 7.61733 13.975 8.852C15.225 10.0867 15.85 11.586 15.85 13.35C15.85 15.1177 15.2326 16.6095 13.998 17.8255C12.7633 19.0418 11.264 19.65 9.49995 19.65Z" fill="white"/>
</g>
</svg>
