<svg width="48" height="48" viewBox="0 0 48 48" fill="none" xmlns="http://www.w3.org/2000/svg">
<mask id="mask0_574_26540" style="mask-type:alpha" maskUnits="userSpaceOnUse" x="0" y="0" width="48" height="48">
<rect width="48" height="48" fill="white"/>
</mask>
<g mask="url(#mask0_574_26540)">
<path d="M3.20001 45.0504V6.55039C3.20001 5.59306 3.56901 4.74539 4.30701 4.00739C5.04501 3.26939 5.89268 2.90039 6.85001 2.90039H41.15C42.1074 2.90039 42.955 3.26939 43.693 4.00739C44.431 4.74539 44.8 5.59306 44.8 6.55039V32.7504C44.8 33.7081 44.431 34.5557 43.693 35.2934C42.955 36.0314 42.1074 36.4004 41.15 36.4004H11.85L3.20001 45.0504ZM23.9945 29.6004C24.5315 29.6004 24.9833 29.4189 25.35 29.0559C25.7167 28.6926 25.9 28.2426 25.9 27.7059C25.9 27.1689 25.7185 26.7171 25.3555 26.3504C24.9922 25.9837 24.5422 25.8004 24.0055 25.8004C23.4685 25.8004 23.0167 25.9819 22.65 26.3449C22.2833 26.7082 22.1 27.1582 22.1 27.6949C22.1 28.2319 22.2815 28.6837 22.6445 29.0504C23.0078 29.4171 23.4578 29.6004 23.9945 29.6004ZM22.2 21.8004H25.85V9.20039H22.2V21.8004Z" fill="white"/>
</g>
</svg>
