<svg width="24" height="24" viewBox="0 0 24 24" fill="none" xmlns="http://www.w3.org/2000/svg">
<path fill-rule="evenodd" clip-rule="evenodd" d="M8.87057 0.167103C9.0062 0.365 8.98511 0.660039 8.82347 0.82609C8.66183 0.992141 8.42084 0.966325 8.28521 0.768428C8.14958 0.57053 8.17066 0.275492 8.33231 0.109441C8.49395 -0.0566104 8.73494 -0.030794 8.87057 0.167103ZM4.056 10.6072L6.69013 7.90128L9.32426 5.19532L8.46626 1.0326L7.48507 4.69491L4.23809 4.31847C4.39727 4.15192 4.41737 3.85907 4.28249 3.66228C4.14686 3.46438 3.90587 3.43857 3.74423 3.60462C3.58259 3.77067 3.5615 4.06571 3.69713 4.2636C3.83237 4.46093 4.07237 4.48717 4.234 4.32269L3.97289 8.30285L0.856551 8.84981L4.056 10.6072ZM0.674449 8.58717C0.81008 8.78506 0.788994 9.0801 0.62735 9.24615C0.465707 9.4122 0.224718 9.38639 0.0890866 9.18849C-0.0465448 8.99059 -0.0254579 8.69555 0.136186 8.5295C0.297829 8.36345 0.538818 8.38927 0.674449 8.58717ZM6.32562 13.5349V24H19.1587V17.4152L21.5503 15.1654C22.3281 14.4338 22.9309 13.6061 23.3586 12.6824C23.7864 11.7587 24.0003 10.7756 24.0003 9.73298C24.0003 8.69039 23.7864 7.70725 23.3586 6.78355C22.9309 5.85986 22.1881 4.63301 22.1881 4.63301C22.1881 4.63301 20.7062 2.05076 19.1587 2.05076C17.6112 2.05076 14.4921 6.4406 14.4921 6.4406H9.82556L8.45475 7.73011L7.87143 8.27884L7.87491 8.28206L6.0048 10.0622C5.79091 10.2634 5.62564 10.4966 5.50897 10.7618C5.39231 11.0271 5.33398 11.306 5.33398 11.5987C5.33398 11.8913 5.39231 12.1748 5.50897 12.4492C5.62564 12.7236 5.79091 12.9613 6.0048 13.1625C6.0048 13.1625 6.12252 13.3011 6.32562 13.5349ZM8.65891 16.1021V21.805H16.8254V16.5098L19.8879 13.629C20.4517 13.0985 20.8892 12.5041 21.2003 11.8456C21.5114 11.1871 21.8043 10.5652 21.8043 9.81529C21.8043 8.20127 21.2552 7.21527 21.2552 7.21527L20.7062 5.92414C20.7062 5.92414 20.1572 4.63301 19.0592 4.63301C17.9612 4.63301 15.4546 8.63552 15.4546 8.63552H10.788L10.1093 9.274L12.0713 11.1048C12.6158 11.6169 13.0387 12.2068 13.3401 12.8745C13.6415 13.5421 13.7921 14.2417 13.7921 14.9733C13.7921 15.705 13.6463 16.4046 13.3547 17.0722C13.2836 17.235 13.2356 17.4231 13.1867 17.6146C13.0351 18.2089 12.8752 18.8354 11.992 18.8354C11.4222 18.8354 9.98327 17.4851 8.65891 16.1021Z" fill="#702DFF"/>
</svg>
