<svg width="32" height="32" viewBox="0 0 32 32" fill="none" xmlns="http://www.w3.org/2000/svg">
<path fill-rule="evenodd" clip-rule="evenodd" d="M11.8274 0.222804C12.0082 0.486667 11.9801 0.880052 11.7646 1.10145C11.5491 1.32285 11.2278 1.28843 11.0469 1.02457C10.8661 0.760707 10.8942 0.367323 11.1097 0.145921C11.3252 -0.0754805 11.6466 -0.0410587 11.8274 0.222804ZM5.40839 14.1428L8.92057 10.5349L12.4327 6.92692L11.2887 1.37662L9.98048 6.2597L5.65112 5.75778C5.86326 5.53569 5.89002 5.14531 5.71022 4.88296C5.52938 4.6191 5.20806 4.58468 4.99253 4.80608C4.77701 5.02748 4.74889 5.42086 4.92974 5.68473C5.11011 5.9479 5.43022 5.98283 5.64574 5.76333L5.29758 11.0703L1.14246 11.7996L5.40839 14.1428ZM0.899672 11.4533C1.08051 11.7171 1.0524 12.1105 0.836874 12.3319C0.621349 12.5533 0.300031 12.5189 0.119189 12.255C-0.0616528 11.9912 -0.0335369 11.5978 0.181988 11.3764C0.397512 11.155 0.718831 11.1894 0.899672 11.4533ZM8.43426 18.0466V31.9999H25.545V23.2202L28.7339 20.2205C29.7709 19.245 30.5746 18.1414 31.1449 16.9098C31.7153 15.6782 32.0005 14.3674 32.0005 12.9773C32.0005 11.5871 31.7153 10.2763 31.1449 9.0447C30.5746 7.81311 29.5842 6.17732 29.5842 6.17732C29.5842 6.17732 27.6084 2.7343 25.545 2.7343C23.4817 2.7343 19.3229 8.58743 19.3229 8.58743H13.1008L11.2731 10.3068L10.4953 11.0384L10.5 11.0427L8.00649 13.4163C7.72131 13.6845 7.50094 13.9955 7.34539 14.3491C7.18984 14.7027 7.11206 15.0746 7.11206 15.4648C7.11206 15.855 7.18984 16.2331 7.34539 16.5989C7.50094 16.9647 7.72131 17.2817 8.00649 17.55C8.00649 17.55 8.16345 17.7348 8.43426 18.0466ZM11.5453 21.4695V29.0733H22.434V22.013L26.5172 18.1719C27.2691 17.4647 27.8524 16.672 28.2672 15.7941C28.682 14.9161 29.0724 14.0869 29.0724 13.087C29.0724 10.935 28.3404 9.62033 28.3404 9.62033L27.6084 7.89882C27.6084 7.89882 26.8764 6.17732 25.4124 6.17732C23.9483 6.17732 20.6062 11.514 20.6062 11.514H14.3841L13.4792 12.3653L16.0952 14.8064C16.8211 15.4892 17.385 16.2757 17.7869 17.1659C18.1887 18.0561 18.3896 18.9889 18.3896 19.9644C18.3896 20.9399 18.1952 21.8728 17.8063 22.7629C17.7115 22.9799 17.6475 23.2308 17.5823 23.4862C17.3802 24.2784 17.167 25.1139 15.9894 25.1139C15.2297 25.1139 13.3111 23.3135 11.5453 21.4695Z" fill="#702DFF"/>
</svg>
