<svg width="48" height="48" viewBox="0 0 48 48" fill="none" xmlns="http://www.w3.org/2000/svg">
<mask id="mask0_574_26543" style="mask-type:alpha" maskUnits="userSpaceOnUse" x="0" y="0" width="48" height="48">
<rect width="48" height="48" fill="#D9D9D9"/>
</mask>
<g mask="url(#mask0_574_26543)">
<path d="M21.3 34.4496H26.8V26.6996H34.45V21.1996H26.8V13.5496H21.3V21.1996H13.55V26.6996H21.3V34.4496ZM8.99998 42.6496C8.04231 42.6496 7.19464 42.2806 6.45698 41.5426C5.71898 40.8049 5.34998 39.9573 5.34998 38.9996V8.99961C5.34998 8.04228 5.71898 7.19461 6.45698 6.45661C7.19464 5.71861 8.04231 5.34961 8.99998 5.34961H39C39.9573 5.34961 40.805 5.71861 41.543 6.45661C42.281 7.19461 42.65 8.04228 42.65 8.99961V38.9996C42.65 39.9573 42.281 40.8049 41.543 41.5426C40.805 42.2806 39.9573 42.6496 39 42.6496H8.99998Z" fill="#4A3AFF"/>
</g>
</svg>
