<svg width="32" height="32" viewBox="0 0 32 32" fill="none" xmlns="http://www.w3.org/2000/svg">
<mask id="mask0_571_26508" style="mask-type:alpha" maskUnits="userSpaceOnUse" x="0" y="0" width="32" height="32">
<rect width="32" height="32" fill="#D9D9D9"/>
</mask>
<g mask="url(#mask0_571_26508)">
<path d="M8.33398 29.3346C7.13398 29.3346 6.11176 28.9124 5.26732 28.068C4.42287 27.2235 4.00065 26.2013 4.00065 25.0013V13.6346C3.46732 13.1235 2.88954 12.5735 2.26732 11.9846C1.6451 11.3957 1.33398 10.6902 1.33398 9.86797C1.33398 9.35686 1.51732 8.91797 1.88398 8.5513C2.25065 8.18464 2.68954 8.0013 3.20065 8.0013C3.57843 8.0013 3.91176 8.1013 4.20065 8.3013C4.48954 8.5013 4.75621 8.73464 5.00065 9.0013C5.2451 8.73464 5.51732 8.5013 5.81732 8.3013C6.11732 8.1013 6.4451 8.0013 6.80065 8.0013C7.31176 8.0013 7.75065 8.18464 8.11732 8.5513C8.48398 8.91797 8.66732 9.35686 8.66732 9.86797C8.66732 10.6902 8.35621 11.3957 7.73398 11.9846C7.11176 12.5735 6.53398 13.1235 6.00065 13.6346V25.0013C6.00065 25.6457 6.22843 26.1957 6.68398 26.6513C7.13954 27.1069 7.68954 27.3346 8.33398 27.3346C8.97843 27.3346 9.52843 27.1069 9.98398 26.6513C10.4395 26.1957 10.6673 25.6457 10.6673 25.0013V9.16797C10.6673 7.36797 11.3007 5.83464 12.5673 4.56797C13.834 3.3013 15.3673 2.66797 17.1673 2.66797C18.9673 2.66797 20.5007 3.3013 21.7673 4.56797C23.034 5.83464 23.6673 7.36797 23.6673 9.16797V9.4013C25.2673 9.64575 26.6118 10.3902 27.7007 11.6346C28.7895 12.8791 29.334 14.3346 29.334 16.0013V22.668C29.334 24.5124 28.684 26.0846 27.384 27.3846C26.084 28.6846 24.5118 29.3346 22.6673 29.3346C20.8229 29.3346 19.2507 28.6846 17.9507 27.3846C16.6507 26.0846 16.0007 24.5124 16.0007 22.668V16.0013C16.0007 14.3346 16.5451 12.8791 17.634 11.6346C18.7229 10.3902 20.0673 9.64575 21.6673 9.4013V9.16797C21.6673 7.9013 21.234 6.83464 20.3673 5.96797C19.5007 5.1013 18.434 4.66797 17.1673 4.66797C15.9007 4.66797 14.834 5.1013 13.9673 5.96797C13.1007 6.83464 12.6673 7.9013 12.6673 9.16797V25.0013C12.6673 26.2013 12.2451 27.2235 11.4007 28.068C10.5562 28.9124 9.53398 29.3346 8.33398 29.3346ZM22.6673 20.0013C21.934 20.0013 21.3062 20.2624 20.784 20.7846C20.2618 21.3069 20.0007 21.9346 20.0007 22.668C20.0007 23.4013 20.2618 24.0291 20.784 24.5513C21.3062 25.0735 21.934 25.3346 22.6673 25.3346C23.4007 25.3346 24.0284 25.0735 24.5507 24.5513C25.0729 24.0291 25.334 23.4013 25.334 22.668C25.334 21.9346 25.0729 21.3069 24.5507 20.7846C24.0284 20.2624 23.4007 20.0013 22.6673 20.0013Z" fill="#4A3AFF"/>
</g>
</svg>
