<svg width="32" height="32" viewBox="0 0 32 32" fill="none" xmlns="http://www.w3.org/2000/svg">
<mask id="mask0_571_26492" style="mask-type:alpha" maskUnits="userSpaceOnUse" x="0" y="0" width="32" height="32">
<rect width="32" height="32" fill="#D9D9D9"/>
</mask>
<g mask="url(#mask0_571_26492)">
<path d="M8.83281 21.6008C8.50459 21.6008 8.22248 21.4823 7.98648 21.2454C7.7507 21.0086 7.63281 20.7252 7.63281 20.3954C7.63281 20.0657 7.7507 19.7786 7.98648 19.5341C8.22248 19.2897 8.50459 19.1674 8.83281 19.1674H11.9328C12.2706 19.1674 12.5606 19.2891 12.8028 19.5324C13.045 19.7758 13.1661 20.0672 13.1661 20.4068C13.1661 20.7366 13.045 21.018 12.8028 21.2511C12.5606 21.4842 12.2706 21.6008 11.9328 21.6008H8.83281ZM8.83281 15.6674C8.50459 15.6674 8.22248 15.549 7.98648 15.3121C7.7507 15.0752 7.63281 14.7919 7.63281 14.4621C7.63281 14.1323 7.7507 13.8452 7.98648 13.6008C8.22248 13.3563 8.50459 13.2341 8.83281 13.2341H24.7328C25.0706 13.2341 25.3606 13.3558 25.6028 13.5991C25.845 13.8424 25.9661 14.1339 25.9661 14.4734C25.9661 14.8032 25.845 15.0847 25.6028 15.3178C25.3606 15.5509 25.0706 15.6674 24.7328 15.6674H8.83281ZM8.83281 9.73411C8.50459 9.73411 8.22248 9.61567 7.98648 9.37878C7.7507 9.14189 7.63281 8.85856 7.63281 8.52878C7.63281 8.199 7.7507 7.91189 7.98648 7.66745C8.22248 7.423 8.50459 7.30078 8.83281 7.30078H24.7328C25.0706 7.30078 25.3606 7.42245 25.6028 7.66578C25.845 7.90912 25.9661 8.20056 25.9661 8.54011C25.9661 8.87011 25.845 9.15156 25.6028 9.38445C25.3606 9.61756 25.0706 9.73411 24.7328 9.73411H8.83281ZM21.6118 26.6674C21.448 26.6674 21.2939 26.6341 21.1495 26.5674C21.005 26.5008 20.8773 26.4119 20.7661 26.3008L16.6995 22.1674C16.455 21.9141 16.3328 21.6286 16.3328 21.3108C16.3328 20.993 16.45 20.7119 16.6845 20.4674C16.9191 20.2452 17.2025 20.1341 17.5345 20.1341C17.8667 20.1341 18.155 20.2452 18.3995 20.4674L21.6661 23.7341L28.6328 16.7674C28.8773 16.523 29.1606 16.4008 29.4828 16.4008C29.805 16.4008 30.0927 16.5119 30.3458 16.7341C30.5594 16.9786 30.6661 17.273 30.6661 17.6174C30.6661 17.9619 30.555 18.2452 30.3328 18.4674L22.4661 26.3341C22.355 26.4452 22.2258 26.5286 22.0785 26.5841C21.9309 26.6397 21.7754 26.6674 21.6118 26.6674ZM3.34981 9.73411C3.01337 9.73411 2.72637 9.61567 2.48881 9.37878C2.25148 9.14189 2.13281 8.85856 2.13281 8.52878C2.13281 8.199 2.25348 7.91189 2.49481 7.66745C2.73615 7.423 3.02503 7.30078 3.36148 7.30078C3.69792 7.30078 3.98281 7.42245 4.21615 7.66578C4.44948 7.90912 4.56615 8.20056 4.56615 8.54011C4.56615 8.87011 4.44748 9.15156 4.21015 9.38445C3.97303 9.61756 3.68626 9.73411 3.34981 9.73411ZM3.34981 15.6674C3.01337 15.6674 2.72637 15.549 2.48881 15.3121C2.25148 15.0752 2.13281 14.7919 2.13281 14.4621C2.13281 14.1323 2.25348 13.8452 2.49481 13.6008C2.73615 13.3563 3.02503 13.2341 3.36148 13.2341C3.69792 13.2341 3.98281 13.3558 4.21615 13.5991C4.44948 13.8424 4.56615 14.1339 4.56615 14.4734C4.63281 14.8694 4.53081 15.1674 4.26015 15.3674C3.9897 15.5674 3.68626 15.6674 3.34981 15.6674ZM3.34981 21.6008C3.01337 21.6008 2.72637 21.4823 2.48881 21.2454C2.25148 21.0086 2.13281 20.7252 2.13281 20.3954C2.13281 20.0657 2.25348 19.7786 2.49481 19.5341C2.73615 19.2897 3.02503 19.1674 3.36148 19.1674C3.69792 19.1674 3.98281 19.2891 4.21615 19.5324C4.44948 19.7758 4.56615 20.0672 4.56615 20.4068C4.56615 20.7366 4.44748 21.018 4.21015 21.2511C3.97303 21.4842 3.68626 21.6008 3.34981 21.6008Z" fill="#702DFF"/>
</g>
</svg>
