<svg width="40" height="40" viewBox="0 0 40 40" fill="none" xmlns="http://www.w3.org/2000/svg">
<path fill-rule="evenodd" clip-rule="evenodd" d="M26.0622 26.9469C25.1401 30.3414 26.0409 34.8625 23.051 36.614C19.9196 38.4484 15.627 36.8987 12.1772 35.0805C8.90943 33.3583 6.35891 30.5022 4.98857 27.0944C3.65378 23.7751 3.77831 20.2483 4.93574 17.0725C6.13062 13.794 7.91978 10.1592 11.3918 9.52494C14.7066 8.91941 17.3848 12.4809 20.4736 14.2341C23.1 15.7249 26.66 16.1272 27.8691 18.8776C29.0813 21.6351 26.8109 24.1906 26.0622 26.9469Z" fill="#EDEBFF"/>
<path fill-rule="evenodd" clip-rule="evenodd" d="M24.3973 4.06674C25.319 5.76803 24.7642 7.73691 23.5634 9.12684C22.3079 10.5801 20.4223 11.5912 18.6325 10.7394C16.7881 9.86161 16.0101 7.66182 16.2121 5.62811C16.4059 3.67699 17.6687 2.04049 19.5318 1.68509C21.4287 1.32325 23.4273 2.27638 24.3973 4.06674Z" fill="#EDEBFF"/>
<path fill-rule="evenodd" clip-rule="evenodd" d="M34.3026 9.48062C34.8558 11.3287 33.895 13.105 32.4176 14.1781C30.8729 15.3 28.7987 15.8544 27.21 14.6322C25.5728 13.3726 25.266 11.0755 25.8921 9.15778C26.4928 7.31795 28.0832 6.02075 29.9976 6.09424C31.9466 6.16905 33.7203 7.53579 34.3026 9.48062Z" fill="#EDEBFF"/>
<path fill-rule="evenodd" clip-rule="evenodd" d="M38.8694 20.9417C38.3703 22.6413 36.664 23.4792 34.8962 23.5071C33.0479 23.5363 31.0573 22.8518 30.3825 21.0757C29.6872 19.2454 30.6205 17.3358 32.1247 16.2121C33.5678 15.1339 35.5441 14.9959 37.0793 16.0724C38.6423 17.1685 39.3946 19.153 38.8694 20.9417Z" fill="#EDEBFF"/>
<path fill-rule="evenodd" clip-rule="evenodd" d="M35.7431 31.5607C34.9891 33.2608 33.095 33.8729 31.2482 33.6286C29.3174 33.3731 27.3363 32.3493 26.8772 30.3877C26.404 28.3662 27.6397 26.5138 29.3624 25.5714C31.0151 24.6672 33.0943 24.8287 34.5468 26.192C36.0255 27.58 36.5367 29.7716 35.7431 31.5607Z" fill="#EDEBFF"/>
</svg>
