<svg width="38" height="38" viewBox="0 0 38 38" fill="none" xmlns="http://www.w3.org/2000/svg">
<circle cx="19" cy="19" r="19" fill="#D3BEFF"/>
<mask id="mask0_1009_40120" style="mask-type:alpha" maskUnits="userSpaceOnUse" x="7" y="7" width="24" height="24">
<rect x="7.125" y="7.125" width="23.75" height="23.75" fill="#D9D9D9"/>
</mask>
<g mask="url(#mask0_1009_40120)">
<path d="M11.9242 28.8952V19.123H13.9033V26.916H20.8304V22.1413L23.4281 19.5436C23.9064 19.0653 24.2775 18.5293 24.5413 17.9355C24.8052 17.3418 24.9372 16.7068 24.9372 16.0306C24.9372 15.3709 24.8011 14.7441 24.529 14.1504C24.2568 13.5566 23.8899 13.0206 23.4281 12.5423L22.8096 11.8991L19.6676 15.041H15.7093L14.6455 16.1048L13.2354 14.7194L14.8929 13.0618H18.8512L22.8096 9.10352L24.8382 11.1322C25.4979 11.7919 26.0092 12.5382 26.3721 13.3711C26.7349 14.204 26.9163 15.0905 26.9163 16.0306C26.9163 16.9707 26.7349 17.8572 26.3721 18.6901C26.0092 19.523 25.4979 20.2693 24.8382 20.929L22.8096 22.9577V28.8952H11.9242ZM16.7979 24.2689L11.652 19.123C11.4706 18.9416 11.3304 18.7272 11.2314 18.4798C11.1325 18.2324 11.083 17.9768 11.083 17.7129C11.083 17.449 11.1325 17.1975 11.2314 16.9583C11.3304 16.7192 11.4706 16.5089 11.652 16.3275L13.7301 14.2246L16.7979 17.2676C17.2597 17.7294 17.6184 18.2613 17.874 18.8633C18.1297 19.4653 18.2575 20.0961 18.2575 20.7559C18.2575 21.4156 18.1338 22.0464 17.8864 22.6484C17.639 23.2504 17.2762 23.7906 16.7979 24.2689Z" fill="white"/>
</g>
</svg>
