<svg width="32" height="32" viewBox="0 0 32 32" fill="none" xmlns="http://www.w3.org/2000/svg">
<circle cx="16" cy="16" r="16" fill="#D3BEFF"/>
<mask id="mask0_1009_40119" style="mask-type:alpha" maskUnits="userSpaceOnUse" x="6" y="6" width="20" height="20">
<rect x="6" y="6" width="20" height="20" fill="#D9D9D9"/>
</mask>
<g mask="url(#mask0_1009_40119)">
<path d="M10.0413 24.3327V16.1035H11.708V22.666H17.5413V18.6452L19.7288 16.4577C20.1316 16.0549 20.4441 15.6035 20.6663 15.1035C20.8886 14.6035 20.9997 14.0688 20.9997 13.4993C20.9997 12.9438 20.8851 12.416 20.6559 11.916C20.4268 11.416 20.1177 10.9646 19.7288 10.5618L19.208 10.0202L16.5622 12.666H13.2288L12.333 13.5618L11.1455 12.3952L12.5413 10.9993H15.8747L19.208 7.66602L20.9163 9.37435C21.4719 9.9299 21.9025 10.5584 22.208 11.2598C22.5136 11.9612 22.6663 12.7077 22.6663 13.4993C22.6663 14.291 22.5136 15.0375 22.208 15.7389C21.9025 16.4403 21.4719 17.0688 20.9163 17.6243L19.208 19.3327V24.3327H10.0413ZM14.1455 20.4368L9.81217 16.1035C9.6594 15.9507 9.54134 15.7702 9.45801 15.5618C9.37467 15.3535 9.33301 15.1382 9.33301 14.916C9.33301 14.6938 9.37467 14.482 9.45801 14.2806C9.54134 14.0792 9.6594 13.9021 9.81217 13.7493L11.5622 11.9785L14.1455 14.541C14.5344 14.9299 14.8365 15.3778 15.0518 15.8848C15.267 16.3917 15.3747 16.923 15.3747 17.4785C15.3747 18.0341 15.2705 18.5653 15.0622 19.0723C14.8538 19.5792 14.5483 20.0341 14.1455 20.4368Z" fill="white"/>
</g>
</svg>
