<svg width="122" height="122" viewBox="0 0 122 122" fill="none" xmlns="http://www.w3.org/2000/svg">
<rect width="122" height="122" rx="4" fill="#EFF0F7"/>
<path fill-rule="evenodd" clip-rule="evenodd" d="M40 41C40 40.4477 40.4477 40 41 40H53C53.5523 40 54 40.4477 54 41C54 41.5523 53.5523 42 53 42H42V53C42 53.5523 41.5523 54 41 54C40.4477 54 40 53.5523 40 53V41ZM62 52C62 51.4477 61.5523 51 61 51C60.4477 51 60 51.4477 60 52V60H52C51.4477 60 51 60.4477 51 61C51 61.5523 51.4477 62 52 62H60V70C60 70.5523 60.4477 71 61 71C61.5523 71 62 70.5523 62 70V62H70C70.5523 62 71 61.5523 71 61C71 60.4477 70.5523 60 70 60H62V52ZM82 41C82 40.4477 81.5523 40 81 40H69C68.4477 40 68 40.4477 68 41C68 41.5523 68.4477 42 69 42L80 42V53C80 53.5523 80.4477 54 81 54C81.5523 54 82 53.5523 82 53V41ZM82 81C82 81.5523 81.5523 82 81 82H69C68.4477 82 68 81.5523 68 81C68 80.4477 68.4477 80 69 80H80V69C80 68.4477 80.4477 68 81 68C81.5523 68 82 68.4477 82 69V81ZM40 81C40 81.5523 40.4477 82 41 82H53C53.5523 82 54 81.5523 54 81C54 80.4477 53.5523 80 53 80H42L42 69C42 68.4477 41.5523 68 41 68C40.4477 68 40 68.4477 40 69V81Z" fill="#A0A3BD"/>
</svg>
