<svg width="102" height="102" viewBox="0 0 102 102" fill="none" xmlns="http://www.w3.org/2000/svg">
<circle cx="51" cy="51" r="51" fill="#F7F7FB"/>
<path fill-rule="evenodd" clip-rule="evenodd" d="M50.3192 27.5391C43.7475 27.5391 38.4202 32.8664 38.4202 39.4381C38.4202 46.0097 43.7475 51.3371 50.3192 51.3371C56.8908 51.3371 62.2182 46.0097 62.2182 39.4381C62.2182 32.8664 56.8908 27.5391 50.3192 27.5391ZM39.3702 39.4381C39.3702 33.3911 44.2722 28.4891 50.3192 28.4891C56.3661 28.4891 61.2682 33.3911 61.2682 39.4381C61.2682 45.485 56.3661 50.3871 50.3192 50.3871C44.2722 50.3871 39.3702 45.485 39.3702 39.4381ZM32.6609 72.4405C32.6609 65.9926 34.3614 61.4186 37.3699 58.4537C40.3798 55.4873 44.7745 54.057 50.319 54.057C55.8636 54.057 60.2584 55.4873 63.2684 58.4537C66.277 61.4186 67.9775 65.9926 67.9774 72.4405C67.9774 72.7029 68.19 72.9155 68.4524 72.9155C68.7147 72.9155 68.9274 72.7029 68.9274 72.4405C68.9275 65.8326 67.1827 60.9774 63.9352 57.777C60.6891 54.5781 56.0171 53.107 50.319 53.107C44.6209 53.107 39.949 54.5781 36.7031 57.777C33.4557 60.9774 31.7109 65.8327 31.7109 72.4405C31.7109 72.7029 31.9236 72.9155 32.1859 72.9155C32.4483 72.9155 32.6609 72.7029 32.6609 72.4405Z" fill="#6F6C90"/>
</svg>
