<svg width="11" height="14" viewBox="0 0 11 14" fill="none" xmlns="http://www.w3.org/2000/svg">
<path d="M5.79066 0.319946C8.29266 0.319946 10.0387 1.92195 10.0387 4.22595C9.98466 6.11595 8.65266 7.68195 7.32066 9.06795L4.53066 11.8759C5.01666 11.7499 5.44866 11.7319 5.86266 11.7319H10.1827V13.9999H0.804657V12.5599L5.32266 8.11395C6.69066 6.74595 7.53666 5.66595 7.53666 4.27995C7.53666 3.03795 6.79866 2.38995 5.62866 2.38995C4.62066 2.38995 3.90066 3.07395 3.61266 3.86595C3.52266 4.13595 3.48666 4.40595 3.46866 4.76595L1.11066 4.36995C1.54266 1.61595 3.32466 0.319946 5.79066 0.319946Z" fill="white"/>
</svg>
