<svg width="11" height="15" viewBox="0 0 11 15" fill="none" xmlns="http://www.w3.org/2000/svg">
<path d="M5.88065 0.319946C8.40065 0.373947 10.0747 1.93995 10.0206 3.93795C10.0206 5.46795 9.13865 6.36795 8.00465 6.92595C9.58865 7.51995 10.2547 8.54595 10.2547 10.1299C10.2007 12.8839 8.00465 14.3419 5.48465 14.3419C2.74865 14.3419 1.39865 12.9739 0.67865 10.6159L2.87465 9.75195C3.16265 10.9039 4.17065 12.1819 5.44865 12.1819C7.03265 12.1819 7.80665 11.1919 7.80665 10.1839C7.80665 8.92395 7.46465 8.05995 4.65665 8.05995V6.25995C7.03265 6.20595 7.59065 5.44995 7.59065 4.29795C7.60865 3.05595 6.90665 2.44395 5.73665 2.44395C4.20665 2.44395 3.68465 3.45195 3.45065 4.74795C2.67665 4.62195 1.90265 4.45995 1.11065 4.33395C1.63265 1.57995 3.34265 0.319946 5.88065 0.319946Z" fill="white"/>
</svg>
