<svg width="11" height="15" viewBox="0 0 11 15" fill="none" xmlns="http://www.w3.org/2000/svg">
<path d="M9.62467 0.536011V2.75001H4.56667L4.11667 5.37801C4.67467 5.28801 5.17867 5.25201 5.66467 5.25201C8.54467 5.25201 10.0927 7.08801 10.0927 9.46401C10.0927 12.362 7.89667 14.324 4.99867 14.324C3.34267 14.324 1.86667 13.568 0.948669 12.704L2.20867 10.868C3.05467 11.57 3.99067 12.182 5.14267 12.182C6.79867 12.182 7.68067 11.156 7.68067 9.57201C7.68067 8.13201 6.83467 7.25001 5.17867 7.30401C4.51267 7.35801 3.86467 7.48401 3.21667 7.71801L1.70467 7.26801C2.26267 3.81201 2.62267 1.68801 2.82067 0.536011H9.62467Z" fill="white"/>
</svg>
