<svg width="18" height="26" viewBox="0 0 18 26" fill="none" xmlns="http://www.w3.org/2000/svg">
<path d="M9.67671 0.679688C10.8074 0.701021 11.8207 0.882354 12.7167 1.22369C13.634 1.56502 14.4127 2.02369 15.0527 2.59969C15.714 3.17569 16.2154 3.84769 16.5567 4.61569C16.898 5.38369 17.058 6.21569 17.0367 7.11169C17.0367 8.47702 16.6954 9.58635 16.0127 10.4397C15.33 11.2717 14.4767 11.933 13.4527 12.4237C14.8607 12.957 15.874 13.693 16.4927 14.6317C17.1327 15.549 17.4527 16.7117 17.4527 18.1197C17.4314 19.3357 17.186 20.413 16.7167 21.3517C16.2474 22.2904 15.6287 23.0797 14.8607 23.7197C14.0927 24.3384 13.1967 24.8077 12.1727 25.1277C11.17 25.4477 10.1034 25.6077 8.97271 25.6077C7.75671 25.6077 6.69004 25.4584 5.77271 25.1597C4.85538 24.861 4.04471 24.4344 3.34071 23.8797C2.65804 23.3037 2.08204 22.6104 1.61271 21.7997C1.14338 20.9677 0.748711 20.029 0.428711 18.9837L4.33271 17.4477C4.46071 17.9597 4.66338 18.4717 4.94071 18.9837C5.21804 19.4957 5.55938 19.965 5.96471 20.3917C6.37004 20.797 6.81804 21.1277 7.30871 21.3837C7.79938 21.6397 8.33271 21.7677 8.90871 21.7677C9.61271 21.7677 10.2207 21.6717 10.7327 21.4797C11.266 21.2664 11.7034 20.9997 12.0447 20.6797C12.4074 20.3384 12.674 19.9544 12.8447 19.5277C13.0154 19.101 13.1007 18.6637 13.1007 18.2157C13.1007 17.661 13.0367 17.149 12.9087 16.6797C12.802 16.2104 12.5567 15.8157 12.1727 15.4957C11.7887 15.1544 11.2234 14.8984 10.4767 14.7277C9.75138 14.5357 8.75938 14.4397 7.50071 14.4397V11.2397C8.56738 11.2184 9.43138 11.1224 10.0927 10.9517C10.7754 10.781 11.3087 10.5464 11.6927 10.2477C12.0767 9.92769 12.3434 9.56502 12.4927 9.15969C12.642 8.73302 12.7167 8.26369 12.7167 7.75169C12.738 6.64235 12.45 5.82102 11.8527 5.28769C11.2767 4.73302 10.466 4.45569 9.42071 4.45569C8.73804 4.45569 8.16204 4.56236 7.69271 4.77569C7.22338 4.98902 6.82871 5.27702 6.50871 5.63969C6.21004 6.00236 5.96471 6.43969 5.77271 6.95169C5.60204 7.44236 5.46338 7.97569 5.35671 8.55169C4.67404 8.44502 3.98071 8.32769 3.27671 8.19969C2.59404 8.05036 1.90071 7.92236 1.19671 7.81569C1.66604 5.36236 2.62604 3.55969 4.07671 2.40769C5.54871 1.25569 7.41538 0.679688 9.67671 0.679688Z" fill="#A0A3BD"/>
</svg>
