<svg width="18" height="25" viewBox="0 0 18 25" fill="none" xmlns="http://www.w3.org/2000/svg">
<path d="M9.51634 0.679688C10.6257 0.679688 11.639 0.850355 12.5563 1.19169C13.495 1.53302 14.295 2.01302 14.9563 2.63169C15.6177 3.22902 16.1297 3.95436 16.4923 4.80769C16.8763 5.66102 17.0683 6.59969 17.0683 7.62369C17.047 8.45569 16.887 9.26636 16.5883 10.0557C16.311 10.8237 15.9483 11.5597 15.5003 12.2637C15.0523 12.9677 14.5403 13.6504 13.9643 14.3117C13.4097 14.973 12.8337 15.613 12.2363 16.2317L7.27634 21.2237C7.70301 21.117 8.10834 21.053 8.49234 21.0317C8.89768 20.989 9.28168 20.9677 9.64434 20.9677H17.3243V24.9997H0.652344V22.4397L8.68434 14.5357C9.90034 13.3197 10.8603 12.189 11.5643 11.1437C12.2683 10.0984 12.6203 8.95702 12.6203 7.71969C12.6203 6.61036 12.311 5.77836 11.6923 5.22369C11.095 4.64769 10.2737 4.35969 9.22834 4.35969C8.33234 4.35969 7.57501 4.62635 6.95634 5.15969C6.33768 5.67169 5.90034 6.27969 5.64434 6.98369C5.55901 7.21835 5.49501 7.46369 5.45234 7.71969C5.43101 7.97569 5.40968 8.26369 5.38834 8.58369L1.19634 7.87969C1.58034 5.42635 2.50834 3.61302 3.98034 2.43969C5.47368 1.26635 7.31901 0.679688 9.51634 0.679688Z" fill="#A0A3BD"/>
</svg>
