<svg width="18" height="18" viewBox="0 0 18 18" fill="none" xmlns="http://www.w3.org/2000/svg">
<path d="M7.018 0.279999C10.098 0.345999 12.144 2.26 12.078 4.702C12.078 6.572 11 7.672 9.614 8.354C11.55 9.08 12.364 10.334 12.364 12.27C12.298 15.636 9.614 17.418 6.534 17.418C3.19 17.418 1.54 15.746 0.66 12.864L3.344 11.808C3.696 13.216 4.928 14.778 6.49 14.778C8.426 14.778 9.372 13.568 9.372 12.336C9.372 10.796 8.954 9.74 5.522 9.74V7.54C8.426 7.474 9.108 6.55 9.108 5.142C9.13 3.624 8.272 2.876 6.842 2.876C4.972 2.876 4.334 4.108 4.048 5.692C3.102 5.538 2.156 5.34 1.188 5.186C1.826 1.82 3.916 0.279999 7.018 0.279999ZM17.7475 14.184V17.308H14.5355V14.184H17.7475Z" fill="#170F49"/>
</svg>
