<svg width="18" height="18" viewBox="0 0 18 18" fill="none" xmlns="http://www.w3.org/2000/svg">
<path d="M6.908 0.279999C9.966 0.279999 12.1 2.238 12.1 5.054C12.034 7.364 10.406 9.278 8.778 10.972L5.368 14.404C5.962 14.25 6.49 14.228 6.996 14.228H12.276V17H0.814V15.24L6.336 9.806C8.008 8.134 9.042 6.814 9.042 5.12C9.042 3.602 8.14 2.81 6.71 2.81C5.478 2.81 4.598 3.646 4.246 4.614C4.136 4.944 4.092 5.274 4.07 5.714L1.188 5.23C1.716 1.864 3.894 0.279999 6.908 0.279999ZM17.7475 14.184V17.308H14.5355V14.184H17.7475Z" fill="#170F49"/>
</svg>
