<svg width="15" height="15" viewBox="0 0 15 15" fill="none" xmlns="http://www.w3.org/2000/svg">
<path d="M14.6809 14.2513H12.0529V11.6953H14.6809V14.2513Z" fill="#702DFF"/>
<path d="M5.81217 0.320312C6.43617 0.320312 7.00617 0.416313 7.52217 0.608313C8.05017 0.800313 8.50017 1.07031 8.87217 1.41831C9.24417 1.75431 9.53217 2.16231 9.73617 2.64231C9.95217 3.12231 10.0602 3.65031 10.0602 4.22631C10.0482 4.69431 9.95817 5.15031 9.79017 5.59431C9.63417 6.02631 9.43017 6.44031 9.17817 6.83631C8.92617 7.23231 8.63817 7.61631 8.31417 7.98831C8.00217 8.36031 7.67817 8.72031 7.34217 9.06831L4.55217 11.8763C4.79217 11.8163 5.02017 11.7803 5.23617 11.7683C5.46417 11.7443 5.68017 11.7323 5.88417 11.7323H10.2042V14.0003H0.826172V12.5603L5.34417 8.11431C6.02817 7.43031 6.56817 6.79431 6.96417 6.20631C7.36017 5.61831 7.55817 4.97631 7.55817 4.28031C7.55817 3.65631 7.38417 3.18831 7.03617 2.87631C6.70017 2.55231 6.23817 2.39031 5.65017 2.39031C5.14617 2.39031 4.72017 2.54031 4.37217 2.84031C4.02417 3.12831 3.77817 3.47031 3.63417 3.86631C3.58617 3.99831 3.55017 4.13631 3.52617 4.28031C3.51417 4.42431 3.50217 4.58631 3.49017 4.76631L1.13217 4.37031C1.34817 2.99031 1.87017 1.97031 2.69817 1.31031C3.53817 0.650313 4.57617 0.320312 5.81217 0.320312Z" fill="#702DFF"/>
</svg>
