<svg width="15" height="15" viewBox="0 0 15 15" fill="none" xmlns="http://www.w3.org/2000/svg">
<path d="M14.6809 14.2513H12.0529V11.6953H14.6809V14.2513Z" fill="#702DFF"/>
<path d="M5.9022 0.320312C6.5382 0.332312 7.1082 0.434312 7.6122 0.626313C8.1282 0.818312 8.5662 1.07631 8.9262 1.40031C9.2982 1.72431 9.5802 2.10231 9.7722 2.53431C9.9642 2.96631 10.0542 3.43431 10.0422 3.93831C10.0422 4.70631 9.8502 5.33031 9.4662 5.81031C9.0822 6.27831 8.60219 6.65031 8.02619 6.92631C8.81819 7.22631 9.3882 7.64031 9.7362 8.16831C10.0962 8.68431 10.2762 9.33831 10.2762 10.1303C10.2642 10.8143 10.1262 11.4203 9.8622 11.9483C9.59819 12.4763 9.2502 12.9203 8.8182 13.2803C8.3862 13.6283 7.8822 13.8923 7.3062 14.0723C6.7422 14.2523 6.1422 14.3423 5.5062 14.3423C4.8222 14.3423 4.2222 14.2583 3.7062 14.0903C3.1902 13.9223 2.7342 13.6823 2.3382 13.3703C1.9542 13.0463 1.6302 12.6563 1.3662 12.2003C1.1022 11.7323 0.880195 11.2043 0.700195 10.6163L2.8962 9.75231C2.9682 10.0403 3.0822 10.3283 3.2382 10.6163C3.3942 10.9043 3.5862 11.1683 3.8142 11.4083C4.0422 11.6363 4.2942 11.8223 4.5702 11.9663C4.8462 12.1103 5.1462 12.1823 5.4702 12.1823C5.8662 12.1823 6.2082 12.1283 6.4962 12.0203C6.7962 11.9003 7.0422 11.7503 7.2342 11.5703C7.4382 11.3783 7.5882 11.1623 7.6842 10.9223C7.7802 10.6823 7.8282 10.4363 7.8282 10.1843C7.8282 9.87231 7.7922 9.58431 7.7202 9.32031C7.6602 9.05631 7.5222 8.83431 7.3062 8.65431C7.0902 8.46231 6.7722 8.31831 6.3522 8.22231C5.9442 8.11431 5.3862 8.06031 4.6782 8.06031V6.26031C5.2782 6.24831 5.7642 6.19431 6.1362 6.09831C6.5202 6.00231 6.8202 5.87031 7.0362 5.70231C7.2522 5.52231 7.4022 5.31831 7.4862 5.09031C7.5702 4.85031 7.6122 4.58631 7.6122 4.29831C7.6242 3.67431 7.4622 3.21231 7.1262 2.91231C6.8022 2.60031 6.3462 2.44431 5.7582 2.44431C5.3742 2.44431 5.0502 2.50431 4.7862 2.62431C4.5222 2.74431 4.3002 2.90631 4.1202 3.11031C3.9522 3.31431 3.8142 3.56031 3.7062 3.84831C3.6102 4.12431 3.5322 4.42431 3.4722 4.74831C3.0882 4.68831 2.6982 4.62231 2.3022 4.55031C1.9182 4.46631 1.5282 4.39431 1.1322 4.33431C1.3962 2.95431 1.9362 1.94031 2.7522 1.29231C3.5802 0.644312 4.6302 0.320312 5.9022 0.320312Z" fill="#702DFF"/>
</svg>
