<svg width="24" height="24" viewBox="0 0 24 24" fill="none" xmlns="http://www.w3.org/2000/svg">
<path fill-rule="evenodd" clip-rule="evenodd" d="M13.8002 3.99922C13.8002 4.99333 12.9943 5.79922 12.0002 5.79922C11.0061 5.79922 10.2002 4.99333 10.2002 3.99922C10.2002 3.00511 11.0061 2.19922 12.0002 2.19922C12.9943 2.19922 13.8002 3.00511 13.8002 3.99922ZM13.8002 11.9992C13.8002 12.9933 12.9943 13.7992 12.0002 13.7992C11.0061 13.7992 10.2002 12.9933 10.2002 11.9992C10.2002 11.0051 11.0061 10.1992 12.0002 10.1992C12.9943 10.1992 13.8002 11.0051 13.8002 11.9992ZM12.0002 21.7992C12.9943 21.7992 13.8002 20.9933 13.8002 19.9992C13.8002 19.0051 12.9943 18.1992 12.0002 18.1992C11.0061 18.1992 10.2002 19.0051 10.2002 19.9992C10.2002 20.9933 11.0061 21.7992 12.0002 21.7992Z" fill="#09090B"/>
</svg>
