<svg width="24" height="24" viewBox="0 0 24 24" fill="none" xmlns="http://www.w3.org/2000/svg">
<path fill-rule="evenodd" clip-rule="evenodd" d="M7.1998 1.89844C6.92366 1.89844 6.6998 2.1223 6.6998 2.39844C6.6998 2.67458 6.92366 2.89844 7.1998 2.89844H19.1998C19.3655 2.89844 19.4998 3.03275 19.4998 3.19844V20.7984C19.4998 20.9641 19.3655 21.0984 19.1998 21.0984H7.1998C6.92366 21.0984 6.6998 21.3223 6.6998 21.5984C6.6998 21.8746 6.92366 22.0984 7.1998 22.0984H19.1998C19.9178 22.0984 20.4998 21.5164 20.4998 20.7984V3.19844C20.4998 2.48047 19.9178 1.89844 19.1998 1.89844H7.1998ZM10.3534 8.04488C10.1581 7.84962 9.84151 7.84962 9.64625 8.04488C9.45099 8.24015 9.45099 8.55673 9.64625 8.75199L12.3927 11.4984H0.799805C0.523662 11.4984 0.299805 11.7223 0.299805 11.9984C0.299805 12.2746 0.523662 12.4984 0.799805 12.4984H12.3927L9.64625 15.2449C9.45099 15.4401 9.45099 15.7567 9.64625 15.952C9.84151 16.1473 10.1581 16.1473 10.3534 15.952L13.9534 12.352C14.1486 12.1567 14.1486 11.8401 13.9534 11.6449L10.3534 8.04488Z" fill="#09090B"/>
</svg>
