<svg width="12" height="11" viewBox="0 0 12 11" fill="none" xmlns="http://www.w3.org/2000/svg">
<path d="M11.1162 4.8C11.1589 5.504 11.0629 6.16534 10.8282 6.784C10.6149 7.38134 10.3055 7.91467 9.90021 8.384C9.49487 8.85334 9.00421 9.248 8.42821 9.568C7.87354 9.86667 7.25487 10.0693 6.57221 10.176V8.064C7.36154 7.76534 7.90554 7.36001 8.20421 6.84801C8.52421 6.31467 8.68421 5.64267 8.68421 4.832H6.63621V0.160004H11.1162V4.8ZM4.78021 4.8C4.82287 5.48267 4.72687 6.13334 4.49221 6.752C4.27887 7.34934 3.96954 7.89334 3.56421 8.384C3.15887 8.85334 2.66821 9.248 2.09221 9.568C1.53754 9.86667 0.918873 10.0693 0.236206 10.176V8.064C1.02554 7.76534 1.56954 7.36001 1.86821 6.84801C2.18821 6.31467 2.34821 5.64267 2.34821 4.832H0.300206V0.160004H4.78021V4.8Z" fill="#020202"/>
</svg>
