<svg width="12" height="11" viewBox="0 0 12 11" fill="none" xmlns="http://www.w3.org/2000/svg">
<path d="M0.86143 5.56799C0.840096 4.88532 0.936096 4.24532 1.14943 3.64799C1.36276 3.02932 1.6721 2.48532 2.07743 2.01599C2.5041 1.52532 2.99476 1.11999 3.54943 0.799986C4.12543 0.479985 4.7441 0.277318 5.40543 0.191986V2.30399C4.59476 2.60265 4.0401 3.00799 3.74143 3.51999C3.44276 4.03198 3.29343 4.70399 3.29343 5.53599H5.34143V10.208H0.86143V5.56799ZM7.19743 5.56799C7.1761 4.88532 7.2721 4.24532 7.48543 3.64799C7.69876 3.02932 8.0081 2.48532 8.41343 2.01599C8.81876 1.52532 9.30943 1.11999 9.88543 0.799986C10.4614 0.479985 11.0801 0.277318 11.7414 0.191986V2.30399C10.9308 2.60265 10.3761 3.00799 10.0774 3.51999C9.77876 4.03198 9.62943 4.70399 9.62943 5.53599H11.6774V10.208H7.19743V5.56799Z" fill="#020202"/>
</svg>
