<svg width="926" height="6" viewBox="0 0 926 6" fill="none" xmlns="http://www.w3.org/2000/svg">
<path d="M0.333333 3C0.333333 4.47276 1.52724 5.66667 3 5.66667C4.47276 5.66667 5.66667 4.47276 5.66667 3C5.66667 1.52724 4.47276 0.333333 3 0.333333C1.52724 0.333333 0.333333 1.52724 0.333333 3ZM920.333 3.00008C920.333 4.47284 921.527 5.66675 923 5.66675C924.473 5.66675 925.667 4.47284 925.667 3.00008C925.667 1.52732 924.473 0.333414 923 0.333414C921.527 0.333414 920.333 1.52732 920.333 3.00008ZM3 3.5L923 3.50008L923 2.50008L3 2.5L3 3.5Z" fill="#170F49"/>
</svg>
