<svg width="760" height="6" viewBox="0 0 760 6" fill="none" xmlns="http://www.w3.org/2000/svg">
<path d="M0.333333 3C0.333333 4.47276 1.52724 5.66667 3 5.66667C4.47276 5.66667 5.66667 4.47276 5.66667 3C5.66667 1.52724 4.47276 0.333333 3 0.333333C1.52724 0.333333 0.333333 1.52724 0.333333 3ZM754.333 3.00007C754.333 4.47283 755.527 5.66673 757 5.66673C758.473 5.66673 759.667 4.47283 759.667 3.00007C759.667 1.52731 758.473 0.333399 757 0.333399C755.527 0.333399 754.333 1.52731 754.333 3.00007ZM3 3.5L757 3.50007L757 2.50007L3 2.5L3 3.5Z" fill="#A0A3BD"/>
</svg>
