<svg width="1014" height="6" viewBox="0 0 1014 6" fill="none" xmlns="http://www.w3.org/2000/svg">
<path d="M0.333333 2.75C0.333333 4.22276 1.52724 5.41667 3 5.41667C4.47276 5.41667 5.66667 4.22276 5.66667 2.75C5.66667 1.27724 4.47276 0.0833331 3 0.0833333C1.52724 0.0833334 0.333333 1.27724 0.333333 2.75ZM1008.33 2.74991C1008.33 4.22267 1009.53 5.41658 1011 5.41658C1012.47 5.41658 1013.67 4.22267 1013.67 2.74991C1013.67 1.27715 1012.47 0.083245 1011 0.0832451C1009.53 0.0832453 1008.33 1.27715 1008.33 2.74991ZM3 3.25L1011 3.24991L1011 2.24991L3 2.25L3 3.25Z" fill="#170F49"/>
</svg>
