<svg width="24" height="24" viewBox="0 0 24 24" fill="none" xmlns="http://www.w3.org/2000/svg">
<path fill-rule="evenodd" clip-rule="evenodd" d="M7.20078 1.89844C6.92464 1.89844 6.70078 2.1223 6.70078 2.39844C6.70078 2.67458 6.92464 2.89844 7.20078 2.89844H19.2008C19.3665 2.89844 19.5008 3.03275 19.5008 3.19844V20.7984C19.5008 20.9641 19.3665 21.0984 19.2008 21.0984H7.20078C6.92464 21.0984 6.70078 21.3223 6.70078 21.5984C6.70078 21.8746 6.92464 22.0984 7.20078 22.0984H19.2008C19.9188 22.0984 20.5008 21.5164 20.5008 20.7984V3.19844C20.5008 2.48047 19.9188 1.89844 19.2008 1.89844H7.20078ZM10.3543 8.04488C10.1591 7.84962 9.84249 7.84962 9.64723 8.04488C9.45197 8.24015 9.45197 8.55673 9.64723 8.75199L12.3937 11.4984H0.800781C0.524639 11.4984 0.300781 11.7223 0.300781 11.9984C0.300781 12.2746 0.524639 12.4984 0.800781 12.4984H12.3937L9.64723 15.2449C9.45197 15.4401 9.45197 15.7567 9.64723 15.952C9.84249 16.1473 10.1591 16.1473 10.3543 15.952L13.9543 12.352C14.1496 12.1567 14.1496 11.8401 13.9543 11.6449L10.3543 8.04488Z" fill="#F64D4D"/>
</svg>
