<svg width="32" height="32" viewBox="0 0 32 32" fill="none" xmlns="http://www.w3.org/2000/svg">
<path fill-rule="evenodd" clip-rule="evenodd" d="M10.4386 4.45312C7.13367 4.45312 4.45117 7.14328 4.45117 10.4659C4.45117 13.8186 6.38678 17.2237 8.88913 20.2756C11.234 23.1354 14.0119 25.6095 15.9733 27.3565C15.982 27.3642 15.9906 27.3719 15.9993 27.3796C16.0079 27.3719 16.0165 27.3642 16.0252 27.3565C17.9867 25.6095 20.7645 23.1354 23.1094 20.2756C25.6117 17.2237 27.5474 13.8186 27.5474 10.4659C27.5474 7.14328 24.8649 4.45312 21.5599 4.45312C19.6184 4.45312 18.4991 5.13985 17.7931 5.93671C17.1654 6.64527 16.8441 7.45525 16.5867 8.10416C16.5435 8.21306 16.5021 8.31743 16.4614 8.41601C16.3841 8.60305 16.2016 8.72504 15.9993 8.72505C15.7969 8.72505 15.6145 8.60305 15.5372 8.41602C15.4964 8.31742 15.455 8.21303 15.4118 8.10411C15.1544 7.45521 14.8331 6.64525 14.2054 5.93671C13.4995 5.13985 12.3801 4.45312 10.4386 4.45312ZM3.45117 10.4659C3.45117 6.59467 6.57772 3.45312 10.4386 3.45312C12.6591 3.45312 14.0534 4.25711 14.9539 5.27358C15.4272 5.80778 15.7568 6.39609 15.9993 6.91919C16.2417 6.39609 16.5713 5.80778 17.0446 5.27358C17.9451 4.25711 19.3394 3.45312 21.5599 3.45312C25.4208 3.45312 28.5474 6.59467 28.5474 10.4659C28.5474 14.1774 26.4226 17.812 23.8827 20.9097C21.4861 23.8326 18.6544 26.3542 16.6978 28.0965C16.5722 28.2084 16.4502 28.317 16.3321 28.4224C16.1425 28.5916 15.856 28.5916 15.6664 28.4224C15.5483 28.317 15.4263 28.2084 15.3007 28.0965C13.3441 26.3542 10.5124 23.8326 8.11584 20.9097C5.57596 17.812 3.45117 14.1774 3.45117 10.4659Z" fill="#F64D4D"/>
</svg>
