<svg width="24" height="24" viewBox="0 0 24 24" fill="none" xmlns="http://www.w3.org/2000/svg">
<path fill-rule="evenodd" clip-rule="evenodd" d="M12.0004 1.68359C8.9545 1.68359 6.48535 4.15274 6.48535 7.19859C6.48535 10.2444 8.9545 12.7136 12.0004 12.7136C15.0462 12.7136 17.5154 10.2444 17.5154 7.19859C17.5154 4.15274 15.0462 1.68359 12.0004 1.68359ZM7.43535 7.19859C7.43535 4.67741 9.47917 2.63359 12.0004 2.63359C14.5215 2.63359 16.5654 4.67741 16.5654 7.19859C16.5654 9.71978 14.5215 11.7636 12.0004 11.7636C9.47917 11.7636 7.43535 9.71978 7.43535 7.19859ZM4.47539 21.7585C4.47539 18.9585 5.21321 17.0192 6.47375 15.7769C7.73569 14.5332 9.59706 13.9136 12.0003 13.9136C14.4035 13.9136 16.2649 14.5332 17.5269 15.7769C18.7875 17.0192 19.5253 18.9585 19.5253 21.7585C19.5253 22.0208 19.7379 22.2335 20.0003 22.2335C20.2626 22.2335 20.4753 22.0209 20.4753 21.7585C20.4753 18.7986 19.6932 16.5779 18.1937 15.1002C16.6957 13.6239 14.5571 12.9636 12.0003 12.9636C9.44349 12.9636 7.30492 13.6239 5.80692 15.1003C4.30751 16.578 3.52539 18.7986 3.52539 21.7585C3.52539 22.0208 3.73806 22.2335 4.00039 22.2335C4.26273 22.2335 4.47539 22.0208 4.47539 21.7585Z" fill="#F64D4D"/>
</svg>
