<svg width="24" height="24" viewBox="0 0 24 24" fill="none" xmlns="http://www.w3.org/2000/svg">
<path fill-rule="evenodd" clip-rule="evenodd" d="M12.5004 4.39844C12.5004 4.1223 12.2765 3.89844 12.0004 3.89844C11.7242 3.89844 11.5004 4.1223 11.5004 4.39844V11.4984H4.40039C4.12425 11.4984 3.90039 11.7223 3.90039 11.9984C3.90039 12.2746 4.12425 12.4984 4.40039 12.4984H11.5004V19.5984C11.5004 19.8746 11.7242 20.0984 12.0004 20.0984C12.2765 20.0984 12.5004 19.8746 12.5004 19.5984V12.4984H19.6004C19.8765 12.4984 20.1004 12.2746 20.1004 11.9984C20.1004 11.7223 19.8765 11.4984 19.6004 11.4984H12.5004V4.39844Z" fill="#F64D4D"/>
</svg>
