<svg width="24" height="24" viewBox="0 0 24 24" fill="none" xmlns="http://www.w3.org/2000/svg">
<path d="M11.7224 0.66526C11.8249 0.418872 12.174 0.418872 12.2764 0.66526L15.1031 7.4614C15.1463 7.56527 15.244 7.63624 15.3561 7.64523L22.6931 8.23344C22.9591 8.25476 23.067 8.58671 22.8643 8.76031L17.2743 13.5488C17.1889 13.622 17.1516 13.7368 17.1777 13.8462L18.8855 21.0059C18.9474 21.2655 18.6651 21.4706 18.4373 21.3315L12.1558 17.4948C12.0598 17.4362 11.9391 17.4362 11.8431 17.4948L5.56157 21.3315C5.33384 21.4706 5.05146 21.2655 5.11338 21.0059L6.82122 13.8462C6.84733 13.7368 6.81001 13.622 6.72458 13.5488L1.13455 8.76031C0.931893 8.58671 1.03975 8.25476 1.30575 8.23344L8.64275 7.64523C8.75489 7.63624 8.85257 7.56527 8.89578 7.4614L11.7224 0.66526Z" fill="#F64D4D"/>
</svg>
