<svg width="52" height="74" viewBox="0 0 52 74" fill="none" xmlns="http://www.w3.org/2000/svg">
<path d="M32.737 14C35.4739 14 37.9739 14.4211 40.237 15.2632C42.5528 16.1053 44.5265 17.2895 46.1581 18.8158C47.7896 20.2895 49.0528 22.0789 49.9475 24.1842C50.8949 26.2895 51.3686 28.6053 51.3686 31.1316C51.316 33.1842 50.9212 35.1842 50.1844 37.1316C49.5002 39.0263 48.6054 40.8421 47.5002 42.5789C46.3949 44.3158 45.1317 46 43.7107 47.6316C42.3423 49.2632 40.9212 50.8421 39.4475 52.3684L27.2107 64.6842C28.2633 64.4211 29.2633 64.2632 30.2107 64.2105C31.2107 64.1053 32.1581 64.0526 33.0528 64.0526H52.0002V74H10.8686V67.6842L30.6844 48.1842C33.6844 45.1842 36.0528 42.3947 37.7896 39.8158C39.5265 37.2368 40.3949 34.4211 40.3949 31.3684C40.3949 28.6316 39.6317 26.5789 38.1054 25.2105C36.6317 23.7895 34.6054 23.0789 32.0265 23.0789C29.816 23.0789 27.9475 23.7368 26.4212 25.0526C24.8949 26.3158 23.816 27.8158 23.1844 29.5526C22.9739 30.1316 22.816 30.7368 22.7107 31.3684C22.6581 32 22.6054 32.7105 22.5528 33.5L12.2107 31.7632C13.1581 25.7105 15.4475 21.2368 19.0791 18.3421C22.7633 15.4474 27.316 14 32.737 14Z" fill="#A0A3BD"/>
</svg>
