<svg width="52" height="74" viewBox="0 0 52 74" fill="none" xmlns="http://www.w3.org/2000/svg">
<path d="M33.2837 14C36.0052 14.0513 38.4442 14.4878 40.6008 15.3094C42.8088 16.1309 44.6829 17.2349 46.2234 18.6213C47.8152 20.0077 49.0218 21.6252 49.8434 23.4737C50.665 25.3222 51.0501 27.3248 50.9987 29.4814C50.9987 32.7677 50.1772 35.4377 48.534 37.4917C46.8909 39.4942 44.837 41.086 42.3723 42.267C45.7613 43.5507 48.2003 45.3222 49.6894 47.5815C51.2298 49.7895 52 52.5879 52 55.9769C51.9487 58.9037 51.3582 61.4968 50.2285 63.7561C49.0989 66.0154 47.6098 67.9153 45.7613 69.4557C43.9127 70.9448 41.7561 72.0745 39.2914 72.8447C36.8781 73.6149 34.3107 74 31.5892 74C28.6624 74 26.095 73.6406 23.8871 72.9217C21.6791 72.2028 19.7279 71.1759 18.0334 69.8408C16.3903 68.4544 15.0039 66.7856 13.8742 64.8344C12.7446 62.8318 11.7946 60.5725 11.0244 58.0565L20.4211 54.3594C20.7292 55.5918 21.217 56.8241 21.8845 58.0565C22.552 59.2888 23.3736 60.4185 24.3492 61.4454C25.3248 62.4211 26.4031 63.2169 27.5841 63.8331C28.7651 64.4493 30.0488 64.7574 31.4352 64.7574C33.1297 64.7574 34.5931 64.5263 35.8254 64.0642C37.1091 63.5507 38.1618 62.9089 38.9833 62.1386C39.8562 61.3171 40.4981 60.3928 40.9089 59.3659C41.3197 58.3389 41.5251 57.2863 41.5251 56.208C41.5251 54.8729 41.371 53.6406 41.0629 52.5109C40.8062 51.3813 40.2157 50.4313 39.2914 49.6611C38.3672 48.8395 37.0064 48.2234 35.2093 47.8126C33.4634 47.3504 31.0758 47.1194 28.0462 47.1194V39.4172C30.6136 39.3659 32.6932 39.1348 34.285 38.724C35.9281 38.3132 37.2118 37.7484 38.1361 37.0295C39.0604 36.2593 39.7022 35.3864 40.0616 34.4108C40.4211 33.3838 40.6008 32.2542 40.6008 31.0218C40.6521 28.3517 39.9589 26.3748 38.5212 25.0911C37.1348 23.7561 35.1836 23.0886 32.6675 23.0886C31.0244 23.0886 29.638 23.3453 28.5084 23.8588C27.3787 24.3723 26.4288 25.0655 25.6586 25.9384C24.9397 26.8113 24.3492 27.8639 23.8871 29.0963C23.4763 30.2773 23.1425 31.561 22.8858 32.9474C21.2426 32.6906 19.5738 32.4082 17.8794 32.1001C16.2362 31.7407 14.5674 31.4326 12.8729 31.1759C14.0026 25.2709 16.3132 20.932 19.8049 18.1592C23.3479 15.3864 27.8408 14 33.2837 14Z" fill="#A0A3BD"/>
</svg>
