<svg width="24" height="24" viewBox="0 0 24 24" fill="none" xmlns="http://www.w3.org/2000/svg">
<path fill-rule="evenodd" clip-rule="evenodd" d="M13.7992 3.99922C13.7992 4.99333 12.9933 5.79922 11.9992 5.79922C11.0051 5.79922 10.1992 4.99333 10.1992 3.99922C10.1992 3.00511 11.0051 2.19922 11.9992 2.19922C12.9933 2.19922 13.7992 3.00511 13.7992 3.99922ZM13.7992 11.9992C13.7992 12.9933 12.9933 13.7992 11.9992 13.7992C11.0051 13.7992 10.1992 12.9933 10.1992 11.9992C10.1992 11.0051 11.0051 10.1992 11.9992 10.1992C12.9933 10.1992 13.7992 11.0051 13.7992 11.9992ZM11.9992 21.7992C12.9933 21.7992 13.7992 20.9933 13.7992 19.9992C13.7992 19.0051 12.9933 18.1992 11.9992 18.1992C11.0051 18.1992 10.1992 19.0051 10.1992 19.9992C10.1992 20.9933 11.0051 21.7992 11.9992 21.7992Z" fill="#6F6C90"/>
</svg>
