<svg width="24" height="24" viewBox="0 0 24 24" fill="none" xmlns="http://www.w3.org/2000/svg">
<path fill-rule="evenodd" clip-rule="evenodd" d="M16.5992 10.3992C16.5992 13.8234 13.8234 16.5992 10.3992 16.5992C6.97505 16.5992 4.19922 13.8234 4.19922 10.3992C4.19922 6.97505 6.97505 4.19922 10.3992 4.19922C13.8234 4.19922 16.5992 6.97505 16.5992 10.3992ZM15.1246 15.8317C13.8601 16.9326 12.2075 17.5992 10.3992 17.5992C6.42277 17.5992 3.19922 14.3757 3.19922 10.3992C3.19922 6.42277 6.42277 3.19922 10.3992 3.19922C14.3757 3.19922 17.5992 6.42277 17.5992 10.3992C17.5992 12.2075 16.9326 13.8601 15.8317 15.1246L20.3528 19.6457C20.548 19.8409 20.548 20.1575 20.3528 20.3528C20.1575 20.548 19.8409 20.548 19.6457 20.3528L15.1246 15.8317Z" fill="#6F6C90"/>
</svg>
