<svg width="24" height="24" viewBox="0 0 24 24" fill="none" xmlns="http://www.w3.org/2000/svg">
<path fill-rule="evenodd" clip-rule="evenodd" d="M11.4788 1.25097L11.4579 1.30126L8.89578 7.4614C8.85257 7.56527 8.75489 7.63624 8.64275 7.64523L1.99236 8.17839L1.93808 8.18274L1.60654 8.20932L1.30575 8.23344C1.03975 8.25476 0.931893 8.58671 1.13455 8.76031L1.36373 8.95662L1.61632 9.173L1.65768 9.20843L6.72458 13.5488C6.81001 13.622 6.84733 13.7368 6.82122 13.8462L5.2732 20.3359L5.26057 20.3888L5.1834 20.7124L5.11338 21.0059C5.05146 21.2654 5.33384 21.4706 5.56157 21.3315L5.81909 21.1742L6.10293 21.0008L6.14941 20.9725L11.8431 17.4948C11.9391 17.4362 12.0598 17.4362 12.1558 17.4948L17.8495 20.9725L17.896 21.0008L18.1798 21.1742L18.4373 21.3315C18.6651 21.4706 18.9474 21.2654 18.8855 21.0059L18.8155 20.7124L18.7383 20.3888L18.7257 20.3359L17.1777 13.8462C17.1516 13.7368 17.1889 13.622 17.2743 13.5488L22.3412 9.20843L22.3826 9.173L22.6352 8.95662L22.8643 8.76031C23.067 8.58671 22.9591 8.25476 22.6931 8.23344L22.3924 8.20932L22.0608 8.18274L22.0065 8.17839L15.3561 7.64523C15.244 7.63624 15.1463 7.56527 15.1031 7.4614L12.541 1.30126L12.5201 1.25097L12.3923 0.943876L12.2764 0.66526C12.174 0.418872 11.8249 0.418872 11.7224 0.66526L11.6066 0.943876L11.4788 1.25097ZM11.9994 2.60324L9.8191 7.84543C9.63189 8.29554 9.20859 8.60308 8.72267 8.64203L3.06328 9.09574L7.37514 12.7893C7.74536 13.1064 7.90704 13.6041 7.79393 14.0782L6.47659 19.6008L11.3218 16.6414C11.7378 16.3873 12.2611 16.3873 12.6771 16.6414L17.5223 19.6008L16.205 14.0782C16.0918 13.6041 16.2535 13.1064 16.6238 12.7893L20.9356 9.09574L15.2762 8.64203C14.7903 8.60308 14.367 8.29554 14.1798 7.84543L11.9994 2.60324Z" fill="#6F6C90"/>
</svg>
